<svg width="288" height="98" viewBox="0 0 144 49" fill="none" xmlns="http://www.w3.org/2000/svg">
<path d="M143.175 41.9252L125.435 2.4771C124.555 0.709407 123.065 -0.0238297 121.606 -4.90183e-05C120.112 -0.0515737 118.578 0.685626 117.694 2.50088C117.659 2.61978 100.192 42.0441 100.184 42.1313C97.9683 48.4213 106.811 51.917 109.506 45.8411L110.195 44.113C115.95 43.7088 127.765 42.9002 132.601 42.5475C133.477 44.7075 134.016 46.0313 134.028 46.0432C137.004 52.0082 145.668 48.0963 143.179 41.9292L143.175 41.9252ZM113.826 34.9733L121.61 15.4098C123.746 20.6891 126.426 27.3041 128.748 33.0352L113.83 34.9733H113.826Z" fill="#7B2165"/>
<path d="M58.4647 7.05091C46.499 18.9373 50.9341 39.5472 66.0586 46.4911C74.9605 50.7875 86.3395 49.0356 93.3112 41.9014C100.445 34.9337 102.197 23.5507 97.9009 14.6488C90.9609 -0.483589 70.355 -4.91471 58.4647 7.05091ZM86.0264 34.6127C76.4032 44.0338 60.0699 36.9352 59.3089 23.6934C58.7144 14.7955 66.2053 7.30061 75.1072 7.89512C88.349 8.65214 95.4475 24.9855 86.0264 34.6127Z" fill="#7B2165"/>
<path d="M44.9216 38.0252V46.8914C44.9216 47.5969 44.0695 47.9496 43.5701 47.4502L33.0471 36.9313C32.7102 36.5944 32.7459 36.0435 33.1185 35.7502C33.3721 35.552 33.6218 35.3419 33.8676 35.124C34.0539 34.9575 34.2401 34.7831 34.4225 34.6047C35.0011 34.0142 35.5164 33.3959 35.9722 32.7617C42.9478 23.0355 35.9325 8.60061 23.5032 7.89116C14.6013 7.29664 7.11039 14.7875 7.70491 23.6855C8.36284 35.2032 20.816 42.0798 30.3797 37.4663C30.9029 37.2127 31.5054 37.6051 31.5054 38.1837V47.264C31.5054 47.6246 31.2636 47.9457 30.9148 48.0329C25.477 49.4201 19.5596 48.9445 14.4546 46.4832C-0.673801 39.5432 -5.10889 18.9333 6.85673 7.05091C18.7431 -4.91471 39.353 -0.483587 46.2969 14.6449C49.8323 21.9693 49.2695 30.9782 44.9811 37.8191C44.9414 37.8825 44.9216 37.9538 44.9216 38.0252Z" fill="#7B2165"/>
</svg>
