<?xml version="1.0" encoding="UTF-8" standalone="no"?>
<!-- Created with Inkscape (http://www.inkscape.org/) -->

<svg
   xmlns:dc="http://purl.org/dc/elements/1.1/"
   xmlns:cc="http://creativecommons.org/ns#"
   xmlns:rdf="http://www.w3.org/1999/02/22-rdf-syntax-ns#"
   xmlns:svg="http://www.w3.org/2000/svg"
   xmlns="http://www.w3.org/2000/svg"
   xmlns:xlink="http://www.w3.org/1999/xlink"
   xmlns:sodipodi="http://sodipodi.sourceforge.net/DTD/sodipodi-0.dtd"
   xmlns:inkscape="http://www.inkscape.org/namespaces/inkscape"
   width="180"
   height="140"
   viewBox="0 0 180 140"
   id="svg4149"
   version="1.1"
   inkscape:version="0.91 r13725"
   sodipodi:docname="Image Converter.thumb.svg">
  <defs
     id="defs4151">
    <linearGradient
       id="linearGradient28799-4">
      <stop
         style="stop-color:#fefefc;stop-opacity:1;"
         offset="0"
         id="stop28801-13" />
      <stop
         id="stop28807-8"
         offset="0.75733864"
         style="stop-color:#fefefc;stop-opacity:1" />
      <stop
         style="stop-color:#d4d4d4;stop-opacity:1"
         offset="1"
         id="stop28803-8" />
    </linearGradient>
    <radialGradient
       inkscape:collect="always"
       xlink:href="#linearGradient28799-4"
       id="radialGradient29032"
       gradientUnits="userSpaceOnUse"
       gradientTransform="matrix(1.0857794,-0.03431182,0.03943781,1.2479887,-154.54194,-26.542647)"
       cx="223.19559"
       cy="137.66095"
       fx="223.19559"
       fy="137.66095"
       r="14.572236" />
    <radialGradient
       inkscape:collect="always"
       xlink:href="#linearGradient28799-4"
       id="radialGradient29648"
       gradientUnits="userSpaceOnUse"
       gradientTransform="matrix(0.81524244,-0.03431182,0.02961133,1.2479887,-129.43743,-26.542647)"
       cx="223.19559"
       cy="137.66095"
       fx="223.19559"
       fy="137.66095"
       r="14.572236" />
    <linearGradient
       id="linearGradient14392-7"
       inkscape:collect="always">
      <stop
         id="stop14394-8"
         offset="0"
         style="stop-color:#3e2a06;stop-opacity:1" />
      <stop
         id="stop14396-6"
         offset="1"
         style="stop-color:#ad780a;stop-opacity:1" />
    </linearGradient>
    <linearGradient
       y2="293.58548"
       x2="490.12241"
       y1="371.54401"
       x1="442.03912"
       gradientTransform="matrix(0.87491199,0,0,0.81148755,60.367186,62.586953)"
       gradientUnits="userSpaceOnUse"
       id="linearGradient14477"
       xlink:href="#linearGradient14392-7"
       inkscape:collect="always" />
    <linearGradient
       y2="293.58548"
       x2="490.12241"
       y1="371.54401"
       x1="442.03912"
       gradientTransform="translate(4e-6,9.6185359e-6)"
       gradientUnits="userSpaceOnUse"
       id="linearGradient14485"
       xlink:href="#linearGradient14392-7"
       inkscape:collect="always" />
    <clipPath
       id="clipPath14186-9"
       clipPathUnits="userSpaceOnUse">
      <path
         style="fill:#402c07;fill-opacity:1;stroke:none"
         d="m 137.57703,281.0191 c 1.59929,-0.66295 3.3982,-0.78361 5.10074,-0.46963 1.70253,0.31398 3.31141,1.04948 4.74342,2.02239 2.86402,1.94583 4.98821,4.77774 7.02263,7.57952 4.67189,6.43406 9.16868,13.00227 13.24488,19.8293 3.30635,5.53766 6.34352,11.25685 10.16415,16.45304 2.49398,3.3919 5.3066,6.53947 7.813,9.92221 2.50639,3.38273 4.72794,7.05586 5.83931,11.11662 1.44411,5.27653 0.88463,11.09291 -1.62666,15.95302 -1.76663,3.41896 -4.47646,6.35228 -7.77242,8.33898 -3.29595,1.9867 -7.17064,3.01444 -11.01635,2.87021 -6.11413,-0.2293 -11.69944,-3.28515 -17.38362,-5.54906 -11.58097,-4.6125 -24.15978,-6.0594 -36.09666,-9.65174 -3.66859,-1.10404 -7.27582,-2.4107 -10.96988,-3.42629 -1.64125,-0.45122 -3.30866,-0.8482 -4.85875,-1.55144 -1.55008,-0.70325 -2.999548,-1.7491 -3.86171,-3.21675 -0.666391,-1.13439 -0.948386,-2.47002 -0.930187,-3.78554 0.0182,-1.31552 0.325889,-2.61453 0.773815,-3.85158 0.895851,-2.47409 2.343262,-4.71374 3.320162,-7.15696 1.59511,-3.98935 1.88169,-8.38839 1.66657,-12.67942 -0.21511,-4.29103 -0.91078,-8.54478 -1.20454,-12.83115 -0.13118,-1.91406 -0.18066,-3.85256 0.18479,-5.73598 0.36545,-1.88343 1.17577,-3.72459 2.55771,-5.05541 1.27406,-1.22693 2.96492,-1.95531 4.69643,-2.31651 1.73151,-0.3612 3.51533,-0.37747 5.28367,-0.33762 1.76833,0.0399 3.54067,0.13425 5.30351,-0.0106 1.76284,-0.14488 3.53347,-0.54055 5.06911,-1.41828 1.45996,-0.83447 2.65433,-2.0745 3.64374,-3.43424 0.9894,-1.35974 1.78909,-2.84573 2.60891,-4.31396 0.81983,-1.46823 1.66834,-2.93151 2.74157,-4.22611 1.07324,-1.2946 2.38923,-2.42304 3.94266,-3.06698"
         id="path14188-1"
         inkscape:connector-curvature="0"
         sodipodi:nodetypes="ssssssssssssssss"
         inkscape:original-d="m 137.57703,281.0191 c 6.32494,-1.3585 11.99755,4.87308 16.86679,9.13228 6.42572,5.62067 -8.54781,26.01622 13.24488,19.8293 5.86081,-1.66388 6.89528,11.31183 10.16415,16.45304 4.09971,6.44793 11.58575,13.6827 13.65231,21.03883 1.58383,5.63779 1.34339,10.90606 -1.62666,15.95302 -3.57124,6.06857 -11.7907,10.42929 -18.78877,11.20919 -5.73056,0.63864 -11.87822,-3.8351 -17.38362,-5.54906 -12.31617,-3.83432 -23.77946,-5.82074 -36.09666,-9.65174 -2.50091,-0.77785 -8.28361,-2.638 -10.96988,-3.42629 -4.51043,-1.3236 -6.46556,-0.99271 -8.72046,-4.76819 -2.68251,-4.49147 0.68051,-9.72669 3.16379,-14.79408 4.06995,-8.30524 1.91195,-17.82603 0.46203,-25.51057 -0.92235,-4.8884 -0.66071,-7.92707 2.7425,-10.79139 4.99476,-4.20385 14.53027,-1.53186 20.35272,-4.08305 5.82246,-2.55119 6.66365,-13.6939 12.93688,-15.04129 z" />
    </clipPath>
    <inkscape:path-effect
       effect="spiro"
       id="path-effect4669-1"
       is_visible="true" />
    <inkscape:path-effect
       effect="spiro"
       id="path-effect4669-4-3"
       is_visible="true" />
    <inkscape:path-effect
       is_visible="true"
       id="path-effect14972-2-2"
       effect="spiro" />
    <inkscape:path-effect
       is_visible="true"
       id="path-effect15017-9"
       effect="spiro" />
    <clipPath
       id="clipPath15031-3"
       clipPathUnits="userSpaceOnUse">
      <path
         sodipodi:nodetypes="czzzzzzzzzzzzzzzszzzzzc"
         inkscape:original-d="m 248.06066,184.61218 c 0,0 -5.10626,6.34527 -7.89695,10.24696 -2.7907,3.9017 -5.73652,6.64881 -8.58729,10.75139 -2.85076,4.10259 -7.36482,9.43164 -9.44912,13.93045 -2.08429,4.49881 -2.32047,9.0356 -4.26498,13.84932 -1.94451,4.81371 -3.70129,10.64183 -5.97071,15.33612 -2.26943,4.69429 -5.37093,9.68473 -6.93891,13.53553 -1.56799,3.8508 -3.81119,5.72384 -4.10782,10.22071 -0.29663,4.49686 -0.57747,8.31749 3.77151,16.77227 4.34898,8.45478 17.23626,22.00721 24.24176,27.92472 7.00549,5.9175 9.39133,7.22492 14.60245,8.52595 5.21112,1.30104 13.85627,2.9981 16.72874,-1.2702 2.87246,-4.26829 2.27191,-5.96483 -0.74863,-10.66616 -3.02055,-4.70132 -4.82469,-5.30209 -9.79642,-9.57343 -4.97172,-4.27133 -18.63696,-14.87266 -22.68212,-19.23996 -4.04516,-4.36729 -7.10731,-3.41164 -5.53019,-6.28412 1.57712,-2.87249 -2.20738,-4.00856 -2.65783,-7.69253 -0.76361,-6.24511 0.9436,-18.71046 1.45958,-22.13343 0.51598,-3.42296 1.22371,-2.92446 3.51815,-8.03965 2.29444,-5.11519 4.12424,-8.62435 7.04933,-13.46723 2.92509,-4.84289 8.62493,-10.12787 11.15147,-15.27803 2.52654,-5.15017 3.50393,-10.72068 4.36185,-15.31831 0.85792,-4.59763 1.74613,-12.13037 1.74613,-12.13037 z"
         inkscape:connector-curvature="0"
         id="path15033-2"
         d="m 248.06066,184.61218 c -2.60091,3.4397 -5.23338,6.85555 -7.89695,10.24696 -2.83301,3.60715 -5.70116,7.1866 -8.58729,10.75139 -3.54135,4.37407 -7.15155,8.79286 -9.44912,13.93045 -1.97407,4.41422 -2.91014,9.20748 -4.26498,13.84932 -1.53862,5.27153 -3.62627,10.37023 -5.97071,15.33612 -2.1648,4.58539 -4.54978,9.06293 -6.93891,13.53553 -1.73823,3.25407 -3.50515,6.58104 -4.10782,10.22071 -0.47627,2.87632 -0.19849,5.84423 0.53376,8.66626 0.73224,2.82202 1.90964,5.5106 3.23775,8.10601 5.66724,11.07504 14.17003,20.62168 24.24176,27.92472 4.57063,3.31418 9.46669,6.18109 14.60245,8.52595 2.78247,1.27041 5.71355,2.40436 8.77186,2.45744 1.52915,0.0265 3.0741,-0.22544 4.47434,-0.84055 1.40024,-0.6151 2.65068,-1.60373 3.48254,-2.88709 1.02278,-1.5779 1.36992,-3.53829 1.16461,-5.40743 -0.2053,-1.86914 -0.93484,-3.65294 -1.91324,-5.25873 -2.38997,-3.92251 -6.1652,-6.76055 -9.79642,-9.57343 -7.84055,-6.07358 -15.42466,-12.48038 -22.68212,-19.23996 -2.04911,-1.90854 -4.0984,-3.87759 -5.53019,-6.28412 -1.3943,-2.34352 -2.14763,-5.01375 -2.65783,-7.69253 -1.39963,-7.34872 -1.0404,-15.0827 1.45958,-22.13343 0.97802,-2.75834 2.27066,-5.39225 3.51815,-8.03965 2.1622,-4.58855 4.21133,-9.26299 7.04933,-13.46723 3.53268,-5.23334 8.24484,-9.67275 11.15147,-15.27803 2.45457,-4.7335 3.49353,-10.05742 4.36185,-15.31831 0.66531,-4.03089 1.24751,-8.07549 1.74613,-12.13037"
         style="fill:none;stroke:#729fcf;stroke-width:0.125;stroke-linecap:butt;stroke-linejoin:miter;stroke-miterlimit:4;stroke-opacity:1;stroke-dasharray:none" />
    </clipPath>
    <inkscape:path-effect
       effect="spiro"
       id="path-effect29716-6-1"
       is_visible="true" />
    <clipPath
       id="clipPath14822-9"
       clipPathUnits="userSpaceOnUse">
      <path
         style="fill:none;stroke:#ce5c00;stroke-width:1px;stroke-linecap:butt;stroke-linejoin:miter;stroke-opacity:1"
         inkscape:original-d="m 386.1875,285.32775 c -2.36571,-3.81321 -7.59294,-4.9003 -11.805,-6.41698 -2.08672,-0.75138 -4.32322,-1.04333 -6.52782,-1.27734 -2.27612,-0.2416 -4.71593,-0.91505 -6.8653,-0.1253 -3.64566,1.33955 -7.24986,3.80684 -8.75671,7.70871 -1.13743,2.94527 -1.80122,7.05909 -1.65394,10.40316 0.13075,2.96891 0.9633,5.07273 2.60877,7.33912 1.08803,1.49859 3.40096,2.67896 5.43398,3.22092 3.49923,0.93284 7.37483,0.82779 10.86038,-0.1553 5.98587,-2.2615 11.09272,-5.76885 14.33034,-10.77903 1.07459,-1.67639 2.15539,-3.45031 2.5532,-5.4034 0.30053,-1.4755 0.61519,-3.23621 -0.1779,-4.51456 z"
         id="path14824-1"
         d="m 386.1875,285.32775 c -0.40516,-1.10369 -1.11845,-2.08156 -1.9907,-2.86987 -0.87226,-0.78832 -1.90049,-1.39229 -2.98278,-1.85155 -2.16459,-0.91852 -4.52053,-1.26149 -6.83152,-1.69556 -2.17919,-0.40931 -4.34179,-0.90631 -6.52782,-1.27734 -2.27136,-0.38551 -4.6179,-0.63213 -6.8653,-0.1253 -1.96583,0.44333 -3.7845,1.45879 -5.27172,2.81864 -1.48723,1.35984 -2.64911,3.0564 -3.48499,4.89007 -1.47218,3.22952 -1.93451,6.86503 -1.65394,10.40316 0.20882,2.63325 0.87532,5.34594 2.60877,7.33912 1.40065,1.61052 3.38733,2.61526 5.43398,3.22092 3.52502,1.04316 7.36663,0.98822 10.86038,-0.1553 5.76689,-1.93113 10.87568,-5.77387 14.33034,-10.77903 1.13861,-1.64963 2.11217,-3.44809 2.5532,-5.4034 0.33597,-1.48955 0.34831,-3.08112 -0.1779,-4.51456"
         inkscape:connector-curvature="0"
         sodipodi:nodetypes="aaaasssaccaa" />
    </clipPath>
    <clipPath
       id="clipPath14822-2-4"
       clipPathUnits="userSpaceOnUse">
      <path
         style="fill:none;stroke:#ce5c00;stroke-width:1px;stroke-linecap:butt;stroke-linejoin:miter;stroke-opacity:1"
         inkscape:original-d="m 386.1875,285.32775 c -2.36571,-3.81321 -7.59294,-4.9003 -11.805,-6.41698 -2.08672,-0.75138 -4.32322,-1.04333 -6.52782,-1.27734 -2.27612,-0.2416 -4.71593,-0.91505 -6.8653,-0.1253 -3.64566,1.33955 -7.24986,3.80684 -8.75671,7.70871 -1.13743,2.94527 -1.80122,7.05909 -1.65394,10.40316 0.13075,2.96891 0.9633,5.07273 2.60877,7.33912 1.08803,1.49859 3.40096,2.67896 5.43398,3.22092 3.49923,0.93284 7.37483,0.82779 10.86038,-0.1553 5.98587,-2.2615 11.09272,-5.76885 14.33034,-10.77903 1.07459,-1.67639 2.15539,-3.45031 2.5532,-5.4034 0.30053,-1.4755 0.61519,-3.23621 -0.1779,-4.51456 z"
         id="path14824-6-5"
         d="m 386.1875,285.32775 c -0.40516,-1.10369 -1.11845,-2.08156 -1.9907,-2.86987 -0.87226,-0.78832 -1.90049,-1.39229 -2.98278,-1.85155 -2.16459,-0.91852 -4.52053,-1.26149 -6.83152,-1.69556 -2.17919,-0.40931 -4.34179,-0.90631 -6.52782,-1.27734 -2.27136,-0.38551 -4.6179,-0.63213 -6.8653,-0.1253 -1.96583,0.44333 -3.7845,1.45879 -5.27172,2.81864 -1.48723,1.35984 -2.64911,3.0564 -3.48499,4.89007 -1.47218,3.22952 -1.93451,6.86503 -1.65394,10.40316 0.20882,2.63325 0.87532,5.34594 2.60877,7.33912 1.40065,1.61052 3.38733,2.61526 5.43398,3.22092 3.52502,1.04316 7.36663,0.98822 10.86038,-0.1553 5.76689,-1.93113 10.87568,-5.77387 14.33034,-10.77903 1.13861,-1.64963 2.11217,-3.44809 2.5532,-5.4034 0.33597,-1.48955 0.34831,-3.08112 -0.1779,-4.51456"
         inkscape:connector-curvature="0"
         sodipodi:nodetypes="aaaasssaccaa" />
    </clipPath>
    <linearGradient
       id="linearGradient14518-6">
      <stop
         style="stop-color:#110800;stop-opacity:1;"
         offset="0"
         id="stop14540-0" />
      <stop
         id="stop14542-5"
         offset="0.59066743"
         style="stop-color:#a65a00;stop-opacity:0.80000001;" />
      <stop
         id="stop14522-4"
         offset="1"
         style="stop-color:#ff921e;stop-opacity:0;" />
    </linearGradient>
    <inkscape:path-effect
       effect="spiro"
       id="path-effect29716-0-0"
       is_visible="true" />
    <inkscape:path-effect
       effect="spiro"
       id="path-effect29716-0-8-3"
       is_visible="true" />
    <inkscape:path-effect
       is_visible="true"
       id="path-effect14300-7"
       effect="spiro" />
    <clipPath
       id="clipPath14489-3"
       clipPathUnits="userSpaceOnUse">
      <path
         inkscape:original-d="m 516.00562,331.8756 c 0.90859,1.59687 -1.57016,3.38773 -2.81579,4.73826 -2.74207,2.97299 -6.45099,4.90178 -9.89648,7.01985 -5.91373,3.63539 -12.61918,5.90302 -18.41964,9.71654 -3.88318,2.553 -7.32809,5.72221 -10.86016,8.74238 -3.0221,2.58411 -5.48201,5.87643 -8.83247,8.01771 -3.3519,2.1422 -7.0437,4.15414 -10.99061,4.6502 -4.78298,0.60114 -9.87221,-0.25577 -14.29898,-2.16416 -3.0947,-1.33413 -6.16113,-3.38144 -7.96301,-6.22931 -1.81288,-2.86525 -2.06093,-6.5375 -2.23266,-9.92375 -0.30734,-6.06031 1.36252,-12.0605 2.17848,-18.07349 0.67882,-5.00236 1.85312,-9.94325 2.26013,-14.97502 0.73946,-9.14185 -0.7797,-18.40771 0.3199,-27.51327 0.35468,-2.93704 -0.181,-6.65876 2.01238,-8.64398 2.0384,-1.84494 5.43058,-1.1212 8.17929,-1.06253 3.34492,0.0714 6.63224,0.95108 9.88917,1.71656 2.05612,0.48325 3.99816,1.41138 6.0722,1.81081 3.44031,0.66255 6.96573,1.06623 10.46739,0.95192 3.78516,-0.12356 7.43659,-1.79636 11.22363,-1.76474 1.55185,0.013 3.12359,0.28186 4.58649,0.79985 1.48266,0.52499 2.98786,1.20618 4.12281,2.29512 0.86547,0.83038 1.42933,1.95676 1.87872,3.06879 0.67163,1.66196 0.8942,3.4778 1.16703,5.24945 0.24238,1.57389 -0.1531,3.27141 0.41433,4.75933 1.83023,4.79924 5.57666,8.72712 9.22489,12.34277 1.74278,1.93455 4.03041,3.53404 6.16708,4.82839 2.26886,1.37444 4.3675,2.44991 5.46279,4.81597 0.65901,1.48517 -0.54371,3.76097 0.68307,4.82635 z"
         sodipodi:nodetypes="aaaaaaaaaaaaaaaaaaaaaaaacscaa"
         inkscape:connector-curvature="0"
         id="path14491-6"
         d="m 516.00562,331.8756 c -0.6714,1.71905 -1.62682,3.32679 -2.81579,4.73826 -2.6238,3.11482 -6.268,5.17039 -9.89648,7.01985 -6.1886,3.15437 -12.60169,5.92177 -18.41964,9.71654 -3.89802,2.54249 -7.4959,5.52671 -10.86016,8.74238 -2.87719,2.75012 -5.60582,5.68745 -8.83247,8.01771 -3.25567,2.35122 -7.01915,4.05426 -10.99061,4.6502 -4.83026,0.72481 -9.82134,-0.21289 -14.29898,-2.16416 -3.13754,-1.36728 -6.15569,-3.3229 -7.96301,-6.22931 -1.81425,-2.91754 -2.22807,-6.48813 -2.23266,-9.92375 -0.008,-6.07666 1.11824,-12.09004 2.17848,-18.07349 0.88097,-4.97177 1.71949,-9.95483 2.26013,-14.97502 0.98337,-9.13118 0.9763,-18.35278 0.3199,-27.51327 -0.10993,-1.53416 -0.23754,-3.0832 -0.008,-4.60412 0.22922,-1.52092 0.85475,-3.0367 2.02069,-4.03986 1.07696,-0.9266 2.52093,-1.33598 3.93947,-1.4145 1.41854,-0.0785 2.83404,0.14655 4.23982,0.35197 3.31254,0.48405 6.65159,0.8649 9.88917,1.71656 2.04284,0.53738 4.03315,1.25925 6.0722,1.81081 3.40258,0.92039 6.96639,1.36144 10.46739,0.95192 3.76917,-0.44089 7.42987,-1.85678 11.22363,-1.76474 1.55658,0.0378 3.1015,0.33171 4.58649,0.79985 1.51539,0.47772 3.00914,1.16182 4.12281,2.29512 0.84639,0.8613 1.43579,1.94539 1.87872,3.06879 0.65982,1.67352 1.01492,3.457 1.16703,5.24945 0.13475,1.58788 0.11343,3.19441 0.41433,4.75933 0.49503,2.57458 1.84746,4.92305 3.52848,6.93494 1.68102,2.01189 3.68982,3.72048 5.69641,5.40783 1.99908,1.68103 4.0106,3.35469 6.16708,4.82839 1.0121,0.69165 2.05642,1.33949 3.01736,2.10062 0.96094,0.76113 1.84466,1.6468 2.44543,2.71535 0.81492,1.44944 1.06377,3.2077 0.68307,4.82635 l 2e-5,0"
         style="fill:url(#linearGradient14485);fill-opacity:1;stroke:none" />
    </clipPath>
    <inkscape:path-effect
       is_visible="true"
       id="path-effect14300-2-7"
       effect="spiro" />
    <clipPath
       id="clipPath14481-1"
       clipPathUnits="userSpaceOnUse">
      <path
         inkscape:original-d="m 516.00562,331.8756 c 0.90859,1.59687 -1.57016,3.38773 -2.81579,4.73826 -2.74207,2.97299 -6.45099,4.90178 -9.89648,7.01985 -5.91373,3.63539 -12.61918,5.90302 -18.41964,9.71654 -3.88318,2.553 -7.32809,5.72221 -10.86016,8.74238 -3.0221,2.58411 -5.48201,5.87643 -8.83247,8.01771 -3.3519,2.1422 -7.0437,4.15414 -10.99061,4.6502 -4.78298,0.60114 -9.87221,-0.25577 -14.29898,-2.16416 -3.0947,-1.33413 -6.16113,-3.38144 -7.96301,-6.22931 -1.81288,-2.86525 -2.06093,-6.5375 -2.23266,-9.92375 -0.30734,-6.06031 1.36252,-12.0605 2.17848,-18.07349 0.67882,-5.00236 1.85312,-9.94325 2.26013,-14.97502 0.73946,-9.14185 -0.7797,-18.40771 0.3199,-27.51327 0.35468,-2.93704 -0.181,-6.65876 2.01238,-8.64398 2.0384,-1.84494 5.43058,-1.1212 8.17929,-1.06253 3.34492,0.0714 6.63224,0.95108 9.88917,1.71656 2.05612,0.48325 3.99816,1.41138 6.0722,1.81081 3.44031,0.66255 6.96573,1.06623 10.46739,0.95192 3.78516,-0.12356 7.43659,-1.79636 11.22363,-1.76474 1.55185,0.013 3.12359,0.28186 4.58649,0.79985 1.48266,0.52499 2.98786,1.20618 4.12281,2.29512 0.86547,0.83038 1.42933,1.95676 1.87872,3.06879 0.67163,1.66196 0.8942,3.4778 1.16703,5.24945 0.24238,1.57389 -0.1531,3.27141 0.41433,4.75933 1.83023,4.79924 5.57666,8.72712 9.22489,12.34277 1.74278,1.93455 4.03041,3.53404 6.16708,4.82839 2.26886,1.37444 4.3675,2.44991 5.46279,4.81597 0.65901,1.48517 -0.54371,3.76097 0.68307,4.82635 z"
         sodipodi:nodetypes="aaaaaaaaaaaaaaaaaaaaaaaacscaa"
         inkscape:connector-curvature="0"
         id="path14483-3"
         d="m 516.00562,331.8756 c -0.6714,1.71905 -1.62682,3.32679 -2.81579,4.73826 -2.6238,3.11482 -6.268,5.17039 -9.89648,7.01985 -6.1886,3.15437 -12.60169,5.92177 -18.41964,9.71654 -3.89802,2.54249 -7.4959,5.52671 -10.86016,8.74238 -2.87719,2.75012 -5.60582,5.68745 -8.83247,8.01771 -3.25567,2.35122 -7.01915,4.05426 -10.99061,4.6502 -4.83026,0.72481 -9.82134,-0.21289 -14.29898,-2.16416 -3.13754,-1.36728 -6.15569,-3.3229 -7.96301,-6.22931 -1.81425,-2.91754 -2.22807,-6.48813 -2.23266,-9.92375 -0.008,-6.07666 1.11824,-12.09004 2.17848,-18.07349 0.88097,-4.97177 1.71949,-9.95483 2.26013,-14.97502 0.98337,-9.13118 0.9763,-18.35278 0.3199,-27.51327 -0.10993,-1.53416 -0.23754,-3.0832 -0.008,-4.60412 0.22922,-1.52092 0.85475,-3.0367 2.02069,-4.03986 1.07696,-0.9266 2.52093,-1.33598 3.93947,-1.4145 1.41854,-0.0785 2.83404,0.14655 4.23982,0.35197 3.31254,0.48405 6.65159,0.8649 9.88917,1.71656 2.04284,0.53738 4.03315,1.25925 6.0722,1.81081 3.40258,0.92039 6.96639,1.36144 10.46739,0.95192 3.76917,-0.44089 7.42987,-1.85678 11.22363,-1.76474 1.55658,0.0378 3.1015,0.33171 4.58649,0.79985 1.51539,0.47772 3.00914,1.16182 4.12281,2.29512 0.84639,0.8613 1.43579,1.94539 1.87872,3.06879 0.65982,1.67352 1.01492,3.457 1.16703,5.24945 0.13475,1.58788 0.11343,3.19441 0.41433,4.75933 0.49503,2.57458 1.84746,4.92305 3.52848,6.93494 1.68102,2.01189 3.68982,3.72048 5.69641,5.40783 1.99908,1.68103 4.0106,3.35469 6.16708,4.82839 1.0121,0.69165 2.05642,1.33949 3.01736,2.10062 0.96094,0.76113 1.84466,1.6468 2.44543,2.71535 0.81492,1.44944 1.06377,3.2077 0.68307,4.82635 l 2e-5,0"
         style="fill:url(#linearGradient14485);fill-opacity:1;stroke:none" />
    </clipPath>
    <inkscape:path-effect
       is_visible="true"
       id="path-effect14300-2-2-0"
       effect="spiro" />
    <clipPath
       id="clipPath14473-5"
       clipPathUnits="userSpaceOnUse">
      <path
         inkscape:original-d="m 511.82669,331.89986 c 0.79493,1.29584 -1.37375,2.7491 -2.46357,3.84504 -2.39907,2.41255 -5.64405,3.97773 -8.65855,5.69652 -5.17399,2.95008 -11.04067,4.79023 -16.11556,7.88485 -3.39744,2.07173 -6.41144,4.64351 -9.50169,7.09434 -2.64407,2.09697 -4.79627,4.76865 -7.72763,6.50627 -2.93262,1.73837 -6.16262,3.37103 -9.61582,3.77358 -4.18468,0.48781 -8.63731,-0.20756 -12.51035,-1.75619 -2.70759,-1.08263 -5.39044,-2.744 -6.96693,-5.05501 -1.58611,-2.32511 -1.80313,-5.3051 -1.95338,-8.053 -0.2689,-4.91787 1.19208,-9.78694 1.90598,-14.66641 0.59391,-4.05935 1.62131,-8.06882 1.97741,-12.15204 0.64696,-7.4185 -0.68217,-14.93763 0.27989,-22.32668 0.31031,-2.38337 -0.15836,-5.4035 1.76065,-7.01448 1.78342,-1.49715 4.75128,-0.90984 7.15616,-0.86223 2.92651,0.0579 5.80263,0.77179 8.65215,1.39297 1.79893,0.39215 3.49804,1.14531 5.31265,1.46945 3.00996,0.53765 6.0944,0.86523 9.15804,0.77247 3.31168,-0.10027 6.50636,-1.45773 9.81969,-1.43207 1.35773,0.0105 2.73287,0.22873 4.01277,0.64907 1.2972,0.42602 2.61412,0.9788 3.6071,1.86246 0.75721,0.67384 1.25054,1.58789 1.64371,2.49029 0.58762,1.34866 0.78235,2.82219 1.02105,4.25986 0.21206,1.27719 -0.13395,2.65471 0.36251,3.86214 1.60129,3.89452 4.87908,7.08195 8.07096,10.016 1.52478,1.56986 3.52626,2.86783 5.39565,3.91818 1.98506,1.11534 3.82118,1.98807 4.77946,3.9081 0.57658,1.2052 -0.47569,3.05198 0.59763,3.91652 z"
         sodipodi:nodetypes="aaaaaaaaaaaaaaaaaaaaaaaacscaa"
         inkscape:connector-curvature="0"
         id="path14475-9"
         d="m 511.82669,331.89986 c -0.60617,1.40358 -1.44178,2.70776 -2.46357,3.84504 -2.32524,2.58805 -5.50706,4.22246 -8.65855,5.69652 -5.42045,2.53534 -11.00071,4.7788 -16.11556,7.88485 -3.38301,2.05437 -6.53696,4.47221 -9.50169,7.09434 -2.52461,2.23286 -4.92977,4.6271 -7.72763,6.50627 -2.88313,1.93644 -6.17534,3.29888 -9.61582,3.77358 -4.21817,0.58201 -8.55335,-0.18335 -12.51035,-1.75619 -2.7091,-1.07682 -5.36625,-2.6185 -6.96693,-5.05501 -1.53813,-2.3413 -1.9333,-5.25173 -1.95338,-8.053 -0.0354,-4.93859 0.96501,-9.81816 1.90598,-14.66641 0.78215,-4.02995 1.52682,-8.0717 1.97741,-12.15204 0.81784,-7.40607 0.66114,-14.88536 0.27989,-22.32668 -0.064,-1.24906 -0.13361,-2.5105 0.0789,-3.74301 0.21256,-1.23251 0.73646,-2.45247 1.68171,-3.27147 0.93914,-0.8137 2.20952,-1.15942 3.45104,-1.2115 1.24152,-0.0521 2.47642,0.16381 3.70512,0.34927 2.88969,0.43617 5.81087,0.7091 8.65215,1.39297 1.78651,0.43 3.53091,1.02011 5.31265,1.46945 2.98632,0.75312 6.09645,1.10709 9.15804,0.77247 3.2941,-0.36004 6.50688,-1.50957 9.81969,-1.43207 1.35838,0.0318 2.70755,0.27142 4.01277,0.64907 1.31265,0.3798 2.61744,0.9202 3.6071,1.86246 0.72535,0.69061 1.25006,1.56936 1.64371,2.49029 0.57625,1.34814 0.88626,2.79994 1.02105,4.25986 0.11897,1.28855 0.10468,2.59405 0.36251,3.86214 0.4369,2.14878 1.63966,4.08139 3.11506,5.70353 1.4754,1.62214 3.22406,2.96752 4.9559,4.31247 1.75634,1.36398 3.50975,2.7398 5.39565,3.91818 0.88228,0.55128 1.79349,1.05932 2.63473,1.67142 0.84123,0.61209 1.61878,1.33907 2.14473,2.23668 0.68386,1.16711 0.90229,2.59857 0.59763,3.91652 l 2e-5,0"
         style="fill:url(#linearGradient14477);fill-opacity:1;stroke:none" />
    </clipPath>
    <inkscape:path-effect
       effect="spiro"
       id="path-effect4582-3"
       is_visible="true" />
    <inkscape:path-effect
       effect="spiro"
       id="path-effect4500-7"
       is_visible="true" />
    <clipPath
       id="clipPath14656-7"
       clipPathUnits="userSpaceOnUse">
      <path
         style="fill:none;stroke:#c17d11;stroke-width:1px;stroke-linecap:butt;stroke-linejoin:miter;stroke-opacity:1"
         inkscape:original-d="m 304.84727,225.44951 c 5.05628,5.63479 9.72833,12.47181 10.94319,20.00305 1.91724,11.88535 -4.97006,23.58228 -6.44591,35.53273 -0.57645,4.66766 -2.84839,9.7988 -0.93525,14.08107 1.10334,2.46967 3.76154,4.35176 6.36677,4.92292 5.08221,1.1142 11.95719,2.41291 15.20182,-3.54776 6.07775,-11.16533 10.5961,-26.78641 9.45943,-38.64224 -0.906,-9.44981 -3.86858,-18.61978 -7.74003,-27.40773 -2.817,-6.39442 -6.14704,-12.5833 -9.61753,-18.52016 -3.44146,-5.88721 -8.20051,-10.94245 -13.10336,-15.63502 -6.34842,-6.07614 -12.40311,-17.98386 -20.89399,-15.99204 -5.48499,1.28669 -7.45029,9.57719 -7.69578,15.30218 -0.17245,4.02188 2.46425,7.71677 4.46569,11.18873 2.26238,3.92465 5.10447,7.56255 8.38442,10.65407 3.43735,3.23988 8.4511,4.53927 11.61053,8.0602 z"
         id="path14658-9"
         d="m 304.84727,225.44951 c 6.01627,4.92338 9.77707,12.317 10.94319,20.00305 1.8254,12.03148 -2.34636,24.07488 -6.44591,35.53273 -0.81749,2.28481 -1.63978,4.59033 -1.96473,6.99513 -0.32495,2.4048 -0.11897,4.94825 1.02948,7.08594 1.30279,2.42497 3.73227,4.12469 6.36677,4.92292 2.58877,0.78438 5.39365,0.76103 8.01466,0.0922 2.62101,-0.66882 5.06097,-1.96774 7.18716,-3.63996 5.48002,-4.30997 8.75799,-10.98552 10.01043,-17.84394 1.25243,-6.85841 0.63908,-13.92879 -0.551,-20.7983 -1.62313,-9.36916 -4.30898,-18.53961 -7.74003,-27.40773 -2.51766,-6.50732 -5.46794,-12.91081 -9.61753,-18.52016 -4.04611,-5.46946 -9.16208,-10.08954 -13.10336,-15.63502 -2.73209,-3.84412 -4.89983,-8.13097 -8.1917,-11.50812 -1.64594,-1.68858 -3.57654,-3.13527 -5.76975,-4.00143 -2.19321,-0.86616 -4.66356,-1.12446 -6.93254,-0.48249 -1.50468,0.42573 -2.89193,1.23739 -4.03791,2.30136 -1.14598,1.06397 -2.05268,2.37637 -2.69275,3.80312 -1.28015,2.85349 -1.47719,6.11241 -0.96512,9.1977 0.66114,3.98343 2.44407,7.69333 4.46569,11.18873 2.27396,3.93169 4.918,7.71926 8.38442,10.65407 3.5985,3.04664 7.96161,5.07413 11.61053,8.0602"
         inkscape:connector-curvature="0"
         sodipodi:nodetypes="aaaaassssaaaaaa" />
    </clipPath>
    <inkscape:path-effect
       effect="spiro"
       id="path-effect29707-7-6"
       is_visible="true" />
    <inkscape:path-effect
       effect="spiro"
       id="path-effect29553-7"
       is_visible="true" />
    <clipPath
       clipPathUnits="userSpaceOnUse"
       id="clipPath29644-8">
      <path
         style="fill:url(#radialGradient29648);fill-opacity:1;stroke:none"
         d="m 54.232441,122.36218 c -1.780966,0.097 -3.484616,0.91899 -4.787851,2.1367 -1.303235,1.21771 -2.221372,2.81176 -2.786181,4.50357 -1.129618,3.38363 -0.875481,7.05177 -0.618698,10.60973 0.23251,3.22162 0.470404,6.50533 1.676785,9.50158 0.60319,1.49813 1.450247,2.91021 2.580338,4.06395 1.130092,1.15374 2.551736,2.04189 4.118297,2.43447 1.468838,0.36809 3.038161,0.29183 4.482784,-0.16209 1.444623,-0.45391 2.763917,-1.27887 3.846236,-2.33791 1.57904,-1.54507 2.643262,-3.5662 3.253449,-5.68947 0.610186,-2.12328 0.784157,-4.35155 0.752401,-6.56053 -0.03974,-2.76435 -0.400909,-5.53851 -1.265755,-8.16439 -0.864846,-2.62588 -2.245742,-5.10327 -4.172795,-7.08561 -0.933308,-0.96009 -1.997766,-1.80513 -3.198586,-2.39747 -1.200819,-0.59233 -2.54344,-0.92535 -3.880424,-0.85253"
         id="path29646-8"
         inkscape:original-d="m 54.232441,122.36218 c -3.79199,4.78949 -8.5176,11.69104 -8.19273,17.25 0.32487,5.55896 3.86025,13.93486 8.37542,16 4.51517,2.06514 5.75436,0.0125 8.32902,-2.5 2.57466,-2.51247 3.85871,-7.34762 4.00585,-12.25 0.14713,-4.90238 -3.03534,-11.91949 -5.43855,-15.25 -2.40321,-3.33051 -3.28702,-8.03949 -7.07901,-3.25 z"
         inkscape:connector-curvature="0"
         sodipodi:nodetypes="zzzzzzz" />
    </clipPath>
    <linearGradient
       id="linearGradient28469-0">
      <stop
         id="stop28479-4"
         offset="0"
         style="stop-color:#d2940a;stop-opacity:1" />
      <stop
         id="stop28477-2"
         offset="0.75143719"
         style="stop-color:#d89c08;stop-opacity:1" />
      <stop
         style="stop-color:#b67e07;stop-opacity:1;"
         offset="0.86579126"
         id="stop28485-7" />
      <stop
         style="stop-color:#946106;stop-opacity:1"
         offset="1"
         id="stop28473-1" />
    </linearGradient>
    <inkscape:path-effect
       effect="spiro"
       id="path-effect28463-4"
       is_visible="true" />
    <inkscape:path-effect
       effect="spiro"
       id="path-effect28489-4"
       is_visible="true" />
    <inkscape:path-effect
       effect="spiro"
       id="path-effect28273-54-7"
       is_visible="true" />
    <linearGradient
       id="linearGradient28275-8">
      <stop
         style="stop-color:#ad780a;stop-opacity:1"
         offset="0"
         id="stop28277-1" />
      <stop
         id="stop28291-9"
         offset="0.11972899"
         style="stop-color:#d89e08;stop-opacity:1" />
      <stop
         id="stop28289-6"
         offset="0.25514477"
         style="stop-color:#edb80b;stop-opacity:1" />
      <stop
         id="stop28287-6"
         offset="0.39194193"
         style="stop-color:#ebc80d;stop-opacity:1" />
      <stop
         id="stop28285-7"
         offset="0.52741116"
         style="stop-color:#f5d838;stop-opacity:1" />
      <stop
         id="stop28283-7"
         offset="0.76906693"
         style="stop-color:#f6d811;stop-opacity:1" />
      <stop
         style="stop-color:#f5cd31;stop-opacity:1"
         offset="1"
         id="stop28279-5" />
    </linearGradient>
    <inkscape:path-effect
       effect="spiro"
       id="path-effect28273-44"
       is_visible="true" />
    <inkscape:path-effect
       effect="spiro"
       id="path-effect28384-7"
       is_visible="true" />
    <linearGradient
       id="linearGradient29529-6">
      <stop
         style="stop-color:#3a2903;stop-opacity:1;"
         offset="0"
         id="stop29531-0" />
      <stop
         id="stop29539-7"
         offset="0.55472803"
         style="stop-color:#735208;stop-opacity:1" />
      <stop
         style="stop-color:#ac8c04;stop-opacity:1"
         offset="1"
         id="stop29533-8" />
    </linearGradient>
    <inkscape:path-effect
       effect="spiro"
       id="path-effect29455-3"
       is_visible="true" />
    <linearGradient
       id="linearGradient29477-3">
      <stop
         style="stop-color:#757574;stop-opacity:0"
         offset="0"
         id="stop29479-5" />
      <stop
         id="stop29487-5"
         offset="0.26291031"
         style="stop-color:#757574;stop-opacity:1;" />
      <stop
         id="stop29485-0"
         offset="0.5"
         style="stop-color:#757574;stop-opacity:1;" />
      <stop
         style="stop-color:#757574;stop-opacity:0"
         offset="1"
         id="stop29481-3" />
    </linearGradient>
    <linearGradient
       id="linearGradient29336-6">
      <stop
         style="stop-color:#646464;stop-opacity:0"
         offset="0"
         id="stop29338-1" />
      <stop
         id="stop29344-7"
         offset="0.30628255"
         style="stop-color:#646464;stop-opacity:0.5825243" />
      <stop
         style="stop-color:#646464;stop-opacity:1"
         offset="0.47000006"
         id="stop29354-5" />
      <stop
         id="stop29356-3"
         offset="0.72834015"
         style="stop-color:#646464;stop-opacity:0.25728154" />
      <stop
         style="stop-color:#646464;stop-opacity:0;"
         offset="1"
         id="stop29340-6" />
    </linearGradient>
    <linearGradient
       id="linearGradient28976-3">
      <stop
         style="stop-color:#747474;stop-opacity:1"
         offset="0"
         id="stop28978-7" />
      <stop
         id="stop29259-5"
         offset="0.125"
         style="stop-color:#8c8c8c;stop-opacity:1;" />
      <stop
         id="stop29257-0"
         offset="0.25"
         style="stop-color:#a4a4a4;stop-opacity:1;" />
      <stop
         id="stop28984-4"
         offset="0.5"
         style="stop-color:#d4d4d4;stop-opacity:1" />
      <stop
         style="stop-color:#d4d4d4;stop-opacity:1"
         offset="0.61919296"
         id="stop28986-0" />
      <stop
         style="stop-color:#7c7c7c;stop-opacity:1"
         offset="1"
         id="stop28980-2" />
    </linearGradient>
    <inkscape:path-effect
       effect="spiro"
       id="path-effect28974-8"
       is_visible="true" />
    <clipPath
       clipPathUnits="userSpaceOnUse"
       id="clipPath29028-5">
      <path
         style="fill:url(#radialGradient29032);fill-opacity:1;stroke:none"
         d="m 85.75,122.36218 c -2.780425,1.91023 -5.110569,4.57487 -6.25,7.75 -1.436029,4.00163 -0.885838,8.48071 0.5,12.5 1.419488,4.11688 3.793788,8.04098 7.37932,10.51234 1.792766,1.23567 3.868091,2.08301 6.030402,2.33859 2.162311,0.25558 4.409274,-0.0949 6.340278,-1.10093 2.35312,-1.22596 4.14782,-3.37278 5.26217,-5.78076 1.11436,-2.40798 1.5888,-5.0701 1.73783,-7.71924 0.18989,-3.37546 -0.14047,-6.80646 -1.25,-10 -1.20527,-3.46909 -3.39005,-6.67055 -6.472754,-8.6666 -1.541351,-0.99803 -3.291947,-1.68356 -5.110883,-1.93515 -1.818936,-0.25158 -3.704766,-0.0633 -5.416363,0.60175 -0.975471,0.37901 -1.887438,0.9074 -2.75,1.5"
         id="path29030-7"
         inkscape:original-d="m 85.75,122.36218 c -2.54738,2.12715 -5.20812,4.59907 -6.25,7.75 -1.30914,3.95917 -1.63336,8.91703 0.5,12.5 3.91901,6.58194 12.38353,13.85135 19.75,11.75 4.87452,-1.3905 6.10748,-8.51023 7,-13.5 0.59149,-3.30679 0.59578,-7.19325 -1.25,-10 -3.61233,-5.49303 -10.4265,-9.89357 -17,-10 -1.04403,-0.0169 -1.94852,0.83074 -2.75,1.5 z"
         inkscape:connector-curvature="0"
         sodipodi:nodetypes="aaaaaaaa" />
    </clipPath>
    <inkscape:path-effect
       effect="spiro"
       id="path-effect28881-6"
       is_visible="true" />
    <linearGradient
       id="linearGradient28935-8">
      <stop
         style="stop-color:#949494;stop-opacity:0.39215687;"
         offset="0"
         id="stop28937-7" />
      <stop
         id="stop28943-3"
         offset="0.5"
         style="stop-color:#949494;stop-opacity:1;" />
      <stop
         style="stop-color:#949494;stop-opacity:0.39215687;"
         offset="1"
         id="stop28939-8" />
    </linearGradient>
    <linearGradient
       id="linearGradient28853-5">
      <stop
         style="stop-color:#020204;stop-opacity:1"
         offset="0"
         id="stop28855-3" />
      <stop
         id="stop28865-0"
         offset="0.73448181"
         style="stop-color:#020204;stop-opacity:1" />
      <stop
         style="stop-color:#5c5c5c;stop-opacity:1;"
         offset="1"
         id="stop28857-9" />
    </linearGradient>
    <inkscape:path-effect
       effect="spiro"
       id="path-effect28851-0"
       is_visible="true" />
    <inkscape:path-effect
       effect="spiro"
       id="path-effect28273-4-2"
       is_visible="true" />
    <inkscape:path-effect
       effect="spiro"
       id="path-effect28797-81"
       is_visible="true" />
    <inkscape:path-effect
       effect="spiro"
       id="path-effect28797-8-1"
       is_visible="true" />
    <inkscape:path-effect
       effect="spiro"
       id="path-effect28463-0-7"
       is_visible="true" />
    <inkscape:path-effect
       effect="spiro"
       id="path-effect28463-8-0"
       is_visible="true" />
    <inkscape:path-effect
       effect="spiro"
       id="path-effect29721-2"
       is_visible="true" />
    <inkscape:path-effect
       effect="spiro"
       id="path-effect28714-5"
       is_visible="true" />
    <inkscape:path-effect
       effect="spiro"
       id="path-effect29678-4-6"
       is_visible="true" />
    <inkscape:path-effect
       effect="spiro"
       id="path-effect29678-1"
       is_visible="true" />
    <inkscape:path-effect
       effect="spiro"
       id="path-effect29672-0"
       is_visible="true" />
  </defs>
  <sodipodi:namedview
     id="base"
     pagecolor="#ffffff"
     bordercolor="#666666"
     borderopacity="1.0"
     inkscape:pageopacity="0.0"
     inkscape:pageshadow="2"
     inkscape:zoom="2.8"
     inkscape:cx="3.0644024"
     inkscape:cy="32.766478"
     inkscape:document-units="px"
     inkscape:current-layer="layer1"
     showgrid="false"
     units="px"
     inkscape:window-width="2089"
     inkscape:window-height="1107"
     inkscape:window-x="138"
     inkscape:window-y="157"
     inkscape:window-maximized="0" />
  <metadata
     id="metadata4154">
    <rdf:RDF>
      <cc:Work
         rdf:about="">
        <dc:format>image/svg+xml</dc:format>
        <dc:type
           rdf:resource="http://purl.org/dc/dcmitype/StillImage" />
        <dc:title></dc:title>
      </cc:Work>
    </rdf:RDF>
  </metadata>
  <g
     inkscape:label="Layer 1"
     inkscape:groupmode="layer"
     id="layer1"
     transform="translate(0,-912.36216)">
    <path
       style="fill:#ccaaff"
       d="m 95.406153,1004.7209 -9.845551,-9.8705 0,7.4029 -17.297639,0 0,4.935 17.297639,0 0,7.4028 9.845551,-9.8702 z"
       id="path5679"
       inkscape:connector-curvature="0" />
    <g
       transform="translate(-8.5714286,912.36216)"
       style="font-style:normal;font-weight:normal;font-size:10px;line-height:125%;font-family:sans-serif;text-align:center;letter-spacing:0px;word-spacing:0px;text-anchor:middle;fill:#c6afe9;fill-opacity:1;stroke:none;stroke-width:1px;stroke-linecap:butt;stroke-linejoin:miter;stroke-opacity:1"
       id="flowRoot6710">
      <path
         d="m 114.48145,65.800673 0,1.251221 q -0.56153,-0.360108 -1.12916,-0.543213 -0.56152,-0.183106 -1.13525,-0.183106 -0.8728,0 -1.37939,0.408936 -0.5066,0.402832 -0.5066,1.092529 0,0.604248 0.32959,0.921631 0.3357,0.317383 1.24512,0.531006 l 0.64697,0.146484 q 1.28174,0.299073 1.86768,0.939942 0.58594,0.640869 0.58594,1.745605 0,1.300049 -0.80567,1.983643 -0.80566,0.683594 -2.34375,0.683594 -0.64087,0 -1.28784,-0.140381 -0.64697,-0.134278 -1.30005,-0.408936 l 0,-1.312256 q 0.70191,0.445557 1.32447,0.653076 0.62866,0.20752 1.26342,0.20752 0.93384,0 1.45264,-0.415039 0.5188,-0.421143 0.5188,-1.171875 0,-0.683594 -0.36011,-1.043701 -0.354,-0.360108 -1.23901,-0.55542 l -0.65918,-0.152588 q -1.26953,-0.286865 -1.84326,-0.866699 -0.57373,-0.579834 -0.57373,-1.556397 0,-1.220703 0.81787,-1.953125 0.82397,-0.738525 2.18506,-0.738525 0.5249,0 1.10473,0.12207 0.57984,0.115967 1.22071,0.354004 z"
         style="font-style:normal;font-variant:normal;font-weight:normal;font-stretch:normal;font-size:12.5px;font-family:'DejaVu Sans Mono';-inkscape-font-specification:'DejaVu Sans Mono';fill:#c6afe9"
         id="path6719"
         inkscape:connector-curvature="0" />
      <path
         d="m 122.5625,73.85121 q -0.49438,0.457764 -1.11694,0.695801 -0.61646,0.231934 -1.33667,0.231934 -1.7334,0 -2.69776,-1.239014 -0.96435,-1.245117 -0.96435,-3.485108 0,-2.233886 0.97656,-3.479003 0.97656,-1.251221 2.71606,-1.251221 0.57373,0 1.09864,0.164795 0.5249,0.158691 1.01318,0.488281 l 0,1.263428 q -0.49438,-0.469971 -1.01318,-0.689697 -0.5188,-0.225831 -1.09864,-0.225831 -1.20239,0 -1.80664,0.933838 -0.59814,0.927735 -0.59814,2.79541 0,1.898194 0.57983,2.813721 0.58594,0.909424 1.79444,0.909424 0.40893,0 0.71411,-0.09155 0.31128,-0.09766 0.56152,-0.299072 l 0,-2.44751 -1.32446,0 0,-1.013183 2.50244,0 0,3.92456 z"
         style="font-style:normal;font-variant:normal;font-weight:normal;font-stretch:normal;font-size:12.5px;font-family:'DejaVu Sans Mono';-inkscape-font-specification:'DejaVu Sans Mono';fill:#c6afe9"
         id="path6721"
         inkscape:connector-curvature="0" />
      <path
         d="m 127.10352,73.564345 2.14233,-8.074951 1.27563,0 -2.66723,9.112549 -1.49536,0 -2.66724,-9.112549 1.27564,0 2.13623,8.074951 z"
         style="font-style:normal;font-variant:normal;font-weight:normal;font-stretch:normal;font-size:12.5px;font-family:'DejaVu Sans Mono';-inkscape-font-specification:'DejaVu Sans Mono';fill:#c6afe9"
         id="path6723"
         inkscape:connector-curvature="0" />
      <path
         d="m 136.802,68.004042 0,1.098633 q -0.48218,-0.280762 -0.97046,-0.421143 -0.48828,-0.14038 -0.99487,-0.14038 -0.76294,0 -1.14136,0.250244 -0.37231,0.24414 -0.37231,0.750732 0,0.457764 0.28076,0.683594 0.28076,0.22583 1.3977,0.439453 l 0.45166,0.08545 q 0.83619,0.158692 1.26343,0.634766 0.43335,0.476074 0.43335,1.239014 0,1.013183 -0.72021,1.586914 -0.72022,0.567627 -2.00196,0.567627 -0.50659,0 -1.06201,-0.109864 -0.55542,-0.103759 -1.20239,-0.317383 l 0,-1.159667 q 0.62866,0.323486 1.20239,0.488281 0.57373,0.158691 1.08643,0.158691 0.74463,0 1.15356,-0.299072 0.40894,-0.305176 0.40894,-0.848389 0,-0.78125 -1.49536,-1.080322 l -0.0488,-0.01221 -0.42114,-0.08545 q -0.97046,-0.189209 -1.41602,-0.634766 -0.44556,-0.45166 -0.44556,-1.226807 0,-0.982666 0.66529,-1.513671 0.66528,-0.53711 1.89819,-0.53711 0.54932,0 1.05591,0.10376 0.50659,0.09766 0.99487,0.299072 z"
         style="font-style:normal;font-variant:normal;font-weight:normal;font-stretch:normal;font-size:12.5px;font-family:'DejaVu Sans Mono';-inkscape-font-specification:'DejaVu Sans Mono';fill:#c6afe9"
         id="path6725"
         inkscape:connector-curvature="0" />
      <path
         d="m 143.98584,71.190077 q 0,-1.306152 -0.41504,-1.971435 -0.41504,-0.665283 -1.22681,-0.665283 -0.81787,0 -1.23901,0.671386 -0.42114,0.665284 -0.42114,1.965332 0,1.293946 0.42114,1.965332 0.42114,0.671387 1.23901,0.671387 0.81177,0 1.22681,-0.665283 0.41504,-0.665283 0.41504,-1.971436 z m -3.302,-2.551269 q 0.26855,-0.500488 0.73852,-0.769043 0.47608,-0.268555 1.09864,-0.268555 1.23291,0 1.94091,0.952149 0.70801,0.946045 0.70801,2.612304 0,1.690674 -0.71411,2.65503 -0.70801,0.958252 -1.94702,0.958252 -0.61035,0 -1.08032,-0.262452 -0.46387,-0.268554 -0.74463,-0.775146 l 0,0.860596 -1.12305,0 0,-9.497071 1.12305,0 0,3.533936 z"
         style="font-style:normal;font-variant:normal;font-weight:normal;font-stretch:normal;font-size:12.5px;font-family:'DejaVu Sans Mono';-inkscape-font-specification:'DejaVu Sans Mono';fill:#c6afe9"
         id="path6727"
         inkscape:connector-curvature="0" />
      <path
         d="m 152.64062,73.85121 q -0.49438,0.457764 -1.11694,0.695801 -0.61645,0.231934 -1.33667,0.231934 -1.7334,0 -2.69775,-1.239014 -0.96436,-1.245117 -0.96436,-3.485108 0,-2.233886 0.97656,-3.479003 0.97657,-1.251221 2.71607,-1.251221 0.57373,0 1.09863,0.164795 0.5249,0.158691 1.01319,0.488281 l 0,1.263428 q -0.49439,-0.469971 -1.01319,-0.689697 -0.5188,-0.225831 -1.09863,-0.225831 -1.20239,0 -1.80664,0.933838 -0.59815,0.927735 -0.59815,2.79541 0,1.898194 0.57984,2.813721 0.58594,0.909424 1.79443,0.909424 0.40894,0 0.71411,-0.09155 0.31128,-0.09766 0.56153,-0.299072 l 0,-2.44751 -1.32447,0 0,-1.013183 2.50244,0 0,3.92456 z"
         style="font-style:normal;font-variant:normal;font-weight:normal;font-stretch:normal;font-size:12.5px;font-family:'DejaVu Sans Mono';-inkscape-font-specification:'DejaVu Sans Mono';fill:#c6afe9"
         id="path6729"
         inkscape:connector-curvature="0" />
      <path
         d="m 157.18164,70.27455 q -0.82397,0 -1.27563,0.463867 -0.44556,0.457764 -0.44556,1.300049 0,0.842285 0.45166,1.312256 0.45776,0.463867 1.26953,0.463867 0.83008,0 1.27564,-0.457764 0.45166,-0.463867 0.45166,-1.318359 0,-0.836182 -0.45777,-1.300049 -0.45166,-0.463867 -1.26953,-0.463867 z m -1.07422,-0.512695 q -0.78735,-0.201416 -1.23291,-0.750733 -0.43945,-0.549316 -0.43945,-1.324463 0,-1.086425 0.73852,-1.721191 0.73853,-0.640869 2.00806,-0.640869 1.27564,0 2.01416,0.640869 0.73853,0.634766 0.73853,1.721191 0,0.775147 -0.44556,1.324463 -0.43945,0.549317 -1.22681,0.750733 0.91553,0.201416 1.39771,0.811767 0.48828,0.610352 0.48828,1.580811 0,1.23291 -0.78735,1.928711 -0.78736,0.695801 -2.17896,0.695801 -1.3916,0 -2.17895,-0.689698 -0.78125,-0.6958 -0.78125,-1.922607 0,-0.976563 0.48217,-1.586914 0.48828,-0.616455 1.40381,-0.817871 z m -0.44555,-1.959229 q 0,0.732422 0.39062,1.116944 0.39063,0.384521 1.12915,0.384521 0.74463,0 1.13525,-0.384521 0.39063,-0.384522 0.39063,-1.116944 0,-0.744629 -0.39063,-1.135254 -0.38452,-0.390625 -1.13525,-0.390625 -0.73852,0 -1.12915,0.396729 -0.39062,0.390625 -0.39062,1.12915 z"
         style="font-style:normal;font-variant:normal;font-weight:normal;font-stretch:normal;font-size:12.5px;font-family:'DejaVu Sans Mono';-inkscape-font-specification:'DejaVu Sans Mono';fill:#c6afe9"
         id="path6731"
         inkscape:connector-curvature="0" />
      <path
         d="m 167.3562,70.366103 0,4.23584 -1.12915,0 0,-4.23584 q 0,-0.921631 -0.32349,-1.354981 -0.32348,-0.433349 -1.01318,-0.433349 -0.78735,0 -1.2146,0.561523 -0.42114,0.55542 -0.42114,1.599121 l 0,3.863526 -1.12305,0 0,-9.497071 1.12305,0 0,3.686524 q 0.29907,-0.585938 0.81177,-0.88501 0.51269,-0.305176 1.2146,-0.305176 1.0437,0 1.55639,0.689697 0.5188,0.683594 0.5188,2.075196 z"
         style="font-style:normal;font-variant:normal;font-weight:normal;font-stretch:normal;font-size:12.5px;font-family:'DejaVu Sans Mono';-inkscape-font-specification:'DejaVu Sans Mono';fill:#c6afe9"
         id="path6733"
         inkscape:connector-curvature="0" />
      <path
         d="m 169.68774,65.489394 5.05982,0 0,1.037597 -1.9104,0 0,7.037354 1.9104,0 0,1.037598 -5.05982,0 0,-1.037598 1.9104,0 0,-7.037354 -1.9104,0 0,-1.037597 z"
         style="font-style:normal;font-variant:normal;font-weight:normal;font-stretch:normal;font-size:12.5px;font-family:'DejaVu Sans Mono';-inkscape-font-specification:'DejaVu Sans Mono';fill:#c6afe9"
         id="path6735"
         inkscape:connector-curvature="0" />
      <path
         d="m 109.72681,81.114394 5.36499,0 0,1.037597 -4.12598,0 0,2.685547 3.74146,0 0,1.037598 -3.74146,0 0,4.351807 -1.23901,0 0,-9.112549 z"
         style="font-style:normal;font-variant:normal;font-weight:normal;font-stretch:normal;font-size:12.5px;font-family:'DejaVu Sans Mono';-inkscape-font-specification:'DejaVu Sans Mono';fill:#c6afe9"
         id="path6737"
         inkscape:connector-curvature="0" />
      <path
         d="m 120.46289,85.923964 q 0.47607,0.12207 0.81177,0.463867 0.33569,0.335694 0.83618,1.348877 l 1.23901,2.490235 -1.32446,0 -1.08643,-2.301026 q -0.46997,-0.982666 -0.84838,-1.263427 -0.37232,-0.286866 -0.97657,-0.286866 l -1.17797,0 0,3.851319 -1.23902,0 0,-9.112549 2.53906,0 q 1.50147,0 2.30103,0.67749 0.79956,0.67749 0.79956,1.959229 0,0.90332 -0.49438,1.47705 -0.48829,0.567627 -1.3794,0.695801 z m -2.52685,-3.796387 0,3.234864 1.34887,0 q 0.88501,0 1.31836,-0.396729 0.43335,-0.396728 0.43335,-1.214599 0,-0.787354 -0.46387,-1.202393 -0.45776,-0.421143 -1.33667,-0.421143 l -1.30004,0 z"
         style="font-style:normal;font-variant:normal;font-weight:normal;font-stretch:normal;font-size:12.5px;font-family:'DejaVu Sans Mono';-inkscape-font-specification:'DejaVu Sans Mono';fill:#c6afe9"
         id="path6739"
         inkscape:connector-curvature="0" />
      <path
         d="m 127.10352,84.178359 q -0.8545,0 -1.29395,0.665283 -0.43945,0.665283 -0.43945,1.971435 0,1.300049 0.43945,1.971436 0.43945,0.665283 1.29395,0.665283 0.86059,0 1.30004,-0.665283 0.43946,-0.671387 0.43946,-1.971436 0,-1.306152 -0.43946,-1.971435 -0.43945,-0.665283 -1.30004,-0.665283 z m 0,-0.952149 q 1.42211,0 2.17285,0.921631 0.75683,0.921631 0.75683,2.667236 0,1.751709 -0.75073,2.67334 -0.75073,0.915528 -2.17895,0.915528 -1.42212,0 -2.17286,-0.915528 -0.75073,-0.921631 -0.75073,-2.67334 0,-1.745605 0.75073,-2.667236 0.75074,-0.921631 2.17286,-0.921631 z"
         style="font-style:normal;font-variant:normal;font-weight:normal;font-stretch:normal;font-size:12.5px;font-family:'DejaVu Sans Mono';-inkscape-font-specification:'DejaVu Sans Mono';fill:#c6afe9"
         id="path6741"
         inkscape:connector-curvature="0" />
      <path
         d="m 131.08911,81.114394 1.31226,0 2.22168,4.022217 2.21557,-4.022217 1.32447,0 -2.92359,5.023193 0,4.089356 -1.23901,0 0,-4.089356 -2.91138,-5.023193 z"
         style="font-style:normal;font-variant:normal;font-weight:normal;font-stretch:normal;font-size:12.5px;font-family:'DejaVu Sans Mono';-inkscape-font-specification:'DejaVu Sans Mono';fill:#c6afe9"
         id="path6743"
         inkscape:connector-curvature="0" />
      <path
         d="m 138.38281,81.114394 1.2024,0 0.8728,7.397461 1.0376,-4.89502 1.28784,0 1.0498,4.907227 0.8728,-7.409668 1.2024,0 -1.36109,9.112549 -1.16577,0 -1.23901,-5.413819 -1.23291,5.413819 -1.16577,0 -1.36109,-9.112549 z"
         style="font-style:normal;font-variant:normal;font-weight:normal;font-stretch:normal;font-size:12.5px;font-family:'DejaVu Sans Mono';-inkscape-font-specification:'DejaVu Sans Mono';fill:#c6afe9"
         id="path6745"
         inkscape:connector-curvature="0" />
      <path
         d="m 147.16577,81.114394 4.61426,0 0,1.037597 -3.49121,0 0,2.239991 q 0.26245,-0.09766 0.5249,-0.140381 0.26856,-0.04883 0.53711,-0.04883 1.41602,0 2.24609,0.836181 0.83008,0.836182 0.83008,2.264405 0,1.440429 -0.8728,2.270507 -0.8667,0.830079 -2.37427,0.830079 -0.72632,0 -1.33056,-0.09766 -0.59815,-0.09766 -1.07422,-0.292968 l 0,-1.251221 q 0.56152,0.305176 1.12915,0.457764 0.56762,0.146484 1.15966,0.146484 1.01929,0 1.56861,-0.537109 0.55542,-0.53711 0.55542,-1.525879 0,-0.976563 -0.57373,-1.519776 -0.56763,-0.543213 -1.58692,-0.543213 -0.49438,0 -0.96435,0.115967 -0.46997,0.109863 -0.89722,0.335694 l 0,-4.577637 z"
         style="font-style:normal;font-variant:normal;font-weight:normal;font-stretch:normal;font-size:12.5px;font-family:'DejaVu Sans Mono';-inkscape-font-specification:'DejaVu Sans Mono';fill:#c6afe9"
         id="path6747"
         inkscape:connector-curvature="0" />
      <path
         d="m 160.47144,84.800917 q -0.36011,-0.280761 -0.73243,-0.408935 -0.37231,-0.128174 -0.81787,-0.128174 -1.0498,0 -1.60522,0.65918 -0.55542,0.659179 -0.55542,1.904296 l 0,3.399659 -1.12915,0 0,-6.835938 1.12915,0 0,1.33667 q 0.28076,-0.726318 0.86059,-1.11084 0.58594,-0.390625 1.3855,-0.390625 0.41504,0 0.77515,0.10376 0.36011,0.10376 0.6897,0.323486 l 0,1.147461 z"
         style="font-style:normal;font-variant:normal;font-weight:normal;font-stretch:normal;font-size:12.5px;font-family:'DejaVu Sans Mono';-inkscape-font-specification:'DejaVu Sans Mono';fill:#c6afe9"
         id="path6749"
         inkscape:connector-curvature="0" />
      <path
         d="m 167.41724,89.879042 q -0.45166,0.262451 -0.93384,0.390625 -0.47608,0.134278 -0.97656,0.134278 -1.58692,0 -2.48413,-0.952149 -0.89112,-0.952148 -0.89112,-2.636719 0,-1.68457 0.89112,-2.636718 0.89721,-0.952149 2.48413,-0.952149 0.49438,0 0.96435,0.128174 0.46997,0.128174 0.94605,0.396729 l 0,1.177978 q -0.44556,-0.396728 -0.89722,-0.57373 -0.44556,-0.177002 -1.01318,-0.177002 -1.05591,0 -1.62354,0.683593 -0.56763,0.683594 -0.56763,1.953125 0,1.263428 0.56763,1.953125 0.57373,0.683594 1.62354,0.683594 0.58593,0 1.0498,-0.177002 0.46387,-0.183105 0.8606,-0.561523 l 0,1.165771 z"
         style="font-style:normal;font-variant:normal;font-weight:normal;font-stretch:normal;font-size:12.5px;font-family:'DejaVu Sans Mono';-inkscape-font-specification:'DejaVu Sans Mono';fill:#c6afe9"
         id="path6751"
         inkscape:connector-curvature="0" />
      <path
         d="m 173.69775,88.029677 q -0.28076,0.714111 -0.71411,1.879883 -0.60425,1.611328 -0.81177,1.965332 -0.28076,0.476074 -0.7019,0.714111 -0.42114,0.238037 -0.98267,0.238037 l -0.90332,0 0,-0.939941 0.66529,0 q 0.49438,0 0.77514,-0.286865 0.28077,-0.286866 0.71412,-1.483155 l -2.64283,-6.726074 1.19019,0 2.02637,5.34668 1.99585,-5.34668 1.19018,0 -1.80054,4.638672 z"
         style="font-style:normal;font-variant:normal;font-weight:normal;font-stretch:normal;font-size:12.5px;font-family:'DejaVu Sans Mono';-inkscape-font-specification:'DejaVu Sans Mono';fill:#c6afe9"
         id="path6753"
         inkscape:connector-curvature="0" />
      <path
         d="m 110.55688,101.50014 0,3.33862 1.45875,0 q 1.07421,0 1.53198,-0.37232 0.45776,-0.37841 0.45776,-1.23901 0,-0.89111 -0.48218,-1.30615 -0.48217,-0.42114 -1.50756,-0.42114 l -1.45875,0 z m 0,-3.747563 0,2.746583 1.43433,0 q 0.89111,0 1.28784,-0.3418 0.40283,-0.341794 0.40283,-1.104734 0,-0.689697 -0.39672,-0.994873 -0.39063,-0.305176 -1.29395,-0.305176 l -1.43433,0 z m -1.23901,-1.013183 2.69776,0 q 1.3977,0 2.15454,0.604248 0.75683,0.604248 0.75683,1.708984 0,0.836182 -0.40283,1.318364 -0.39673,0.48217 -1.19629,0.60424 0.89722,0.13428 1.40381,0.76905 0.51269,0.62866 0.51269,1.60522 0,1.23901 -0.81176,1.87378 -0.81177,0.62866 -2.41699,0.62866 l -2.69776,0 0,-9.112546 z"
         style="font-style:normal;font-variant:normal;font-weight:normal;font-stretch:normal;font-size:12.5px;font-family:'DejaVu Sans Mono';-inkscape-font-specification:'DejaVu Sans Mono';fill:#c6afe9"
         id="path6755"
         inkscape:connector-curvature="0" />
      <path
         d="m 119.9502,99.711806 q 0.20751,-0.439453 0.5249,-0.646973 0.32348,-0.213623 0.77514,-0.213623 0.82398,0 1.15967,0.640869 0.3418,0.634761 0.3418,2.398681 l 0,3.96118 -1.02539,0 0,-3.91235 q 0,-1.44653 -0.1648,-1.79443 -0.15869,-0.354008 -0.58593,-0.354008 -0.48829,0 -0.67139,0.378418 -0.177,0.37231 -0.177,1.77002 l 0,3.91235 -1.02539,0 0,-3.91235 q 0,-1.46484 -0.17701,-1.80664 -0.17089,-0.341798 -0.62255,-0.341798 -0.44556,0 -0.62256,0.378418 -0.1709,0.37231 -0.1709,1.77002 l 0,3.91235 -1.01929,0 0,-6.835935 1.01929,0 0,0.585938 q 0.20142,-0.366211 0.50049,-0.55542 0.30517,-0.195313 0.68969,-0.195313 0.46387,0 0.76905,0.213623 0.31128,0.213623 0.48218,0.646973 z"
         style="font-style:normal;font-variant:normal;font-weight:normal;font-stretch:normal;font-size:12.5px;font-family:'DejaVu Sans Mono';-inkscape-font-specification:'DejaVu Sans Mono';fill:#c6afe9"
         id="path6757"
         inkscape:connector-curvature="0" />
      <path
         d="m 128.94678,102.44008 q 0,-1.30615 -0.41504,-1.97144 -0.41504,-0.665281 -1.22681,-0.665281 -0.81787,0 -1.23901,0.671391 -0.42114,0.66528 -0.42114,1.96533 0,1.29394 0.42114,1.96533 0.42114,0.67139 1.23901,0.67139 0.81177,0 1.22681,-0.66529 0.41504,-0.66528 0.41504,-1.97143 z m -3.302,-2.551272 q 0.26855,-0.500488 0.73852,-0.769043 0.47608,-0.268555 1.09863,-0.268555 1.23291,0 1.94092,0.952149 0.70801,0.946041 0.70801,2.612301 0,1.69068 -0.71411,2.65503 -0.70801,0.95825 -1.94702,0.95825 -0.61035,0 -1.08033,-0.26245 -0.46386,-0.26855 -0.74462,-0.77514 l 0,0.86059 -1.12305,0 0,-9.497068 1.12305,0 0,3.533936 z"
         style="font-style:normal;font-variant:normal;font-weight:normal;font-stretch:normal;font-size:12.5px;font-family:'DejaVu Sans Mono';-inkscape-font-specification:'DejaVu Sans Mono';fill:#c6afe9"
         id="path6759"
         inkscape:connector-curvature="0" />
      <path
         d="m 135.59961,100.97523 q 0.89722,0.23804 1.37329,0.84839 0.47607,0.60425 0.47607,1.51367 0,1.25733 -0.84838,1.97754 -0.84229,0.71411 -2.33765,0.71411 -0.62866,0 -1.28174,-0.11596 -0.65308,-0.11597 -1.28174,-0.3357 l 0,-1.2268 q 0.62256,0.32348 1.22681,0.48218 0.60425,0.15869 1.20239,0.15869 1.01319,0 1.5564,-0.45777 0.54321,-0.45776 0.54321,-1.31836 0,-0.79345 -0.54321,-1.25732 -0.54321,-0.46997 -1.47095,-0.46997 l -0.93994,0 0,-1.01318 0.93994,0 q 0.84839,0 1.32446,-0.37232 0.47608,-0.372314 0.47608,-1.037597 0,-0.701904 -0.44556,-1.074218 -0.43945,-0.378418 -1.25732,-0.378418 -0.54322,0 -1.12305,0.12207 -0.57983,0.12207 -1.2146,0.366211 l 0,-1.135254 q 0.73853,-0.195313 1.31226,-0.292969 0.57983,-0.09766 1.02539,-0.09766 1.33056,0 2.12402,0.671387 0.79956,0.665283 0.79956,1.770019 0,0.750733 -0.42114,1.251229 -0.41504,0.50048 -1.2146,0.708 z"
         style="font-style:normal;font-variant:normal;font-weight:normal;font-stretch:normal;font-size:12.5px;font-family:'DejaVu Sans Mono';-inkscape-font-specification:'DejaVu Sans Mono';fill:#c6afe9"
         id="path6761"
         inkscape:connector-curvature="0" />
      <path
         d="m 139.60962,96.739394 5.05981,0 0,1.037597 -1.9104,0 0,7.037349 1.9104,0 0,1.0376 -5.05981,0 0,-1.0376 1.9104,0 0,-7.037349 -1.9104,0 0,-1.037597 z"
         style="font-style:normal;font-variant:normal;font-weight:normal;font-stretch:normal;font-size:12.5px;font-family:'DejaVu Sans Mono';-inkscape-font-specification:'DejaVu Sans Mono';fill:#c6afe9"
         id="path6763"
         inkscape:connector-curvature="0" />
      <path
         d="m 151.13916,102.37904 q 0,-1.26343 -0.41504,-1.9165 -0.40893,-0.659181 -1.19629,-0.659181 -0.82397,0 -1.25732,0.659181 -0.43335,0.65307 -0.43335,1.9165 0,1.26343 0.43335,1.92871 0.43945,0.65918 1.26953,0.65918 0.77515,0 1.18408,-0.66528 0.41504,-0.66528 0.41504,-1.92261 z m 1.12305,3.03345 q 0,1.53809 -0.72632,2.33154 -0.72632,0.79346 -2.13623,0.79346 -0.46387,0 -0.97046,-0.0855 -0.50659,-0.0854 -1.01318,-0.25024 l 0,-1.11084 q 0.59814,0.28076 1.08642,0.41504 0.48828,0.13427 0.89722,0.13427 0.90942,0 1.32446,-0.49438 0.41504,-0.49439 0.41504,-1.56861 l 0,-0.0488 0,-0.76294 q -0.26855,0.57373 -0.73242,0.85449 -0.46387,0.28076 -1.12915,0.28076 -1.19629,0 -1.9104,-0.95825 -0.71411,-0.95825 -0.71411,-2.56348 0,-1.61133 0.71411,-2.569578 0.71411,-0.958252 1.9104,-0.958252 0.65918,0 1.11694,0.262451 0.45776,0.262452 0.74463,0.811768 l 0,-0.88501 1.12305,0 0,6.372071 z"
         style="font-style:normal;font-variant:normal;font-weight:normal;font-stretch:normal;font-size:12.5px;font-family:'DejaVu Sans Mono';-inkscape-font-specification:'DejaVu Sans Mono';fill:#c6afe9"
         id="path6765"
         inkscape:connector-curvature="0" />
      <path
         d="m 154.5083,96.739394 5.91431,0 0,0.939941 -4.76074,7.135005 4.89501,0 0,1.0376 -6.18286,0 0,-0.93994 4.63257,-7.135009 -4.49829,0 0,-1.037597 z"
         style="font-style:normal;font-variant:normal;font-weight:normal;font-stretch:normal;font-size:12.5px;font-family:'DejaVu Sans Mono';-inkscape-font-specification:'DejaVu Sans Mono';fill:#c6afe9"
         id="path6767"
         inkscape:connector-curvature="0" />
      <path
         d="m 167.67969,105.10121 q -0.49439,0.45776 -1.11695,0.6958 -0.61645,0.23193 -1.33667,0.23193 -1.73339,0 -2.69775,-1.23901 -0.96436,-1.24512 -0.96436,-3.48511 0,-2.233883 0.97657,-3.479 0.97656,-1.251221 2.71606,-1.251221 0.57373,0 1.09863,0.164795 0.52491,0.158691 1.01319,0.488281 l 0,1.263428 q -0.49439,-0.469971 -1.01319,-0.689697 -0.51879,-0.225831 -1.09863,-0.225831 -1.20239,0 -1.80664,0.933838 -0.59814,0.927735 -0.59814,2.795407 0,1.8982 0.57983,2.81372 0.58594,0.90943 1.79443,0.90943 0.40894,0 0.71412,-0.0915 0.31127,-0.0977 0.56152,-0.29908 l 0,-2.44751 -1.32446,0 0,-1.01318 2.50244,0 0,3.92456 z"
         style="font-style:normal;font-variant:normal;font-weight:normal;font-stretch:normal;font-size:12.5px;font-family:'DejaVu Sans Mono';-inkscape-font-specification:'DejaVu Sans Mono';fill:#c6afe9"
         id="path6769"
         inkscape:connector-curvature="0" />
      <path
         d="m 172.2207,104.81434 2.14234,-8.074946 1.27563,0 -2.66723,9.112546 -1.49537,0 -2.66723,-9.112546 1.27563,0 2.13623,8.074946 z"
         style="font-style:normal;font-variant:normal;font-weight:normal;font-stretch:normal;font-size:12.5px;font-family:'DejaVu Sans Mono';-inkscape-font-specification:'DejaVu Sans Mono';fill:#c6afe9"
         id="path6771"
         inkscape:connector-curvature="0" />
      <path
         d="m 111.9668,121.59901 0,-6.0852 -1.93482,0 0,-0.8728 3.05786,0 0,6.958 q 0,1.19019 -0.54931,1.83106 -0.54322,0.64697 -1.5503,0.64697 l -1.55029,0 0,-0.95215 1.42822,0 q 0.54932,0 0.82398,-0.38452 0.27466,-0.37842 0.27466,-1.14136 z m 0,-9.61914 1.12304,0 0,1.42212 -1.12304,0 0,-1.42212 z"
         style="font-style:normal;font-variant:normal;font-weight:normal;font-stretch:normal;font-size:12.5px;font-family:'DejaVu Sans Mono';-inkscape-font-specification:'DejaVu Sans Mono';fill:#c6afe9"
         id="path6773"
         inkscape:connector-curvature="0" />
      <path
         d="m 120.10889,118.04066 -0.37232,0 q -0.98266,0 -1.48315,0.3479 -0.49439,0.3418 -0.49439,1.02539 0,0.61646 0.37232,0.95826 0.37231,0.34179 1.03149,0.34179 0.92774,0 1.45874,-0.64087 0.53101,-0.64697 0.53711,-1.78222 l 0,-0.25025 -1.0498,0 z m 2.17895,-0.46386 0,3.90014 -1.12915,0 0,-1.01318 q -0.36011,0.61035 -0.90942,0.90332 -0.54322,0.28686 -1.32447,0.28686 -1.0437,0 -1.66626,-0.58593 -0.62255,-0.59204 -0.62255,-1.58081 0,-1.14136 0.76294,-1.7334 0.76904,-0.59204 2.25219,-0.59204 l 1.50757,0 0,-0.177 q -0.006,-0.81788 -0.41504,-1.18409 -0.40893,-0.37231 -1.30615,-0.37231 -0.57373,0 -1.15967,0.16479 -0.58594,0.1648 -1.14136,0.48218 l 0,-1.12305 q 0.62256,-0.23803 1.19019,-0.354 0.57373,-0.12207 1.11084,-0.12207 0.84839,0 1.44653,0.25024 0.60425,0.25025 0.97657,0.75074 0.23193,0.30517 0.32959,0.75683 0.0977,0.44556 0.0977,1.34278 z"
         style="font-style:normal;font-variant:normal;font-weight:normal;font-stretch:normal;font-size:12.5px;font-family:'DejaVu Sans Mono';-inkscape-font-specification:'DejaVu Sans Mono';fill:#c6afe9"
         id="path6775"
         inkscape:connector-curvature="0" />
      <path
         d="m 123.86865,112.36439 1.32447,0 2.00195,3.43628 2.03857,-3.43628 1.32447,0 -2.72828,4.28467 2.92359,4.82788 -1.32446,0 -2.23389,-3.92456 -2.41089,3.92456 -1.33057,0 3.05176,-4.82788 -2.63672,-4.28467 z"
         style="font-style:normal;font-variant:normal;font-weight:normal;font-stretch:normal;font-size:12.5px;font-family:'DejaVu Sans Mono';-inkscape-font-specification:'DejaVu Sans Mono';fill:#c6afe9"
         id="path6777"
         inkscape:connector-curvature="0" />
      <path
         d="m 133.11548,117.12514 0,3.33862 1.45874,0 q 1.07422,0 1.53198,-0.37232 0.45776,-0.37841 0.45776,-1.23901 0,-0.89111 -0.48217,-1.30615 -0.48218,-0.42114 -1.50757,-0.42114 l -1.45874,0 z m 0,-3.74756 0,2.74658 1.43432,0 q 0.89112,0 1.28785,-0.3418 0.40283,-0.34179 0.40283,-1.10473 0,-0.6897 -0.39673,-0.99488 -0.39063,-0.30517 -1.29395,-0.30517 l -1.43432,0 z m -1.23902,-1.01319 2.69776,0 q 1.3977,0 2.15454,0.60425 0.75684,0.60425 0.75684,1.70899 0,0.83618 -0.40284,1.31836 -0.39672,0.48217 -1.19629,0.60424 0.89722,0.13428 1.40381,0.76905 0.5127,0.62866 0.5127,1.60522 0,1.23901 -0.81177,1.87378 -0.81177,0.62866 -2.41699,0.62866 l -2.69776,0 0,-9.11255 z"
         style="font-style:normal;font-variant:normal;font-weight:normal;font-stretch:normal;font-size:12.5px;font-family:'DejaVu Sans Mono';-inkscape-font-specification:'DejaVu Sans Mono';fill:#c6afe9"
         id="path6779"
         inkscape:connector-curvature="0" />
      <path
         d="m 142.14258,115.42836 q -0.85449,0 -1.29395,0.66528 -0.43945,0.66529 -0.43945,1.97144 0,1.30005 0.43945,1.97143 0.43946,0.66529 1.29395,0.66529 0.86059,0 1.30005,-0.66529 0.43945,-0.67138 0.43945,-1.97143 0,-1.30615 -0.43945,-1.97144 -0.43946,-0.66528 -1.30005,-0.66528 z m 0,-0.95215 q 1.42212,0 2.17285,0.92163 0.75684,0.92163 0.75684,2.66724 0,1.75171 -0.75074,2.67334 -0.75073,0.91552 -2.17895,0.91552 -1.42212,0 -2.17285,-0.91552 -0.75074,-0.92163 -0.75074,-2.67334 0,-1.74561 0.75074,-2.66724 0.75073,-0.92163 2.17285,-0.92163 z"
         style="font-style:normal;font-variant:normal;font-weight:normal;font-stretch:normal;font-size:12.5px;font-family:'DejaVu Sans Mono';-inkscape-font-specification:'DejaVu Sans Mono';fill:#c6afe9"
         id="path6781"
         inkscape:connector-curvature="0" />
      <path
         d="m 146.98877,112.36439 5.91431,0 0,0.93995 -4.76075,7.135 4.89502,0 0,1.0376 -6.18286,0 0,-0.93994 4.63257,-7.13501 -4.49829,0 0,-1.0376 z"
         style="font-style:normal;font-variant:normal;font-weight:normal;font-stretch:normal;font-size:12.5px;font-family:'DejaVu Sans Mono';-inkscape-font-specification:'DejaVu Sans Mono';fill:#c6afe9"
         id="path6783"
         inkscape:connector-curvature="0" />
      <path
         d="m 153.94678,112.36439 1.32446,0 2.00195,3.43628 2.03858,-3.43628 1.32446,0 -2.72827,4.28467 2.92358,4.82788 -1.32446,0 -2.23389,-3.92456 -2.41089,3.92456 -1.33056,0 3.05176,-4.82788 -2.63672,-4.28467 z"
         style="font-style:normal;font-variant:normal;font-weight:normal;font-stretch:normal;font-size:12.5px;font-family:'DejaVu Sans Mono';-inkscape-font-specification:'DejaVu Sans Mono';fill:#c6afe9"
         id="path6785"
         inkscape:connector-curvature="0" />
      <path
         d="m 161.60669,121.10463 0,-1.44043 q 0.55542,0.49438 1.14746,0.74463 0.59204,0.24414 1.22681,0.24414 0.8728,0 1.2146,-0.45166 0.3479,-0.45777 0.3479,-1.69678 l 0,-5.10254 -2.32544,0 0,-1.0376 3.55835,0 0,6.14014 q 0,1.72119 -0.64698,2.4353 -0.64086,0.71411 -2.14843,0.71411 -0.58594,0 -1.16577,-0.13427 -0.57984,-0.13428 -1.2085,-0.41504 z"
         style="font-style:normal;font-variant:normal;font-weight:normal;font-stretch:normal;font-size:12.5px;font-family:'DejaVu Sans Mono';-inkscape-font-specification:'DejaVu Sans Mono';fill:#c6afe9"
         id="path6787"
         inkscape:connector-curvature="0" />
      <path
         d="m 170.74976,120.61635 0,3.46069 -1.12915,0 0,-9.43603 1.12915,0 0,0.8728 q 0.28076,-0.50659 0.74462,-0.76905 0.46998,-0.26855 1.08033,-0.26855 1.23901,0 1.94091,0.95825 0.70801,0.95825 0.70801,2.65503 0,1.66626 -0.70801,2.61841 -0.708,0.94604 -1.94091,0.94604 -0.62256,0 -1.09253,-0.26245 -0.46387,-0.26855 -0.73242,-0.77514 z m 3.29589,-2.55127 q 0,-1.30615 -0.41503,-1.97144 -0.40894,-0.66528 -1.22071,-0.66528 -0.81787,0 -1.23901,0.67139 -0.42114,0.66528 -0.42114,1.96533 0,1.29394 0.42114,1.96533 0.42114,0.67139 1.23901,0.67139 0.81177,0 1.22071,-0.66529 0.41503,-0.66528 0.41503,-1.97143 z"
         style="font-style:normal;font-variant:normal;font-weight:normal;font-stretch:normal;font-size:12.5px;font-family:'DejaVu Sans Mono';-inkscape-font-specification:'DejaVu Sans Mono';fill:#c6afe9"
         id="path6789"
         inkscape:connector-curvature="0" />
    </g>
    <text
       xml:space="preserve"
       style="font-style:normal;font-weight:normal;font-size:30.89216423px;line-height:125%;font-family:sans-serif;text-align:center;letter-spacing:0px;word-spacing:0px;text-anchor:middle;fill:#7f2aff;fill-opacity:1;stroke:none;stroke-width:1px;stroke-linecap:butt;stroke-linejoin:miter;stroke-opacity:1"
       x="146.60724"
       y="1044.9236"
       id="text6791"
       sodipodi:linespacing="125%"><tspan
         sodipodi:role="line"
         id="tspan6793"
         x="146.60724"
         y="1044.9236">b64</tspan></text>
    <path
       inkscape:connector-curvature="0"
       d="m 63.642937,1024.997 0,-42.0555 c 0,-3.30437 -2.703576,-6.00795 -6.007946,-6.00795 l -42.055617,0 c -3.30437,0 -6.0079456,2.70358 -6.0079456,6.00795 l 0,42.0555 c 0,3.3044 2.7035756,6.0079 6.0079456,6.0079 l 42.055617,0 c 3.30437,0 6.007946,-2.7035 6.007946,-6.0079 z m -37.549659,-16.5217 7.509931,9.0419 10.513905,-13.5479 13.517877,18.0237 -42.055617,0 10.513904,-13.5177 z"
       id="path6822"
       style="fill:#7f2aff;fill-opacity:1" />
  </g>
</svg>
