<?xml version="1.0" encoding="UTF-8" standalone="no"?>
<!-- Created with Inkscape (http://www.inkscape.org/) -->

<svg
   xmlns:dc="http://purl.org/dc/elements/1.1/"
   xmlns:cc="http://creativecommons.org/ns#"
   xmlns:rdf="http://www.w3.org/1999/02/22-rdf-syntax-ns#"
   xmlns:svg="http://www.w3.org/2000/svg"
   xmlns="http://www.w3.org/2000/svg"
   xmlns:sodipodi="http://sodipodi.sourceforge.net/DTD/sodipodi-0.dtd"
   xmlns:inkscape="http://www.inkscape.org/namespaces/inkscape"
   width="180"
   height="140"
   viewBox="0 0 180 140"
   id="svg4149"
   version="1.1"
   inkscape:version="0.91 r13725"
   sodipodi:docname="Puck.js MIDI.thumb.svg">
  <defs
     id="defs4151" />
  <sodipodi:namedview
     id="base"
     pagecolor="#ffffff"
     bordercolor="#666666"
     borderopacity="1.0"
     inkscape:pageopacity="0.0"
     inkscape:pageshadow="2"
     inkscape:zoom="3.959798"
     inkscape:cx="35.418145"
     inkscape:cy="118.97604"
     inkscape:document-units="px"
     inkscape:current-layer="layer1"
     showgrid="false"
     units="px"
     inkscape:window-width="2560"
     inkscape:window-height="1390"
     inkscape:window-x="0"
     inkscape:window-y="0"
     inkscape:window-maximized="1" />
  <metadata
     id="metadata4154">
    <rdf:RDF>
      <cc:Work
         rdf:about="">
        <dc:format>image/svg+xml</dc:format>
        <dc:type
           rdf:resource="http://purl.org/dc/dcmitype/StillImage" />
        <dc:title></dc:title>
      </cc:Work>
    </rdf:RDF>
  </metadata>
  <g
     inkscape:label="Layer 1"
     inkscape:groupmode="layer"
     id="layer1"
     transform="translate(0,-912.36216)">
    <path
       style="fill:#000000"
       d="m 65.646839,983.15652 0,-14.67969 12.963461,0 c 8.912599,0 13.13817,0.0374 13.522557,0.11991 1.092675,0.23433 2.021493,1.1473 2.459176,2.41717 0.152696,0.44303 0.264936,21.26523 0.133724,24.80793 l -0.0746,2.01437 -3.519987,0 -3.519988,0 0,-10.98218 0,-10.98216 -2.041911,0 -2.04191,0 0,10.98216 0,10.98218 -3.311207,0 -3.311207,0 0,-10.98218 0,-10.98216 -2.041912,0 -2.041911,0 0,10.98216 0,10.98218 -3.587141,0 -3.58714,0 0,-14.67969 z m 32.670575,0.11037 c 0,-8.01311 -0.01242,-14.60656 -0.02759,-14.65208 -0.01517,-0.0456 1.590866,-0.0959 3.568986,-0.11187 l 3.59658,-0.0291 0.0733,7.96661 c 0.0403,4.38163 0.0733,10.98816 0.0733,14.68117 l 0,6.71451 -3.64234,0 -3.642323,0 0,-14.56926 z m 10.622826,5.27034 0.0282,-9.29897 3.61474,-0.0291 3.61473,-0.0291 0,5.74093 0,5.74093 5.07719,0 5.07719,0 0,-7.78133 0,-7.78134 -8.65782,0 c -4.76179,0 -8.67665,-0.0372 -8.69968,-0.0828 -0.023,-0.0456 -0.0204,-1.53672 0.006,-3.31376 l 0.0476,-3.231 10.99753,0.0302 10.99751,0.0302 0.63067,0.30965 c 0.77301,0.37956 1.44252,1.11575 1.70881,1.879 0.18724,0.53664 0.19912,1.29494 0.19912,12.71178 l 0,12.14114 -0.26154,0.57847 c -0.14384,0.31824 -0.45131,0.75 -0.68325,0.9595 -0.832,0.75165 -0.35925,0.72456 -12.65182,0.72456 l -11.07314,0 0.0282,-9.29889 z m 28.08113,3.81734 c -0.0402,-3.0149 -0.0732,-9.62076 -0.0732,-14.67968 l 0,-9.19806 3.64233,0 3.64232,0 0,14.67969 0,14.67969 -3.56911,0 -3.5691,0 -0.0732,-5.48164 z"
       id="path4708"
       inkscape:connector-curvature="0" />
    <path
       inkscape:connector-curvature="0"
       d="m 160.15917,985.10102 0,18.89908 c -1.05691,-0.6091 -2.27505,-0.9853 -3.58275,-0.9853 -3.95894,0 -7.1655,3.2065 -7.1655,7.1654 0,3.959 3.20656,7.1656 7.1655,7.1656 3.95893,0 7.16549,-3.2066 7.16549,-7.1656 l 0,-17.91367 7.1655,0 0,-7.16551 -10.74824,0 z"
       id="path4732"
       style="fill:#ececec" />
    <path
       style="fill:#cccccc"
       id="path4730"
       d="m 154.93809,987.36349 0,18.89911 c -1.05691,-0.6091 -2.27505,-0.9853 -3.58275,-0.9853 -3.95894,0 -7.1655,3.2065 -7.1655,7.1654 0,3.959 3.20656,7.1656 7.1655,7.1656 3.95893,0 7.16549,-3.2066 7.16549,-7.1656 l 0,-17.91371 7.1655,0 0,-7.1655 -10.74824,0 z"
       inkscape:connector-curvature="0" />
    <path
       inkscape:connector-curvature="0"
       d="m 149.36894,989.97402 0,18.89898 c -1.05691,-0.6091 -2.27504,-0.9853 -3.58275,-0.9853 -3.95893,0 -7.16549,3.2066 -7.16549,7.1655 0,3.9589 3.20656,7.1655 7.16549,7.1655 3.95894,0 7.16549,-3.2066 7.16549,-7.1655 l 0,-17.91364 7.1655,0 0,-7.16554 -10.74824,0 z"
       id="path4714"
       style="fill:#999999" />
    <path
       style="fill:#0060a9;fill-opacity:1"
       inkscape:connector-curvature="0"
       id="path10"
       d="m 66.239411,965.03944 -24.79971,-24.7997 -4.3432,0 0,32.96493 -19.93532,-19.93531 -6.12392,6.12392 24.27852,24.27855 -24.27852,24.27847 6.12392,6.1239 19.93532,-19.93527 0,32.96487 4.3432,0 24.79971,-24.7997 -18.67579,-18.63227 18.67579,-18.63239 z m -20.4565,-8.16522 8.16522,8.16522 -8.16522,8.16523 0,-16.33045 z m 8.16522,45.42988 -8.16522,8.1652 0,-16.33037 8.16522,8.16517 z" />
  </g>
</svg>
