<?xml version="1.0" encoding="UTF-8" standalone="no"?>
<!-- Created with Inkscape (http://www.inkscape.org/) -->

<svg
   xmlns:dc="http://purl.org/dc/elements/1.1/"
   xmlns:cc="http://creativecommons.org/ns#"
   xmlns:rdf="http://www.w3.org/1999/02/22-rdf-syntax-ns#"
   xmlns:svg="http://www.w3.org/2000/svg"
   xmlns="http://www.w3.org/2000/svg"
   xmlns:sodipodi="http://sodipodi.sourceforge.net/DTD/sodipodi-0.dtd"
   xmlns:inkscape="http://www.inkscape.org/namespaces/inkscape"
   width="180"
   height="140"
   viewBox="0 0 180 140"
   id="svg4149"
   version="1.1"
   inkscape:version="0.91 r13725"
   sodipodi:docname="Midi.svg">
  <defs
     id="defs4151" />
  <sodipodi:namedview
     id="base"
     pagecolor="#ffffff"
     bordercolor="#666666"
     borderopacity="1.0"
     inkscape:pageopacity="0.0"
     inkscape:pageshadow="2"
     inkscape:zoom="3.959798"
     inkscape:cx="35.418145"
     inkscape:cy="118.97604"
     inkscape:document-units="px"
     inkscape:current-layer="layer1"
     showgrid="false"
     units="px"
     inkscape:window-width="2560"
     inkscape:window-height="1390"
     inkscape:window-x="0"
     inkscape:window-y="0"
     inkscape:window-maximized="1" />
  <metadata
     id="metadata4154">
    <rdf:RDF>
      <cc:Work
         rdf:about="">
        <dc:format>image/svg+xml</dc:format>
        <dc:type
           rdf:resource="http://purl.org/dc/dcmitype/StillImage" />
        <dc:title></dc:title>
      </cc:Work>
    </rdf:RDF>
  </metadata>
  <g
     inkscape:label="Layer 1"
     inkscape:groupmode="layer"
     id="layer1"
     transform="translate(0,-912.36216)">
    <path
       style="fill:#000000"
       d="m 16.651755,982.20424 0,-21.30125 18.810886,0 c 12.932803,0 19.0644,0.0543 19.622173,0.17399 1.585547,0.34004 2.933327,1.66481 3.568435,3.50749 0.221573,0.64287 0.384441,30.85733 0.194043,35.99803 l -0.108255,2.923 -5.107747,0 -5.107747,0 0,-15.93591 0,-15.93589 -2.962956,0 -2.962954,0 0,15.93589 0,15.93591 -4.804792,0 -4.804792,0 0,-15.93591 0,-15.93589 -2.962956,0 -2.962955,0 0,15.93589 0,15.93591 -5.205192,0 -5.205191,0 0,-21.30126 z m 47.407282,0.16016 c 0,-11.62759 -0.01802,-21.19514 -0.04004,-21.2612 -0.02202,-0.0661 2.308457,-0.13911 5.178845,-0.16232 l 5.218885,-0.0422 0.106426,11.5601 c 0.05854,6.35805 0.106426,15.94459 0.106426,21.3034 l 0,9.74322 -5.285271,0 -5.285272,0 0,-21.14101 z m 15.414465,7.64763 0.04095,-13.49346 5.245233,-0.0422 5.245232,-0.0422 0,8.33049 0,8.3305 7.367349,0 7.367354,0 0,-11.29126 0,-11.29126 -12.563091,0 c -6.909698,0 -12.59043,-0.054 -12.623845,-0.12013 -0.03341,-0.0661 -0.02967,-2.22989 0.0083,-4.80851 l 0.06906,-4.6884 15.958171,0.0438 15.958165,0.0438 0.91514,0.44933 c 1.12169,0.55076 2.0932,1.61902 2.47961,2.72655 0.27169,0.77871 0.28893,1.87906 0.28893,18.44568 l 0,17.61764 -0.37951,0.8394 c -0.20873,0.4618 -0.65488,1.0883 -0.99145,1.3923 -1.20728,1.0907 -0.5213,1.0514 -18.358666,1.0514 l -16.067897,0 0.04095,-13.49335 z m 40.747678,5.53922 c -0.0584,-4.37483 -0.10624,-13.96039 -0.10624,-21.30124 l 0,-13.34702 5.28527,0 5.28527,0 0,21.30125 0,21.30126 -5.17903,0 -5.17902,0 -0.10625,-7.95425 z"
       id="path4708"
       inkscape:connector-curvature="0" />
    <path
       inkscape:connector-curvature="0"
       d="m 153.79573,985.02585 0,27.42385 c -1.53365,-0.8838 -3.30125,-1.4297 -5.19882,-1.4297 -5.74469,0 -10.39763,4.6529 -10.39763,10.3976 0,5.7447 4.65294,10.3977 10.39763,10.3977 5.74469,0 10.39763,-4.653 10.39763,-10.3977 l 0,-25.9941 10.39764,0 0,-10.39765 -15.59645,0 z"
       id="path4732"
       style="fill:#ececec" />
    <path
       style="fill:#cccccc"
       id="path4730"
       d="m 146.21958,988.30884 0,27.42386 c -1.53365,-0.8838 -3.30125,-1.4297 -5.19882,-1.4297 -5.74469,0 -10.39763,4.6529 -10.39763,10.3976 0,5.7447 4.65294,10.3977 10.39763,10.3977 5.74469,0 10.39763,-4.653 10.39763,-10.3977 l 0,-25.99411 10.39764,0 0,-10.39765 -15.59645,0 z"
       inkscape:connector-curvature="0" />
    <path
       inkscape:connector-curvature="0"
       d="m 138.13836,992.09691 0,27.42379 c -1.53365,-0.8838 -3.30125,-1.4297 -5.19882,-1.4297 -5.74469,0 -10.39763,4.6529 -10.39763,10.3976 0,5.7447 4.65294,10.3977 10.39763,10.3977 5.74469,0 10.39763,-4.653 10.39763,-10.3977 l 0,-25.994 10.39764,0 0,-10.39769 -15.59645,0 z"
       id="path4714"
       style="fill:#999999" />
  </g>
</svg>
