<?xml version="1.0" encoding="UTF-8" standalone="no"?>
<!-- Generator: Adobe Illustrator 19.1.0, SVG Export Plug-In . SVG Version: 6.00 Build 0)  -->

<svg
   xmlns:dc="http://purl.org/dc/elements/1.1/"
   xmlns:cc="http://creativecommons.org/ns#"
   xmlns:rdf="http://www.w3.org/1999/02/22-rdf-syntax-ns#"
   xmlns:svg="http://www.w3.org/2000/svg"
   xmlns="http://www.w3.org/2000/svg"
   xmlns:sodipodi="http://sodipodi.sourceforge.net/DTD/sodipodi-0.dtd"
   xmlns:inkscape="http://www.inkscape.org/namespaces/inkscape"
   version="1.1"
   x="0px"
   y="0px"
   width="180"
   height="140"
   viewBox="0 0 180 140"
   enable-background="new 0 0 24 24"
   xml:space="preserve"
   id="svg2"
   inkscape:version="0.92.3 (2405546, 2018-03-11)"
   sodipodi:docname="Bluetooth Time.thumb.svg"><metadata
     id="metadata16"><rdf:RDF><cc:Work
         rdf:about=""><dc:format>image/svg+xml</dc:format><dc:type
           rdf:resource="http://purl.org/dc/dcmitype/StillImage" /><dc:title></dc:title></cc:Work></rdf:RDF></metadata><defs
     id="defs14">
</defs><sodipodi:namedview
     pagecolor="#ffffff"
     bordercolor="#666666"
     borderopacity="1"
     objecttolerance="10"
     gridtolerance="10"
     guidetolerance="10"
     inkscape:pageopacity="0"
     inkscape:pageshadow="2"
     inkscape:window-width="2560"
     inkscape:window-height="1389"
     id="namedview12"
     showgrid="false"
     units="px"
     inkscape:zoom="2.4583333"
     inkscape:cx="-69.442329"
     inkscape:cy="89.657261"
     inkscape:window-x="0"
     inkscape:window-y="0"
     inkscape:window-maximized="1"
     inkscape:current-layer="svg2" /><g
     id="g867"
     transform="translate(-9.7761114)"><g
       style="fill:#0066ff"
       transform="matrix(4.3432056,0,0,4.3432056,16.954843,35.534223)"
       id="Outline"><g
         style="fill:#0066ff"
         id="ui_x5F_spec_x5F_header" /><path
         style="fill:#0060a9;fill-opacity:1"
         inkscape:connector-curvature="0"
         id="path10"
         d="M 17.71,7.71 12,2 H 11 V 9.59 L 6.41,5 5,6.41 10.59,12 5,17.59 6.41,19 11,14.41 V 22 h 1 L 17.71,16.29 13.41,12 Z M 13,5.83 14.88,7.71 13,9.59 Z M 14.88,16.29 13,18.17 v -3.76 z" /></g><g
       transform="matrix(2.9661017,0,0,2.9661017,89.694911,52.745761)"
       id="g839"><path
         inkscape:connector-curvature="0"
         d="M 11.99,2 C 6.47,2 2,6.48 2,12 2,17.52 6.47,22 11.99,22 17.52,22 22,17.52 22,12 22,6.48 17.52,2 11.99,2 Z M 12,20 C 7.58,20 4,16.42 4,12 4,7.58 7.58,4 12,4 c 4.42,0 8,3.58 8,8 0,4.42 -3.58,8 -8,8 z"
         id="path822" /><path
         style="fill:none"
         inkscape:connector-curvature="0"
         d="M 0,0 H 24 V 24 H 0 Z"
         id="path824" /><path
         inkscape:connector-curvature="0"
         d="M 12.5,7 H 11 v 6 l 5.25,3.15 0.75,-1.23 -4.5,-2.67 z"
         id="path826" /></g></g></svg>