<?xml version="1.0" encoding="UTF-8" standalone="no"?>
<!-- Created with Inkscape (http://www.inkscape.org/) -->

<svg
   xmlns:dc="http://purl.org/dc/elements/1.1/"
   xmlns:cc="http://creativecommons.org/ns#"
   xmlns:rdf="http://www.w3.org/1999/02/22-rdf-syntax-ns#"
   xmlns:svg="http://www.w3.org/2000/svg"
   xmlns="http://www.w3.org/2000/svg"
   xmlns:xlink="http://www.w3.org/1999/xlink"
   xmlns:sodipodi="http://sodipodi.sourceforge.net/DTD/sodipodi-0.dtd"
   xmlns:inkscape="http://www.inkscape.org/namespaces/inkscape"
   width="180"
   height="140"
   viewBox="0 0 180 140"
   id="svg4149"
   version="1.1"
   inkscape:version="0.91 r13725"
   sodipodi:docname="Internet.thumb.svg">
  <defs
     id="defs4151">
    <linearGradient
       id="linearGradient28799-4">
      <stop
         style="stop-color:#fefefc;stop-opacity:1;"
         offset="0"
         id="stop28801-13" />
      <stop
         id="stop28807-8"
         offset="0.75733864"
         style="stop-color:#fefefc;stop-opacity:1" />
      <stop
         style="stop-color:#d4d4d4;stop-opacity:1"
         offset="1"
         id="stop28803-8" />
    </linearGradient>
    <radialGradient
       inkscape:collect="always"
       xlink:href="#linearGradient28799-4"
       id="radialGradient29032"
       gradientUnits="userSpaceOnUse"
       gradientTransform="matrix(1.0857794,-0.03431182,0.03943781,1.2479887,-154.54194,-26.542647)"
       cx="223.19559"
       cy="137.66095"
       fx="223.19559"
       fy="137.66095"
       r="14.572236" />
    <radialGradient
       inkscape:collect="always"
       xlink:href="#linearGradient28799-4"
       id="radialGradient29648"
       gradientUnits="userSpaceOnUse"
       gradientTransform="matrix(0.81524244,-0.03431182,0.02961133,1.2479887,-129.43743,-26.542647)"
       cx="223.19559"
       cy="137.66095"
       fx="223.19559"
       fy="137.66095"
       r="14.572236" />
    <linearGradient
       id="linearGradient14392-7"
       inkscape:collect="always">
      <stop
         id="stop14394-8"
         offset="0"
         style="stop-color:#3e2a06;stop-opacity:1" />
      <stop
         id="stop14396-6"
         offset="1"
         style="stop-color:#ad780a;stop-opacity:1" />
    </linearGradient>
    <linearGradient
       y2="293.58548"
       x2="490.12241"
       y1="371.54401"
       x1="442.03912"
       gradientTransform="matrix(0.87491199,0,0,0.81148755,60.367186,62.586953)"
       gradientUnits="userSpaceOnUse"
       id="linearGradient14477"
       xlink:href="#linearGradient14392-7"
       inkscape:collect="always" />
    <linearGradient
       y2="293.58548"
       x2="490.12241"
       y1="371.54401"
       x1="442.03912"
       gradientTransform="translate(4e-6,9.6185359e-6)"
       gradientUnits="userSpaceOnUse"
       id="linearGradient14485"
       xlink:href="#linearGradient14392-7"
       inkscape:collect="always" />
    <clipPath
       id="clipPath14186-9"
       clipPathUnits="userSpaceOnUse">
      <path
         style="fill:#402c07;fill-opacity:1;stroke:none"
         d="m 137.57703,281.0191 c 1.59929,-0.66295 3.3982,-0.78361 5.10074,-0.46963 1.70253,0.31398 3.31141,1.04948 4.74342,2.02239 2.86402,1.94583 4.98821,4.77774 7.02263,7.57952 4.67189,6.43406 9.16868,13.00227 13.24488,19.8293 3.30635,5.53766 6.34352,11.25685 10.16415,16.45304 2.49398,3.3919 5.3066,6.53947 7.813,9.92221 2.50639,3.38273 4.72794,7.05586 5.83931,11.11662 1.44411,5.27653 0.88463,11.09291 -1.62666,15.95302 -1.76663,3.41896 -4.47646,6.35228 -7.77242,8.33898 -3.29595,1.9867 -7.17064,3.01444 -11.01635,2.87021 -6.11413,-0.2293 -11.69944,-3.28515 -17.38362,-5.54906 -11.58097,-4.6125 -24.15978,-6.0594 -36.09666,-9.65174 -3.66859,-1.10404 -7.27582,-2.4107 -10.96988,-3.42629 -1.64125,-0.45122 -3.30866,-0.8482 -4.85875,-1.55144 -1.55008,-0.70325 -2.999548,-1.7491 -3.86171,-3.21675 -0.666391,-1.13439 -0.948386,-2.47002 -0.930187,-3.78554 0.0182,-1.31552 0.325889,-2.61453 0.773815,-3.85158 0.895851,-2.47409 2.343262,-4.71374 3.320162,-7.15696 1.59511,-3.98935 1.88169,-8.38839 1.66657,-12.67942 -0.21511,-4.29103 -0.91078,-8.54478 -1.20454,-12.83115 -0.13118,-1.91406 -0.18066,-3.85256 0.18479,-5.73598 0.36545,-1.88343 1.17577,-3.72459 2.55771,-5.05541 1.27406,-1.22693 2.96492,-1.95531 4.69643,-2.31651 1.73151,-0.3612 3.51533,-0.37747 5.28367,-0.33762 1.76833,0.0399 3.54067,0.13425 5.30351,-0.0106 1.76284,-0.14488 3.53347,-0.54055 5.06911,-1.41828 1.45996,-0.83447 2.65433,-2.0745 3.64374,-3.43424 0.9894,-1.35974 1.78909,-2.84573 2.60891,-4.31396 0.81983,-1.46823 1.66834,-2.93151 2.74157,-4.22611 1.07324,-1.2946 2.38923,-2.42304 3.94266,-3.06698"
         id="path14188-1"
         inkscape:connector-curvature="0"
         sodipodi:nodetypes="ssssssssssssssss"
         inkscape:original-d="m 137.57703,281.0191 c 6.32494,-1.3585 11.99755,4.87308 16.86679,9.13228 6.42572,5.62067 -8.54781,26.01622 13.24488,19.8293 5.86081,-1.66388 6.89528,11.31183 10.16415,16.45304 4.09971,6.44793 11.58575,13.6827 13.65231,21.03883 1.58383,5.63779 1.34339,10.90606 -1.62666,15.95302 -3.57124,6.06857 -11.7907,10.42929 -18.78877,11.20919 -5.73056,0.63864 -11.87822,-3.8351 -17.38362,-5.54906 -12.31617,-3.83432 -23.77946,-5.82074 -36.09666,-9.65174 -2.50091,-0.77785 -8.28361,-2.638 -10.96988,-3.42629 -4.51043,-1.3236 -6.46556,-0.99271 -8.72046,-4.76819 -2.68251,-4.49147 0.68051,-9.72669 3.16379,-14.79408 4.06995,-8.30524 1.91195,-17.82603 0.46203,-25.51057 -0.92235,-4.8884 -0.66071,-7.92707 2.7425,-10.79139 4.99476,-4.20385 14.53027,-1.53186 20.35272,-4.08305 5.82246,-2.55119 6.66365,-13.6939 12.93688,-15.04129 z" />
    </clipPath>
    <inkscape:path-effect
       effect="spiro"
       id="path-effect4669-1"
       is_visible="true" />
    <inkscape:path-effect
       effect="spiro"
       id="path-effect4669-4-3"
       is_visible="true" />
    <inkscape:path-effect
       is_visible="true"
       id="path-effect14972-2-2"
       effect="spiro" />
    <inkscape:path-effect
       is_visible="true"
       id="path-effect15017-9"
       effect="spiro" />
    <clipPath
       id="clipPath15031-3"
       clipPathUnits="userSpaceOnUse">
      <path
         sodipodi:nodetypes="czzzzzzzzzzzzzzzszzzzzc"
         inkscape:original-d="m 248.06066,184.61218 c 0,0 -5.10626,6.34527 -7.89695,10.24696 -2.7907,3.9017 -5.73652,6.64881 -8.58729,10.75139 -2.85076,4.10259 -7.36482,9.43164 -9.44912,13.93045 -2.08429,4.49881 -2.32047,9.0356 -4.26498,13.84932 -1.94451,4.81371 -3.70129,10.64183 -5.97071,15.33612 -2.26943,4.69429 -5.37093,9.68473 -6.93891,13.53553 -1.56799,3.8508 -3.81119,5.72384 -4.10782,10.22071 -0.29663,4.49686 -0.57747,8.31749 3.77151,16.77227 4.34898,8.45478 17.23626,22.00721 24.24176,27.92472 7.00549,5.9175 9.39133,7.22492 14.60245,8.52595 5.21112,1.30104 13.85627,2.9981 16.72874,-1.2702 2.87246,-4.26829 2.27191,-5.96483 -0.74863,-10.66616 -3.02055,-4.70132 -4.82469,-5.30209 -9.79642,-9.57343 -4.97172,-4.27133 -18.63696,-14.87266 -22.68212,-19.23996 -4.04516,-4.36729 -7.10731,-3.41164 -5.53019,-6.28412 1.57712,-2.87249 -2.20738,-4.00856 -2.65783,-7.69253 -0.76361,-6.24511 0.9436,-18.71046 1.45958,-22.13343 0.51598,-3.42296 1.22371,-2.92446 3.51815,-8.03965 2.29444,-5.11519 4.12424,-8.62435 7.04933,-13.46723 2.92509,-4.84289 8.62493,-10.12787 11.15147,-15.27803 2.52654,-5.15017 3.50393,-10.72068 4.36185,-15.31831 0.85792,-4.59763 1.74613,-12.13037 1.74613,-12.13037 z"
         inkscape:connector-curvature="0"
         id="path15033-2"
         d="m 248.06066,184.61218 c -2.60091,3.4397 -5.23338,6.85555 -7.89695,10.24696 -2.83301,3.60715 -5.70116,7.1866 -8.58729,10.75139 -3.54135,4.37407 -7.15155,8.79286 -9.44912,13.93045 -1.97407,4.41422 -2.91014,9.20748 -4.26498,13.84932 -1.53862,5.27153 -3.62627,10.37023 -5.97071,15.33612 -2.1648,4.58539 -4.54978,9.06293 -6.93891,13.53553 -1.73823,3.25407 -3.50515,6.58104 -4.10782,10.22071 -0.47627,2.87632 -0.19849,5.84423 0.53376,8.66626 0.73224,2.82202 1.90964,5.5106 3.23775,8.10601 5.66724,11.07504 14.17003,20.62168 24.24176,27.92472 4.57063,3.31418 9.46669,6.18109 14.60245,8.52595 2.78247,1.27041 5.71355,2.40436 8.77186,2.45744 1.52915,0.0265 3.0741,-0.22544 4.47434,-0.84055 1.40024,-0.6151 2.65068,-1.60373 3.48254,-2.88709 1.02278,-1.5779 1.36992,-3.53829 1.16461,-5.40743 -0.2053,-1.86914 -0.93484,-3.65294 -1.91324,-5.25873 -2.38997,-3.92251 -6.1652,-6.76055 -9.79642,-9.57343 -7.84055,-6.07358 -15.42466,-12.48038 -22.68212,-19.23996 -2.04911,-1.90854 -4.0984,-3.87759 -5.53019,-6.28412 -1.3943,-2.34352 -2.14763,-5.01375 -2.65783,-7.69253 -1.39963,-7.34872 -1.0404,-15.0827 1.45958,-22.13343 0.97802,-2.75834 2.27066,-5.39225 3.51815,-8.03965 2.1622,-4.58855 4.21133,-9.26299 7.04933,-13.46723 3.53268,-5.23334 8.24484,-9.67275 11.15147,-15.27803 2.45457,-4.7335 3.49353,-10.05742 4.36185,-15.31831 0.66531,-4.03089 1.24751,-8.07549 1.74613,-12.13037"
         style="fill:none;stroke:#729fcf;stroke-width:0.125;stroke-linecap:butt;stroke-linejoin:miter;stroke-miterlimit:4;stroke-opacity:1;stroke-dasharray:none" />
    </clipPath>
    <inkscape:path-effect
       effect="spiro"
       id="path-effect29716-6-1"
       is_visible="true" />
    <clipPath
       id="clipPath14822-9"
       clipPathUnits="userSpaceOnUse">
      <path
         style="fill:none;stroke:#ce5c00;stroke-width:1px;stroke-linecap:butt;stroke-linejoin:miter;stroke-opacity:1"
         inkscape:original-d="m 386.1875,285.32775 c -2.36571,-3.81321 -7.59294,-4.9003 -11.805,-6.41698 -2.08672,-0.75138 -4.32322,-1.04333 -6.52782,-1.27734 -2.27612,-0.2416 -4.71593,-0.91505 -6.8653,-0.1253 -3.64566,1.33955 -7.24986,3.80684 -8.75671,7.70871 -1.13743,2.94527 -1.80122,7.05909 -1.65394,10.40316 0.13075,2.96891 0.9633,5.07273 2.60877,7.33912 1.08803,1.49859 3.40096,2.67896 5.43398,3.22092 3.49923,0.93284 7.37483,0.82779 10.86038,-0.1553 5.98587,-2.2615 11.09272,-5.76885 14.33034,-10.77903 1.07459,-1.67639 2.15539,-3.45031 2.5532,-5.4034 0.30053,-1.4755 0.61519,-3.23621 -0.1779,-4.51456 z"
         id="path14824-1"
         d="m 386.1875,285.32775 c -0.40516,-1.10369 -1.11845,-2.08156 -1.9907,-2.86987 -0.87226,-0.78832 -1.90049,-1.39229 -2.98278,-1.85155 -2.16459,-0.91852 -4.52053,-1.26149 -6.83152,-1.69556 -2.17919,-0.40931 -4.34179,-0.90631 -6.52782,-1.27734 -2.27136,-0.38551 -4.6179,-0.63213 -6.8653,-0.1253 -1.96583,0.44333 -3.7845,1.45879 -5.27172,2.81864 -1.48723,1.35984 -2.64911,3.0564 -3.48499,4.89007 -1.47218,3.22952 -1.93451,6.86503 -1.65394,10.40316 0.20882,2.63325 0.87532,5.34594 2.60877,7.33912 1.40065,1.61052 3.38733,2.61526 5.43398,3.22092 3.52502,1.04316 7.36663,0.98822 10.86038,-0.1553 5.76689,-1.93113 10.87568,-5.77387 14.33034,-10.77903 1.13861,-1.64963 2.11217,-3.44809 2.5532,-5.4034 0.33597,-1.48955 0.34831,-3.08112 -0.1779,-4.51456"
         inkscape:connector-curvature="0"
         sodipodi:nodetypes="aaaasssaccaa" />
    </clipPath>
    <clipPath
       id="clipPath14822-2-4"
       clipPathUnits="userSpaceOnUse">
      <path
         style="fill:none;stroke:#ce5c00;stroke-width:1px;stroke-linecap:butt;stroke-linejoin:miter;stroke-opacity:1"
         inkscape:original-d="m 386.1875,285.32775 c -2.36571,-3.81321 -7.59294,-4.9003 -11.805,-6.41698 -2.08672,-0.75138 -4.32322,-1.04333 -6.52782,-1.27734 -2.27612,-0.2416 -4.71593,-0.91505 -6.8653,-0.1253 -3.64566,1.33955 -7.24986,3.80684 -8.75671,7.70871 -1.13743,2.94527 -1.80122,7.05909 -1.65394,10.40316 0.13075,2.96891 0.9633,5.07273 2.60877,7.33912 1.08803,1.49859 3.40096,2.67896 5.43398,3.22092 3.49923,0.93284 7.37483,0.82779 10.86038,-0.1553 5.98587,-2.2615 11.09272,-5.76885 14.33034,-10.77903 1.07459,-1.67639 2.15539,-3.45031 2.5532,-5.4034 0.30053,-1.4755 0.61519,-3.23621 -0.1779,-4.51456 z"
         id="path14824-6-5"
         d="m 386.1875,285.32775 c -0.40516,-1.10369 -1.11845,-2.08156 -1.9907,-2.86987 -0.87226,-0.78832 -1.90049,-1.39229 -2.98278,-1.85155 -2.16459,-0.91852 -4.52053,-1.26149 -6.83152,-1.69556 -2.17919,-0.40931 -4.34179,-0.90631 -6.52782,-1.27734 -2.27136,-0.38551 -4.6179,-0.63213 -6.8653,-0.1253 -1.96583,0.44333 -3.7845,1.45879 -5.27172,2.81864 -1.48723,1.35984 -2.64911,3.0564 -3.48499,4.89007 -1.47218,3.22952 -1.93451,6.86503 -1.65394,10.40316 0.20882,2.63325 0.87532,5.34594 2.60877,7.33912 1.40065,1.61052 3.38733,2.61526 5.43398,3.22092 3.52502,1.04316 7.36663,0.98822 10.86038,-0.1553 5.76689,-1.93113 10.87568,-5.77387 14.33034,-10.77903 1.13861,-1.64963 2.11217,-3.44809 2.5532,-5.4034 0.33597,-1.48955 0.34831,-3.08112 -0.1779,-4.51456"
         inkscape:connector-curvature="0"
         sodipodi:nodetypes="aaaasssaccaa" />
    </clipPath>
    <linearGradient
       id="linearGradient14518-6">
      <stop
         style="stop-color:#110800;stop-opacity:1;"
         offset="0"
         id="stop14540-0" />
      <stop
         id="stop14542-5"
         offset="0.59066743"
         style="stop-color:#a65a00;stop-opacity:0.80000001;" />
      <stop
         id="stop14522-4"
         offset="1"
         style="stop-color:#ff921e;stop-opacity:0;" />
    </linearGradient>
    <inkscape:path-effect
       effect="spiro"
       id="path-effect29716-0-0"
       is_visible="true" />
    <inkscape:path-effect
       effect="spiro"
       id="path-effect29716-0-8-3"
       is_visible="true" />
    <inkscape:path-effect
       is_visible="true"
       id="path-effect14300-7"
       effect="spiro" />
    <clipPath
       id="clipPath14489-3"
       clipPathUnits="userSpaceOnUse">
      <path
         inkscape:original-d="m 516.00562,331.8756 c 0.90859,1.59687 -1.57016,3.38773 -2.81579,4.73826 -2.74207,2.97299 -6.45099,4.90178 -9.89648,7.01985 -5.91373,3.63539 -12.61918,5.90302 -18.41964,9.71654 -3.88318,2.553 -7.32809,5.72221 -10.86016,8.74238 -3.0221,2.58411 -5.48201,5.87643 -8.83247,8.01771 -3.3519,2.1422 -7.0437,4.15414 -10.99061,4.6502 -4.78298,0.60114 -9.87221,-0.25577 -14.29898,-2.16416 -3.0947,-1.33413 -6.16113,-3.38144 -7.96301,-6.22931 -1.81288,-2.86525 -2.06093,-6.5375 -2.23266,-9.92375 -0.30734,-6.06031 1.36252,-12.0605 2.17848,-18.07349 0.67882,-5.00236 1.85312,-9.94325 2.26013,-14.97502 0.73946,-9.14185 -0.7797,-18.40771 0.3199,-27.51327 0.35468,-2.93704 -0.181,-6.65876 2.01238,-8.64398 2.0384,-1.84494 5.43058,-1.1212 8.17929,-1.06253 3.34492,0.0714 6.63224,0.95108 9.88917,1.71656 2.05612,0.48325 3.99816,1.41138 6.0722,1.81081 3.44031,0.66255 6.96573,1.06623 10.46739,0.95192 3.78516,-0.12356 7.43659,-1.79636 11.22363,-1.76474 1.55185,0.013 3.12359,0.28186 4.58649,0.79985 1.48266,0.52499 2.98786,1.20618 4.12281,2.29512 0.86547,0.83038 1.42933,1.95676 1.87872,3.06879 0.67163,1.66196 0.8942,3.4778 1.16703,5.24945 0.24238,1.57389 -0.1531,3.27141 0.41433,4.75933 1.83023,4.79924 5.57666,8.72712 9.22489,12.34277 1.74278,1.93455 4.03041,3.53404 6.16708,4.82839 2.26886,1.37444 4.3675,2.44991 5.46279,4.81597 0.65901,1.48517 -0.54371,3.76097 0.68307,4.82635 z"
         sodipodi:nodetypes="aaaaaaaaaaaaaaaaaaaaaaaacscaa"
         inkscape:connector-curvature="0"
         id="path14491-6"
         d="m 516.00562,331.8756 c -0.6714,1.71905 -1.62682,3.32679 -2.81579,4.73826 -2.6238,3.11482 -6.268,5.17039 -9.89648,7.01985 -6.1886,3.15437 -12.60169,5.92177 -18.41964,9.71654 -3.89802,2.54249 -7.4959,5.52671 -10.86016,8.74238 -2.87719,2.75012 -5.60582,5.68745 -8.83247,8.01771 -3.25567,2.35122 -7.01915,4.05426 -10.99061,4.6502 -4.83026,0.72481 -9.82134,-0.21289 -14.29898,-2.16416 -3.13754,-1.36728 -6.15569,-3.3229 -7.96301,-6.22931 -1.81425,-2.91754 -2.22807,-6.48813 -2.23266,-9.92375 -0.008,-6.07666 1.11824,-12.09004 2.17848,-18.07349 0.88097,-4.97177 1.71949,-9.95483 2.26013,-14.97502 0.98337,-9.13118 0.9763,-18.35278 0.3199,-27.51327 -0.10993,-1.53416 -0.23754,-3.0832 -0.008,-4.60412 0.22922,-1.52092 0.85475,-3.0367 2.02069,-4.03986 1.07696,-0.9266 2.52093,-1.33598 3.93947,-1.4145 1.41854,-0.0785 2.83404,0.14655 4.23982,0.35197 3.31254,0.48405 6.65159,0.8649 9.88917,1.71656 2.04284,0.53738 4.03315,1.25925 6.0722,1.81081 3.40258,0.92039 6.96639,1.36144 10.46739,0.95192 3.76917,-0.44089 7.42987,-1.85678 11.22363,-1.76474 1.55658,0.0378 3.1015,0.33171 4.58649,0.79985 1.51539,0.47772 3.00914,1.16182 4.12281,2.29512 0.84639,0.8613 1.43579,1.94539 1.87872,3.06879 0.65982,1.67352 1.01492,3.457 1.16703,5.24945 0.13475,1.58788 0.11343,3.19441 0.41433,4.75933 0.49503,2.57458 1.84746,4.92305 3.52848,6.93494 1.68102,2.01189 3.68982,3.72048 5.69641,5.40783 1.99908,1.68103 4.0106,3.35469 6.16708,4.82839 1.0121,0.69165 2.05642,1.33949 3.01736,2.10062 0.96094,0.76113 1.84466,1.6468 2.44543,2.71535 0.81492,1.44944 1.06377,3.2077 0.68307,4.82635 l 2e-5,0"
         style="fill:url(#linearGradient14485);fill-opacity:1;stroke:none" />
    </clipPath>
    <inkscape:path-effect
       is_visible="true"
       id="path-effect14300-2-7"
       effect="spiro" />
    <clipPath
       id="clipPath14481-1"
       clipPathUnits="userSpaceOnUse">
      <path
         inkscape:original-d="m 516.00562,331.8756 c 0.90859,1.59687 -1.57016,3.38773 -2.81579,4.73826 -2.74207,2.97299 -6.45099,4.90178 -9.89648,7.01985 -5.91373,3.63539 -12.61918,5.90302 -18.41964,9.71654 -3.88318,2.553 -7.32809,5.72221 -10.86016,8.74238 -3.0221,2.58411 -5.48201,5.87643 -8.83247,8.01771 -3.3519,2.1422 -7.0437,4.15414 -10.99061,4.6502 -4.78298,0.60114 -9.87221,-0.25577 -14.29898,-2.16416 -3.0947,-1.33413 -6.16113,-3.38144 -7.96301,-6.22931 -1.81288,-2.86525 -2.06093,-6.5375 -2.23266,-9.92375 -0.30734,-6.06031 1.36252,-12.0605 2.17848,-18.07349 0.67882,-5.00236 1.85312,-9.94325 2.26013,-14.97502 0.73946,-9.14185 -0.7797,-18.40771 0.3199,-27.51327 0.35468,-2.93704 -0.181,-6.65876 2.01238,-8.64398 2.0384,-1.84494 5.43058,-1.1212 8.17929,-1.06253 3.34492,0.0714 6.63224,0.95108 9.88917,1.71656 2.05612,0.48325 3.99816,1.41138 6.0722,1.81081 3.44031,0.66255 6.96573,1.06623 10.46739,0.95192 3.78516,-0.12356 7.43659,-1.79636 11.22363,-1.76474 1.55185,0.013 3.12359,0.28186 4.58649,0.79985 1.48266,0.52499 2.98786,1.20618 4.12281,2.29512 0.86547,0.83038 1.42933,1.95676 1.87872,3.06879 0.67163,1.66196 0.8942,3.4778 1.16703,5.24945 0.24238,1.57389 -0.1531,3.27141 0.41433,4.75933 1.83023,4.79924 5.57666,8.72712 9.22489,12.34277 1.74278,1.93455 4.03041,3.53404 6.16708,4.82839 2.26886,1.37444 4.3675,2.44991 5.46279,4.81597 0.65901,1.48517 -0.54371,3.76097 0.68307,4.82635 z"
         sodipodi:nodetypes="aaaaaaaaaaaaaaaaaaaaaaaacscaa"
         inkscape:connector-curvature="0"
         id="path14483-3"
         d="m 516.00562,331.8756 c -0.6714,1.71905 -1.62682,3.32679 -2.81579,4.73826 -2.6238,3.11482 -6.268,5.17039 -9.89648,7.01985 -6.1886,3.15437 -12.60169,5.92177 -18.41964,9.71654 -3.89802,2.54249 -7.4959,5.52671 -10.86016,8.74238 -2.87719,2.75012 -5.60582,5.68745 -8.83247,8.01771 -3.25567,2.35122 -7.01915,4.05426 -10.99061,4.6502 -4.83026,0.72481 -9.82134,-0.21289 -14.29898,-2.16416 -3.13754,-1.36728 -6.15569,-3.3229 -7.96301,-6.22931 -1.81425,-2.91754 -2.22807,-6.48813 -2.23266,-9.92375 -0.008,-6.07666 1.11824,-12.09004 2.17848,-18.07349 0.88097,-4.97177 1.71949,-9.95483 2.26013,-14.97502 0.98337,-9.13118 0.9763,-18.35278 0.3199,-27.51327 -0.10993,-1.53416 -0.23754,-3.0832 -0.008,-4.60412 0.22922,-1.52092 0.85475,-3.0367 2.02069,-4.03986 1.07696,-0.9266 2.52093,-1.33598 3.93947,-1.4145 1.41854,-0.0785 2.83404,0.14655 4.23982,0.35197 3.31254,0.48405 6.65159,0.8649 9.88917,1.71656 2.04284,0.53738 4.03315,1.25925 6.0722,1.81081 3.40258,0.92039 6.96639,1.36144 10.46739,0.95192 3.76917,-0.44089 7.42987,-1.85678 11.22363,-1.76474 1.55658,0.0378 3.1015,0.33171 4.58649,0.79985 1.51539,0.47772 3.00914,1.16182 4.12281,2.29512 0.84639,0.8613 1.43579,1.94539 1.87872,3.06879 0.65982,1.67352 1.01492,3.457 1.16703,5.24945 0.13475,1.58788 0.11343,3.19441 0.41433,4.75933 0.49503,2.57458 1.84746,4.92305 3.52848,6.93494 1.68102,2.01189 3.68982,3.72048 5.69641,5.40783 1.99908,1.68103 4.0106,3.35469 6.16708,4.82839 1.0121,0.69165 2.05642,1.33949 3.01736,2.10062 0.96094,0.76113 1.84466,1.6468 2.44543,2.71535 0.81492,1.44944 1.06377,3.2077 0.68307,4.82635 l 2e-5,0"
         style="fill:url(#linearGradient14485);fill-opacity:1;stroke:none" />
    </clipPath>
    <inkscape:path-effect
       is_visible="true"
       id="path-effect14300-2-2-0"
       effect="spiro" />
    <clipPath
       id="clipPath14473-5"
       clipPathUnits="userSpaceOnUse">
      <path
         inkscape:original-d="m 511.82669,331.89986 c 0.79493,1.29584 -1.37375,2.7491 -2.46357,3.84504 -2.39907,2.41255 -5.64405,3.97773 -8.65855,5.69652 -5.17399,2.95008 -11.04067,4.79023 -16.11556,7.88485 -3.39744,2.07173 -6.41144,4.64351 -9.50169,7.09434 -2.64407,2.09697 -4.79627,4.76865 -7.72763,6.50627 -2.93262,1.73837 -6.16262,3.37103 -9.61582,3.77358 -4.18468,0.48781 -8.63731,-0.20756 -12.51035,-1.75619 -2.70759,-1.08263 -5.39044,-2.744 -6.96693,-5.05501 -1.58611,-2.32511 -1.80313,-5.3051 -1.95338,-8.053 -0.2689,-4.91787 1.19208,-9.78694 1.90598,-14.66641 0.59391,-4.05935 1.62131,-8.06882 1.97741,-12.15204 0.64696,-7.4185 -0.68217,-14.93763 0.27989,-22.32668 0.31031,-2.38337 -0.15836,-5.4035 1.76065,-7.01448 1.78342,-1.49715 4.75128,-0.90984 7.15616,-0.86223 2.92651,0.0579 5.80263,0.77179 8.65215,1.39297 1.79893,0.39215 3.49804,1.14531 5.31265,1.46945 3.00996,0.53765 6.0944,0.86523 9.15804,0.77247 3.31168,-0.10027 6.50636,-1.45773 9.81969,-1.43207 1.35773,0.0105 2.73287,0.22873 4.01277,0.64907 1.2972,0.42602 2.61412,0.9788 3.6071,1.86246 0.75721,0.67384 1.25054,1.58789 1.64371,2.49029 0.58762,1.34866 0.78235,2.82219 1.02105,4.25986 0.21206,1.27719 -0.13395,2.65471 0.36251,3.86214 1.60129,3.89452 4.87908,7.08195 8.07096,10.016 1.52478,1.56986 3.52626,2.86783 5.39565,3.91818 1.98506,1.11534 3.82118,1.98807 4.77946,3.9081 0.57658,1.2052 -0.47569,3.05198 0.59763,3.91652 z"
         sodipodi:nodetypes="aaaaaaaaaaaaaaaaaaaaaaaacscaa"
         inkscape:connector-curvature="0"
         id="path14475-9"
         d="m 511.82669,331.89986 c -0.60617,1.40358 -1.44178,2.70776 -2.46357,3.84504 -2.32524,2.58805 -5.50706,4.22246 -8.65855,5.69652 -5.42045,2.53534 -11.00071,4.7788 -16.11556,7.88485 -3.38301,2.05437 -6.53696,4.47221 -9.50169,7.09434 -2.52461,2.23286 -4.92977,4.6271 -7.72763,6.50627 -2.88313,1.93644 -6.17534,3.29888 -9.61582,3.77358 -4.21817,0.58201 -8.55335,-0.18335 -12.51035,-1.75619 -2.7091,-1.07682 -5.36625,-2.6185 -6.96693,-5.05501 -1.53813,-2.3413 -1.9333,-5.25173 -1.95338,-8.053 -0.0354,-4.93859 0.96501,-9.81816 1.90598,-14.66641 0.78215,-4.02995 1.52682,-8.0717 1.97741,-12.15204 0.81784,-7.40607 0.66114,-14.88536 0.27989,-22.32668 -0.064,-1.24906 -0.13361,-2.5105 0.0789,-3.74301 0.21256,-1.23251 0.73646,-2.45247 1.68171,-3.27147 0.93914,-0.8137 2.20952,-1.15942 3.45104,-1.2115 1.24152,-0.0521 2.47642,0.16381 3.70512,0.34927 2.88969,0.43617 5.81087,0.7091 8.65215,1.39297 1.78651,0.43 3.53091,1.02011 5.31265,1.46945 2.98632,0.75312 6.09645,1.10709 9.15804,0.77247 3.2941,-0.36004 6.50688,-1.50957 9.81969,-1.43207 1.35838,0.0318 2.70755,0.27142 4.01277,0.64907 1.31265,0.3798 2.61744,0.9202 3.6071,1.86246 0.72535,0.69061 1.25006,1.56936 1.64371,2.49029 0.57625,1.34814 0.88626,2.79994 1.02105,4.25986 0.11897,1.28855 0.10468,2.59405 0.36251,3.86214 0.4369,2.14878 1.63966,4.08139 3.11506,5.70353 1.4754,1.62214 3.22406,2.96752 4.9559,4.31247 1.75634,1.36398 3.50975,2.7398 5.39565,3.91818 0.88228,0.55128 1.79349,1.05932 2.63473,1.67142 0.84123,0.61209 1.61878,1.33907 2.14473,2.23668 0.68386,1.16711 0.90229,2.59857 0.59763,3.91652 l 2e-5,0"
         style="fill:url(#linearGradient14477);fill-opacity:1;stroke:none" />
    </clipPath>
    <inkscape:path-effect
       effect="spiro"
       id="path-effect4582-3"
       is_visible="true" />
    <inkscape:path-effect
       effect="spiro"
       id="path-effect4500-7"
       is_visible="true" />
    <clipPath
       id="clipPath14656-7"
       clipPathUnits="userSpaceOnUse">
      <path
         style="fill:none;stroke:#c17d11;stroke-width:1px;stroke-linecap:butt;stroke-linejoin:miter;stroke-opacity:1"
         inkscape:original-d="m 304.84727,225.44951 c 5.05628,5.63479 9.72833,12.47181 10.94319,20.00305 1.91724,11.88535 -4.97006,23.58228 -6.44591,35.53273 -0.57645,4.66766 -2.84839,9.7988 -0.93525,14.08107 1.10334,2.46967 3.76154,4.35176 6.36677,4.92292 5.08221,1.1142 11.95719,2.41291 15.20182,-3.54776 6.07775,-11.16533 10.5961,-26.78641 9.45943,-38.64224 -0.906,-9.44981 -3.86858,-18.61978 -7.74003,-27.40773 -2.817,-6.39442 -6.14704,-12.5833 -9.61753,-18.52016 -3.44146,-5.88721 -8.20051,-10.94245 -13.10336,-15.63502 -6.34842,-6.07614 -12.40311,-17.98386 -20.89399,-15.99204 -5.48499,1.28669 -7.45029,9.57719 -7.69578,15.30218 -0.17245,4.02188 2.46425,7.71677 4.46569,11.18873 2.26238,3.92465 5.10447,7.56255 8.38442,10.65407 3.43735,3.23988 8.4511,4.53927 11.61053,8.0602 z"
         id="path14658-9"
         d="m 304.84727,225.44951 c 6.01627,4.92338 9.77707,12.317 10.94319,20.00305 1.8254,12.03148 -2.34636,24.07488 -6.44591,35.53273 -0.81749,2.28481 -1.63978,4.59033 -1.96473,6.99513 -0.32495,2.4048 -0.11897,4.94825 1.02948,7.08594 1.30279,2.42497 3.73227,4.12469 6.36677,4.92292 2.58877,0.78438 5.39365,0.76103 8.01466,0.0922 2.62101,-0.66882 5.06097,-1.96774 7.18716,-3.63996 5.48002,-4.30997 8.75799,-10.98552 10.01043,-17.84394 1.25243,-6.85841 0.63908,-13.92879 -0.551,-20.7983 -1.62313,-9.36916 -4.30898,-18.53961 -7.74003,-27.40773 -2.51766,-6.50732 -5.46794,-12.91081 -9.61753,-18.52016 -4.04611,-5.46946 -9.16208,-10.08954 -13.10336,-15.63502 -2.73209,-3.84412 -4.89983,-8.13097 -8.1917,-11.50812 -1.64594,-1.68858 -3.57654,-3.13527 -5.76975,-4.00143 -2.19321,-0.86616 -4.66356,-1.12446 -6.93254,-0.48249 -1.50468,0.42573 -2.89193,1.23739 -4.03791,2.30136 -1.14598,1.06397 -2.05268,2.37637 -2.69275,3.80312 -1.28015,2.85349 -1.47719,6.11241 -0.96512,9.1977 0.66114,3.98343 2.44407,7.69333 4.46569,11.18873 2.27396,3.93169 4.918,7.71926 8.38442,10.65407 3.5985,3.04664 7.96161,5.07413 11.61053,8.0602"
         inkscape:connector-curvature="0"
         sodipodi:nodetypes="aaaaassssaaaaaa" />
    </clipPath>
    <inkscape:path-effect
       effect="spiro"
       id="path-effect29707-7-6"
       is_visible="true" />
    <inkscape:path-effect
       effect="spiro"
       id="path-effect29553-7"
       is_visible="true" />
    <clipPath
       clipPathUnits="userSpaceOnUse"
       id="clipPath29644-8">
      <path
         style="fill:url(#radialGradient29648);fill-opacity:1;stroke:none"
         d="m 54.232441,122.36218 c -1.780966,0.097 -3.484616,0.91899 -4.787851,2.1367 -1.303235,1.21771 -2.221372,2.81176 -2.786181,4.50357 -1.129618,3.38363 -0.875481,7.05177 -0.618698,10.60973 0.23251,3.22162 0.470404,6.50533 1.676785,9.50158 0.60319,1.49813 1.450247,2.91021 2.580338,4.06395 1.130092,1.15374 2.551736,2.04189 4.118297,2.43447 1.468838,0.36809 3.038161,0.29183 4.482784,-0.16209 1.444623,-0.45391 2.763917,-1.27887 3.846236,-2.33791 1.57904,-1.54507 2.643262,-3.5662 3.253449,-5.68947 0.610186,-2.12328 0.784157,-4.35155 0.752401,-6.56053 -0.03974,-2.76435 -0.400909,-5.53851 -1.265755,-8.16439 -0.864846,-2.62588 -2.245742,-5.10327 -4.172795,-7.08561 -0.933308,-0.96009 -1.997766,-1.80513 -3.198586,-2.39747 -1.200819,-0.59233 -2.54344,-0.92535 -3.880424,-0.85253"
         id="path29646-8"
         inkscape:original-d="m 54.232441,122.36218 c -3.79199,4.78949 -8.5176,11.69104 -8.19273,17.25 0.32487,5.55896 3.86025,13.93486 8.37542,16 4.51517,2.06514 5.75436,0.0125 8.32902,-2.5 2.57466,-2.51247 3.85871,-7.34762 4.00585,-12.25 0.14713,-4.90238 -3.03534,-11.91949 -5.43855,-15.25 -2.40321,-3.33051 -3.28702,-8.03949 -7.07901,-3.25 z"
         inkscape:connector-curvature="0"
         sodipodi:nodetypes="zzzzzzz" />
    </clipPath>
    <linearGradient
       id="linearGradient28469-0">
      <stop
         id="stop28479-4"
         offset="0"
         style="stop-color:#d2940a;stop-opacity:1" />
      <stop
         id="stop28477-2"
         offset="0.75143719"
         style="stop-color:#d89c08;stop-opacity:1" />
      <stop
         style="stop-color:#b67e07;stop-opacity:1;"
         offset="0.86579126"
         id="stop28485-7" />
      <stop
         style="stop-color:#946106;stop-opacity:1"
         offset="1"
         id="stop28473-1" />
    </linearGradient>
    <inkscape:path-effect
       effect="spiro"
       id="path-effect28463-4"
       is_visible="true" />
    <inkscape:path-effect
       effect="spiro"
       id="path-effect28489-4"
       is_visible="true" />
    <inkscape:path-effect
       effect="spiro"
       id="path-effect28273-54-7"
       is_visible="true" />
    <linearGradient
       id="linearGradient28275-8">
      <stop
         style="stop-color:#ad780a;stop-opacity:1"
         offset="0"
         id="stop28277-1" />
      <stop
         id="stop28291-9"
         offset="0.11972899"
         style="stop-color:#d89e08;stop-opacity:1" />
      <stop
         id="stop28289-6"
         offset="0.25514477"
         style="stop-color:#edb80b;stop-opacity:1" />
      <stop
         id="stop28287-6"
         offset="0.39194193"
         style="stop-color:#ebc80d;stop-opacity:1" />
      <stop
         id="stop28285-7"
         offset="0.52741116"
         style="stop-color:#f5d838;stop-opacity:1" />
      <stop
         id="stop28283-7"
         offset="0.76906693"
         style="stop-color:#f6d811;stop-opacity:1" />
      <stop
         style="stop-color:#f5cd31;stop-opacity:1"
         offset="1"
         id="stop28279-5" />
    </linearGradient>
    <inkscape:path-effect
       effect="spiro"
       id="path-effect28273-44"
       is_visible="true" />
    <inkscape:path-effect
       effect="spiro"
       id="path-effect28384-7"
       is_visible="true" />
    <linearGradient
       id="linearGradient29529-6">
      <stop
         style="stop-color:#3a2903;stop-opacity:1;"
         offset="0"
         id="stop29531-0" />
      <stop
         id="stop29539-7"
         offset="0.55472803"
         style="stop-color:#735208;stop-opacity:1" />
      <stop
         style="stop-color:#ac8c04;stop-opacity:1"
         offset="1"
         id="stop29533-8" />
    </linearGradient>
    <inkscape:path-effect
       effect="spiro"
       id="path-effect29455-3"
       is_visible="true" />
    <linearGradient
       id="linearGradient29477-3">
      <stop
         style="stop-color:#757574;stop-opacity:0"
         offset="0"
         id="stop29479-5" />
      <stop
         id="stop29487-5"
         offset="0.26291031"
         style="stop-color:#757574;stop-opacity:1;" />
      <stop
         id="stop29485-0"
         offset="0.5"
         style="stop-color:#757574;stop-opacity:1;" />
      <stop
         style="stop-color:#757574;stop-opacity:0"
         offset="1"
         id="stop29481-3" />
    </linearGradient>
    <linearGradient
       id="linearGradient29336-6">
      <stop
         style="stop-color:#646464;stop-opacity:0"
         offset="0"
         id="stop29338-1" />
      <stop
         id="stop29344-7"
         offset="0.30628255"
         style="stop-color:#646464;stop-opacity:0.5825243" />
      <stop
         style="stop-color:#646464;stop-opacity:1"
         offset="0.47000006"
         id="stop29354-5" />
      <stop
         id="stop29356-3"
         offset="0.72834015"
         style="stop-color:#646464;stop-opacity:0.25728154" />
      <stop
         style="stop-color:#646464;stop-opacity:0;"
         offset="1"
         id="stop29340-6" />
    </linearGradient>
    <linearGradient
       id="linearGradient28976-3">
      <stop
         style="stop-color:#747474;stop-opacity:1"
         offset="0"
         id="stop28978-7" />
      <stop
         id="stop29259-5"
         offset="0.125"
         style="stop-color:#8c8c8c;stop-opacity:1;" />
      <stop
         id="stop29257-0"
         offset="0.25"
         style="stop-color:#a4a4a4;stop-opacity:1;" />
      <stop
         id="stop28984-4"
         offset="0.5"
         style="stop-color:#d4d4d4;stop-opacity:1" />
      <stop
         style="stop-color:#d4d4d4;stop-opacity:1"
         offset="0.61919296"
         id="stop28986-0" />
      <stop
         style="stop-color:#7c7c7c;stop-opacity:1"
         offset="1"
         id="stop28980-2" />
    </linearGradient>
    <inkscape:path-effect
       effect="spiro"
       id="path-effect28974-8"
       is_visible="true" />
    <clipPath
       clipPathUnits="userSpaceOnUse"
       id="clipPath29028-5">
      <path
         style="fill:url(#radialGradient29032);fill-opacity:1;stroke:none"
         d="m 85.75,122.36218 c -2.780425,1.91023 -5.110569,4.57487 -6.25,7.75 -1.436029,4.00163 -0.885838,8.48071 0.5,12.5 1.419488,4.11688 3.793788,8.04098 7.37932,10.51234 1.792766,1.23567 3.868091,2.08301 6.030402,2.33859 2.162311,0.25558 4.409274,-0.0949 6.340278,-1.10093 2.35312,-1.22596 4.14782,-3.37278 5.26217,-5.78076 1.11436,-2.40798 1.5888,-5.0701 1.73783,-7.71924 0.18989,-3.37546 -0.14047,-6.80646 -1.25,-10 -1.20527,-3.46909 -3.39005,-6.67055 -6.472754,-8.6666 -1.541351,-0.99803 -3.291947,-1.68356 -5.110883,-1.93515 -1.818936,-0.25158 -3.704766,-0.0633 -5.416363,0.60175 -0.975471,0.37901 -1.887438,0.9074 -2.75,1.5"
         id="path29030-7"
         inkscape:original-d="m 85.75,122.36218 c -2.54738,2.12715 -5.20812,4.59907 -6.25,7.75 -1.30914,3.95917 -1.63336,8.91703 0.5,12.5 3.91901,6.58194 12.38353,13.85135 19.75,11.75 4.87452,-1.3905 6.10748,-8.51023 7,-13.5 0.59149,-3.30679 0.59578,-7.19325 -1.25,-10 -3.61233,-5.49303 -10.4265,-9.89357 -17,-10 -1.04403,-0.0169 -1.94852,0.83074 -2.75,1.5 z"
         inkscape:connector-curvature="0"
         sodipodi:nodetypes="aaaaaaaa" />
    </clipPath>
    <inkscape:path-effect
       effect="spiro"
       id="path-effect28881-6"
       is_visible="true" />
    <linearGradient
       id="linearGradient28935-8">
      <stop
         style="stop-color:#949494;stop-opacity:0.39215687;"
         offset="0"
         id="stop28937-7" />
      <stop
         id="stop28943-3"
         offset="0.5"
         style="stop-color:#949494;stop-opacity:1;" />
      <stop
         style="stop-color:#949494;stop-opacity:0.39215687;"
         offset="1"
         id="stop28939-8" />
    </linearGradient>
    <linearGradient
       id="linearGradient28853-5">
      <stop
         style="stop-color:#020204;stop-opacity:1"
         offset="0"
         id="stop28855-3" />
      <stop
         id="stop28865-0"
         offset="0.73448181"
         style="stop-color:#020204;stop-opacity:1" />
      <stop
         style="stop-color:#5c5c5c;stop-opacity:1;"
         offset="1"
         id="stop28857-9" />
    </linearGradient>
    <inkscape:path-effect
       effect="spiro"
       id="path-effect28851-0"
       is_visible="true" />
    <inkscape:path-effect
       effect="spiro"
       id="path-effect28273-4-2"
       is_visible="true" />
    <inkscape:path-effect
       effect="spiro"
       id="path-effect28797-81"
       is_visible="true" />
    <inkscape:path-effect
       effect="spiro"
       id="path-effect28797-8-1"
       is_visible="true" />
    <inkscape:path-effect
       effect="spiro"
       id="path-effect28463-0-7"
       is_visible="true" />
    <inkscape:path-effect
       effect="spiro"
       id="path-effect28463-8-0"
       is_visible="true" />
    <inkscape:path-effect
       effect="spiro"
       id="path-effect29721-2"
       is_visible="true" />
    <inkscape:path-effect
       effect="spiro"
       id="path-effect28714-5"
       is_visible="true" />
    <inkscape:path-effect
       effect="spiro"
       id="path-effect29678-4-6"
       is_visible="true" />
    <inkscape:path-effect
       effect="spiro"
       id="path-effect29678-1"
       is_visible="true" />
    <inkscape:path-effect
       effect="spiro"
       id="path-effect29672-0"
       is_visible="true" />
  </defs>
  <sodipodi:namedview
     id="base"
     pagecolor="#ffffff"
     bordercolor="#666666"
     borderopacity="1.0"
     inkscape:pageopacity="0.0"
     inkscape:pageshadow="2"
     inkscape:zoom="2.8"
     inkscape:cx="84.034044"
     inkscape:cy="123.74748"
     inkscape:document-units="px"
     inkscape:current-layer="layer1"
     showgrid="false"
     units="px"
     inkscape:window-width="2089"
     inkscape:window-height="1107"
     inkscape:window-x="109"
     inkscape:window-y="167"
     inkscape:window-maximized="0" />
  <metadata
     id="metadata4154">
    <rdf:RDF>
      <cc:Work
         rdf:about="">
        <dc:format>image/svg+xml</dc:format>
        <dc:type
           rdf:resource="http://purl.org/dc/dcmitype/StillImage" />
        <dc:title></dc:title>
      </cc:Work>
    </rdf:RDF>
  </metadata>
  <g
     inkscape:label="Layer 1"
     inkscape:groupmode="layer"
     id="layer1"
     transform="translate(0,-912.36216)">
    <rect
       style="opacity:1;fill:none;fill-opacity:1;stroke:#000000;stroke-width:4;stroke-linejoin:round;stroke-miterlimit:4;stroke-dasharray:none;stroke-opacity:1"
       id="rect6855"
       width="224.64284"
       height="60.714241"
       x="7.857141"
       y="949.505"
       rx="12.571428"
       ry="12.571428" />
    <text
       xml:space="preserve"
       style="font-style:normal;font-weight:normal;font-size:37.54997635px;line-height:125%;font-family:sans-serif;text-align:center;letter-spacing:0px;word-spacing:0px;text-anchor:middle;fill:#000000;fill-opacity:1;stroke:none;stroke-width:1px;stroke-linecap:butt;stroke-linejoin:miter;stroke-opacity:1"
       x="75.063576"
       y="995.07941"
       id="text6857"
       sodipodi:linespacing="125%"><tspan
         sodipodi:role="line"
         id="tspan6859"
         x="75.063576"
         y="995.07941">http://</tspan></text>
    <path
       style="fill:#000000"
       d=""
       id="path7025"
       inkscape:connector-curvature="0" />
    <g
       transform="matrix(3.2603978,0,0,3.2603978,99.278484,934.53392)"
       id="g7039">
      <path
         style="fill:#3ba0e8;fill-opacity:1"
         d="M 11.125,15.625 Q 11.25,15.25 11.5,15.25 q 0.25,0 0.375,0.375 L 12,16 11.515625,16.015625 11.03125,16.03125 11.015625,16.140625 11,16.25 11.03125,16.03125 Q 11.0625,15.8125 11.125,15.625 L 11.1875,15.4375 11.09375,15.71875 11,16 11.125,15.625"
         id="path7043"
         inkscape:connector-curvature="0" />
      <path
         style="fill:#0083e1;fill-opacity:1"
         d="m 11,16.5 0,-0.5 0,0.375 0,0.375 0,-0.25 q 0,-0.25 0.03125,-0.46875 L 11.0625,15.8125 11.04687,15.921875 11.03124,16.03125 11.515615,16.01562 12,16 12.125,16.375 Q 12.25,16.75 12.5,17 q 0.25,0.25 0.5,0.5 0.25,0.25 0.5,0.5 0.25,0.25 0.5,0.5 0.25,0.25 0.625,0.375 L 15,19 15.125,19.375 Q 15.25,19.75 15.5,20 q 0.25,0.25 0.5,0.5 0.25,0.25 0.5,0.5 0.25,0.25 0.5,0.5 0.25,0.25 0.5,0.5 0.25,0.25 0.5,0.5 0.25,0.25 0.5,0.5 0.25,0.25 0.5,0.5 0.25,0.25 0.5,0.5 0.25,0.25 0.5,0.5 0.25,0.25 0.5,0.5 0.25,0.25 0.5,0.5 0.25,0.25 0.5,0.5 0.25,0.25 0.5,0.5 0.25,0.25 0.625,0.375 Q 23,27 23,27.5 23,28 22.5,28 l -0.5,0 -0.5,0 -0.5,0 -0.5,0 q -0.5,0 -0.875,0.125 -0.375,0.125 -0.5,0.5 L 19,29 l 0.125,0.375 q 0.125,0.375 0.5,0.5 L 20,30 l 0,0.5 q 0,0.5 0,1 0,0.5 0,1 0,0.5 -0.125,0.875 -0.125,0.375 -0.5,0.5 Q 19,34 18.5,34 18,34 17.625,33.875 17.25,33.75 17,33.5 16.75,33.25 16.375,33.125 16,33 16,32.5 16,32 15.875,31.625 15.75,31.25 15.375,31.125 L 15,31 14.625,31.125 Q 14.25,31.25 14,31.5 13.75,31.75 13.5,32 13.25,32.25 13.125,32.625 13,33 12.5,33 12,33 11.515625,32.984375 l -0.484375,-0.01563 0.01563,0.109375 0.01563,0.109375 -0.03125,-0.21875 Q 11,32.75 11,32.5 l 0,-0.25 0,0.375 0,0.375 0,-0.5 q 0,-0.5 0,-1 0,-0.5 0,-1 0,-0.5 0,-1 0,-0.5 0,-1 0,-0.5 0,-1 0,-0.5 0,-1 0,-0.5 0,-1 0,-0.5 0,-1 0,-0.5 0,-1 0,-0.5 0,-1 0,-0.5 0,-1 0,-0.5 0,-1 0,-0.5 0,-1 0,-0.5 0,-1 0,-0.5 0,-1 0,-0.5 0,-1 m 6.671875,16.328125 0.421875,0.07813 -0.07813,-0.04687 -0.07813,-0.04687 0.15625,0.09375 Q 18.25,33 18.5,33 l 0.25,0 -0.375,0 -0.375,0 0.375,-0.125 q 0.375,-0.125 0.5,-0.5 Q 19,32 19,31.5 l 0,-0.5 0,0.375 0,0.375 0,-0.25 q 0,-0.25 -0.09375,-0.40625 l -0.09375,-0.15625 0.04687,0.07813 0.04687,0.07813 -0.07813,-0.421875 Q 18.75,30.25 18.390625,30.109375 L 18.03125,29.96875 18.046875,30.078125 18.0625,30.1875 18.03125,29.96875 Q 18,29.75 18,29.5 l 0,-0.25 0,0.375 0,0.375 0,-0.5 Q 18,29 17.875,28.625 17.75,28.25 17.40625,28.125 L 17.0625,28 l 0,0.09375 0,0.09375 0,-0.1875 q 0,-0.1875 0.0625,-0.375 L 17.1875,27.4375 17.09375,27.71875 17,28 17.125,27.625 q 0.125,-0.375 0.5,-0.5 Q 18,27 18.5,27 q 0.5,0 1,0 0.5,0 0.875,-0.125 Q 20.75,26.75 20.75,26.5 20.75,26.25 20.5,26 20.25,25.75 20,25.5 19.75,25.25 19.375,25.125 L 19,25 18.875,24.625 Q 18.75,24.25 18.5,24 18.25,23.75 18,23.5 17.75,23.25 17.5,23 17.25,22.75 17,22.5 16.75,22.25 16.5,22 16.25,21.75 16,21.5 15.75,21.25 15.5,21 15.25,20.75 15,20.5 14.75,20.25 14.5,20 14.25,19.75 14,19.5 13.75,19.25 13.5,19 13.25,18.75 13,18.5 q -0.25,-0.25 -0.5,-0.25 -0.25,0 -0.375,0.375 Q 12,19 12,19.5 q 0,0.5 0,1 0,0.5 0,1 0,0.5 0,1 0,0.5 0,1 0,0.5 0,1 0,0.5 0,1 0,0.5 0,1 0,0.5 0,1 0,0.5 0,1 0,0.5 0,1 0,0.5 0.125,0.875 0.125,0.375 0.375,0.375 0.25,0 0.5,-0.25 0.25,-0.25 0.5,-0.5 0.25,-0.25 0.5,-0.5 0.25,-0.25 0.625,-0.375 Q 15,29 15.484375,29.015625 l 0.484375,0.01563 -0.01563,-0.109375 -0.01563,-0.109375 0.03125,0.21875 Q 16,29.25 16,29.5 l 0,0.25 0,-0.375 0,-0.375 0,0.5 0,0.5 0,-0.375 0,-0.375 0,0.25 q 0,0.25 0.09375,0.40625 l 0.09375,0.15625 -0.04687,-0.07813 -0.04687,-0.07813 0.07813,0.421875 q 0.07813,0.421875 0.4375,0.5625 l 0.35936,0.140635 -0.01563,-0.109375 -0.01563,-0.109375 0.03125,0.21875 Q 17,31.25 17,31.5 l 0,0.25 0,-0.375 0,-0.375 0,0.5 0,0.5 0,-0.375 0,-0.375 0,0.25 q 0,0.25 0.09375,0.40625 l 0.09375,0.15625 -0.04687,-0.07813 -0.04687,-0.07813 0.07813,0.421875 q 0.07813,0.421875 0.5,0.5 M 20,30.375 20,30 20,29.875 20,29.75 20,30 q 0,0.25 0,0.5 l 0,0.25 0,-0.375"
         id="path7045"
         inkscape:connector-curvature="0" />
      <path
         style="fill:#198fe4;fill-opacity:1"
         d="M 12.125,16.375 12,16 12.375,16.125 Q 12.75,16.25 13,16.5 L 13.25,16.75 13,17 12.75,17.25 12.5,17 Q 12.25,16.75 12.125,16.375 M 12.5625,17.0625 12.75,17.25 12.8125,17.3125 12.875,17.375 12.75,17.25 Q 12.625,17.125 12.5,17 l -0.125,-0.125 0.1875,0.1875 m 0.75,-0.25 L 13.25,16.75 13.0625,16.5625 12.875,16.375 13,16.5 q 0.125,0.125 0.25,0.25 l 0.125,0.125 -0.0625,-0.0625"
         id="path7047"
         inkscape:connector-curvature="0" />
      <path
         style="fill:#1e92e5;fill-opacity:1"
         d="M 13,17.5 12.75,17.25 13,17 13.25,16.75 13.5,17 q 0.25,0.25 0.5,0.5 L 14.25,17.75 14,18 13.75,18.25 13.5,18 Q 13.25,17.75 13,17.5 M 13.5625,18.0625 13.75,18.25 13.8125,18.3125 13.875,18.375 13.75,18.25 Q 13.625,18.125 13.5,18 l -0.125,-0.125 0.1875,0.1875 m 0.75,-0.25 L 14.25,17.75 14.0625,17.5625 13.875,17.375 14,17.5 q 0.125,0.125 0.25,0.25 l 0.125,0.125 -0.0625,-0.0625 M 13.4375,16.9375 13.25,16.75 13.1875,16.6875 13.125,16.625 13.25,16.75 q 0.125,0.125 0.25,0.25 l 0.125,0.125 -0.1875,-0.1875 m -0.75,0.25 L 12.75,17.25 12.9375,17.4375 13.125,17.625 13,17.5 q -0.125,-0.125 -0.25,-0.25 l -0.125,-0.125 0.0625,0.0625"
         id="path7049"
         inkscape:connector-curvature="0" />
      <path
         style="fill:#ffffff;fill-opacity:1"
         d="M 12.125,18.625 Q 12.25,18.25 12.5,18.25 q 0.25,0 0.5,0.25 0.25,0.25 0.5,0.5 0.25,0.25 0.5,0.5 0.25,0.25 0.5,0.5 0.25,0.25 0.5,0.5 L 15.25,20.75 15,21 q -0.25,0.25 -0.125,0.625 0.125,0.375 0.5,0.5 0.375,0.125 0.625,0.375 0.25,0.25 0.5,0.5 0.25,0.25 0.5,0.5 0.25,0.25 0.5,0.5 0.25,0.25 0.5,0.5 0.25,0.25 0.625,0.375 L 19,25 19.125,25.375 Q 19.25,25.75 19.5,26 q 0.25,0.25 0.359375,0.609375 l 0.109375,0.359375 0.109375,-0.01563 0.109375,-0.01563 -0.21875,0.03125 Q 19.75,27 19.5,27 l -0.25,0 0.375,0 0.375,0 -0.5,0 q -0.5,0 -1,0 -0.5,0 -0.875,0.125 -0.375,0.125 -0.5,0.5 -0.125,0.375 0,0.75 0.125,0.375 0.484375,0.515625 L 17.96875,29.03125 17.953125,28.921875 17.9375,28.8125 17.96875,29.03125 Q 18,29.25 18,29.5 l 0,0.25 0,-0.375 0,-0.375 0,0.5 q 0,0.5 0.125,0.875 0.125,0.375 0.5,0.5 Q 19,31 19,31.5 q 0,0.5 -0.125,0.875 -0.125,0.375 -0.5,0.5 Q 18,33 17.875,32.625 17.75,32.25 17.375,32.125 17,32 17,31.5 17,31 16.875,30.625 16.75,30.25 16.375,30.125 16,30 16,29.5 16,29 15.875,28.625 15.75,28.25 15.5,28.25 q -0.25,0 -0.359375,0.390625 L 15.03125,29.03125 15.140625,29.015625 15.25,29 15.03125,29.03125 Q 14.8125,29.0625 14.625,29.125 L 14.4375,29.1875 14.71875,29.09375 15,29 14.625,29.125 14.25,29.25 14.53125,29.15625 14.8125,29.0625 14.625,29.125 q -0.1875,0.0625 -0.34375,0.15625 L 14.125,29.375 14.20313,29.32813 14.28126,29.28126 14.015635,29.015635 Q 13.75,28.75 13.375,28.875 13,29 12.875,29.375 12.75,29.75 12.390625,29.859375 l -0.359375,0.109375 0.01563,0.109375 0.01563,0.109375 -0.03125,-0.21875 Q 12,29.75 12,29.5 l 0,-0.25 0,0.375 0,0.375 0,-0.5 q 0,-0.5 0,-1 0,-0.5 0,-1 0,-0.5 0,-1 0,-0.5 0,-1 0,-0.5 0,-1 0,-0.5 0,-1 0,-0.5 0,-1 0,-0.5 0,-1 0,-0.5 0,-1 0,-0.5 0,-1 0,-0.5 0.125,-0.875 M 15.3125,20.8125 15.25,20.75 15.0625,20.5625 14.875,20.375 15,20.5 q 0.125,0.125 0.25,0.25 l 0.125,0.125 -0.0625,-0.0625"
         id="path7051"
         inkscape:connector-curvature="0" />
      <path
         style="fill:#349ce7;fill-opacity:1"
         d="M 14,18.5 13.75,18.25 14,18 14.25,17.75 14.5,18 q 0.25,0.25 0.375,0.625 L 15,19 14.625,18.875 Q 14.25,18.75 14,18.5 M 14.4375,17.9375 14.25,17.75 14.1875,17.6875 14.125,17.625 14.25,17.75 q 0.125,0.125 0.25,0.25 l 0.125,0.125 -0.1875,-0.1875 m -0.75,0.25 L 13.75,18.25 13.9375,18.4375 14.125,18.625 14,18.5 q -0.125,-0.125 -0.25,-0.25 l -0.125,-0.125 0.0625,0.0625"
         id="path7053"
         inkscape:connector-curvature="0" />
      <path
         style="fill:#4ba7ea;fill-opacity:1"
         d="M 15.125,19.375 15,19 15.375,19.125 Q 15.75,19.25 16,19.5 L 16.25,19.75 16,20 15.75,20.25 15.5,20 Q 15.25,19.75 15.125,19.375 M 15.5625,20.0625 15.75,20.25 15.8125,20.3125 15.875,20.375 15.75,20.25 Q 15.625,20.125 15.5,20 l -0.125,-0.125 0.1875,0.1875 m 0.75,-0.25 L 16.25,19.75 16.0625,19.5625 15.875,19.375 16,19.5 q 0.125,0.125 0.25,0.25 l 0.125,0.125 -0.0625,-0.0625"
         id="path7055"
         inkscape:connector-curvature="0" />
      <path
         style="fill:#5db0ec;fill-opacity:1"
         d="M 16,20.5 15.75,20.25 16,20 16.25,19.75 16.5,20 q 0.25,0.25 0.5,0.5 L 17.25,20.75 17,21 16.75,21.25 16.5,21 Q 16.25,20.75 16,20.5 M 16.5625,21.0625 16.75,21.25 16.8125,21.3125 16.875,21.375 16.75,21.25 Q 16.625,21.125 16.5,21 l -0.125,-0.125 0.1875,0.1875 m 0.75,-0.25 L 17.25,20.75 17.0625,20.5625 16.875,20.375 17,20.5 q 0.125,0.125 0.25,0.25 l 0.125,0.125 -0.0625,-0.0625 M 16.4375,19.9375 16.25,19.75 16.1875,19.6875 16.125,19.625 16.25,19.75 q 0.125,0.125 0.25,0.25 l 0.125,0.125 -0.1875,-0.1875 m -0.75,0.25 L 15.75,20.25 15.9375,20.4375 16.125,20.625 16,20.5 q -0.125,-0.125 -0.25,-0.25 l -0.125,-0.125 0.0625,0.0625"
         id="path7057"
         inkscape:connector-curvature="0" />
      <path
         style="fill:#f4fafe;fill-opacity:1"
         d="M 14.875,21.625 Q 14.75,21.25 15,21 L 15.25,20.75 15.5,21 q 0.25,0.25 0.5,0.5 l 0.25,0.25 -0.265625,0.265625 -0.265625,0.265625 0.07813,0.04687 L 15.875,22.375 15.71875,22.28125 Q 15.5625,22.1875 15.375,22.125 L 15.1875,22.0625 15.46875,22.15625 15.75,22.25 15.375,22.125 Q 15,22 14.875,21.625 M 16.3125,21.8125 16.25,21.75 16.0625,21.5625 15.875,21.375 16,21.5 q 0.125,0.125 0.25,0.25 l 0.125,0.125 -0.0625,-0.0625 M 15.4375,20.9375 15.25,20.75 15.1875,20.6875 15.125,20.625 15.25,20.75 q 0.125,0.125 0.25,0.25 l 0.125,0.125 -0.1875,-0.1875"
         id="path7059"
         inkscape:connector-curvature="0" />
      <path
         style="fill:#70b9ee;fill-opacity:1"
         d="M 17,21.5 16.75,21.25 17,21 17.25,20.75 17.5,21 q 0.25,0.25 0.5,0.5 L 18.25,21.75 18,22 17.75,22.25 17.5,22 Q 17.25,21.75 17,21.5 M 17.5625,22.0625 17.75,22.25 17.8125,22.3125 17.875,22.375 17.75,22.25 Q 17.625,22.125 17.5,22 l -0.125,-0.125 0.1875,0.1875 m 0.75,-0.25 L 18.25,21.75 18.0625,21.5625 17.875,21.375 18,21.5 q 0.125,0.125 0.25,0.25 l 0.125,0.125 -0.0625,-0.0625 M 17.4375,20.9375 17.25,20.75 17.1875,20.6875 17.125,20.625 17.25,20.75 q 0.125,0.125 0.25,0.25 l 0.125,0.125 -0.1875,-0.1875 m -0.75,0.25 L 16.75,21.25 16.9375,21.4375 17.125,21.625 17,21.5 q -0.125,-0.125 -0.25,-0.25 l -0.125,-0.125 0.0625,0.0625"
         id="path7061"
         inkscape:connector-curvature="0" />
      <path
         style="fill:#e6f3fc;fill-opacity:1"
         d="M 16,22.5 15.75,22.25 15.9375,22.4375 16.125,22.625 16,22.5 q -0.125,-0.125 -0.28125,-0.21875 l -0.15625,-0.09375 0.07813,0.04687 0.07813,0.04687 0.265625,-0.265625 L 16.25,21.75 16.5,22 q 0.25,0.25 0.5,0.5 L 17.25,22.75 17,23 16.75,23.25 16.5,23 Q 16.25,22.75 16,22.5 M 16.5625,23.0625 16.75,23.25 16.8125,23.3125 16.875,23.375 16.75,23.25 Q 16.625,23.125 16.5,23 l -0.125,-0.125 0.1875,0.1875 m 0.75,-0.25 L 17.25,22.75 17.0625,22.5625 16.875,22.375 17,22.5 q 0.125,0.125 0.25,0.25 l 0.125,0.125 -0.0625,-0.0625 M 16.4375,21.9375 16.25,21.75 16.1875,21.6875 16.125,21.625 16.25,21.75 q 0.125,0.125 0.25,0.25 l 0.125,0.125 -0.1875,-0.1875"
         id="path7063"
         inkscape:connector-curvature="0" />
      <path
         style="fill:#82c2f0;fill-opacity:1"
         d="M 18,22.5 17.75,22.25 18,22 18.25,21.75 18.5,22 q 0.25,0.25 0.5,0.5 L 19.25,22.75 19,23 18.75,23.25 18.5,23 Q 18.25,22.75 18,22.5 M 18.5625,23.0625 18.75,23.25 18.8125,23.3125 18.875,23.375 18.75,23.25 Q 18.625,23.125 18.5,23 l -0.125,-0.125 0.1875,0.1875 m 0.75,-0.25 L 19.25,22.75 19.0625,22.5625 18.875,22.375 19,22.5 q 0.125,0.125 0.25,0.25 l 0.125,0.125 -0.0625,-0.0625 M 18.4375,21.9375 18.25,21.75 18.1875,21.6875 18.125,21.625 18.25,21.75 q 0.125,0.125 0.25,0.25 l 0.125,0.125 -0.1875,-0.1875 m -0.75,0.25 L 17.75,22.25 17.9375,22.4375 18.125,22.625 18,22.5 q -0.125,-0.125 -0.25,-0.25 l -0.125,-0.125 0.0625,0.0625"
         id="path7065"
         inkscape:connector-curvature="0" />
      <path
         style="fill:#d4eafa;fill-opacity:1"
         d="M 17,23.5 16.75,23.25 17,23 17.25,22.75 17.5,23 q 0.25,0.25 0.5,0.5 L 18.25,23.75 18,24 17.75,24.25 17.5,24 Q 17.25,23.75 17,23.5 M 17.5625,24.0625 17.75,24.25 17.8125,24.3125 17.875,24.375 17.75,24.25 Q 17.625,24.125 17.5,24 l -0.125,-0.125 0.1875,0.1875 m 0.75,-0.25 L 18.25,23.75 18.0625,23.5625 17.875,23.375 18,23.5 q 0.125,0.125 0.25,0.25 l 0.125,0.125 -0.0625,-0.0625 M 17.4375,22.9375 17.25,22.75 17.1875,22.6875 17.125,22.625 17.25,22.75 q 0.125,0.125 0.25,0.25 l 0.125,0.125 -0.1875,-0.1875 m -0.75,0.25 L 16.75,23.25 16.9375,23.4375 17.125,23.625 17,23.5 q -0.125,-0.125 -0.25,-0.25 l -0.125,-0.125 0.0625,0.0625"
         id="path7067"
         inkscape:connector-curvature="0" />
      <path
         style="fill:#94cbf2;fill-opacity:1"
         d="M 19,23.5 18.75,23.25 19,23 19.25,22.75 19.5,23 q 0.25,0.25 0.5,0.5 L 20.25,23.75 20,24 19.75,24.25 19.5,24 Q 19.25,23.75 19,23.5 M 19.5625,24.0625 19.75,24.25 19.8125,24.3125 19.875,24.375 19.75,24.25 Q 19.625,24.125 19.5,24 l -0.125,-0.125 0.1875,0.1875 m 0.75,-0.25 L 20.25,23.75 20.0625,23.5625 19.875,23.375 20,23.5 q 0.125,0.125 0.25,0.25 l 0.125,0.125 -0.0625,-0.0625 M 19.4375,22.9375 19.25,22.75 19.1875,22.6875 19.125,22.625 19.25,22.75 q 0.125,0.125 0.25,0.25 l 0.125,0.125 -0.1875,-0.1875 m -0.75,0.25 L 18.75,23.25 18.9375,23.4375 19.125,23.625 19,23.5 q -0.125,-0.125 -0.25,-0.25 l -0.125,-0.125 0.0625,0.0625"
         id="path7069"
         inkscape:connector-curvature="0" />
      <path
         style="fill:#c4e2f8;fill-opacity:1"
         d="M 18,24.5 17.75,24.25 18,24 18.25,23.75 18.5,24 q 0.25,0.25 0.375,0.625 L 19,25 18.625,24.875 Q 18.25,24.75 18,24.5 M 18.4375,23.9375 18.25,23.75 18.1875,23.6875 18.125,23.625 18.25,23.75 q 0.125,0.125 0.25,0.25 l 0.125,0.125 -0.1875,-0.1875 m -0.75,0.25 L 17.75,24.25 17.9375,24.4375 18.125,24.625 18,24.5 q -0.125,-0.125 -0.25,-0.25 l -0.125,-0.125 0.0625,0.0625"
         id="path7071"
         inkscape:connector-curvature="0" />
      <path
         style="fill:#a4d3f4;fill-opacity:1"
         d="M 20,24.5 19.75,24.25 20,24 20.25,23.75 20.5,24 q 0.25,0.25 0.5,0.5 L 21.25,24.75 21,25 20.75,25.25 20.5,25 Q 20.25,24.75 20,24.5 M 20.5625,25.0625 20.75,25.25 20.8125,25.3125 20.875,25.375 20.75,25.25 Q 20.625,25.125 20.5,25 l -0.125,-0.125 0.1875,0.1875 m 0.75,-0.25 L 21.25,24.75 21.0625,24.5625 20.875,24.375 21,24.5 q 0.125,0.125 0.25,0.25 l 0.125,0.125 -0.0625,-0.0625 M 20.4375,23.9375 20.25,23.75 20.1875,23.6875 20.125,23.625 20.25,23.75 q 0.125,0.125 0.25,0.25 l 0.125,0.125 -0.1875,-0.1875 m -0.75,0.25 L 19.75,24.25 19.9375,24.4375 20.125,24.625 20,24.5 q -0.125,-0.125 -0.25,-0.25 l -0.125,-0.125 0.0625,0.0625"
         id="path7073"
         inkscape:connector-curvature="0" />
      <path
         style="fill:#add7f5;fill-opacity:1"
         d="M 19.125,25.375 19,25 19.375,25.125 Q 19.75,25.25 20,25.5 l 0.25,0.25 -0.265625,0.265625 -0.265625,0.265625 0.04687,0.07813 0.04687,0.07813 -0.09375,-0.15625 Q 19.625,26.125 19.5,26 L 19.375,25.875 19.5625,26.0625 19.75,26.25 19.5,26 Q 19.25,25.75 19.125,25.375 M 20.3125,25.8125 20.25,25.75 20.0625,25.5625 19.875,25.375 20,25.5 q 0.125,0.125 0.25,0.25 l 0.125,0.125 -0.0625,-0.0625"
         id="path7075"
         inkscape:connector-curvature="0" />
      <path
         style="fill:#b6dcf6;fill-opacity:1"
         d="M 21,25.5 20.75,25.25 21,25 21.25,24.75 21.5,25 q 0.25,0.25 0.5,0.5 L 22.25,25.75 22,26 21.75,26.25 21.5,26 Q 21.25,25.75 21,25.5 M 21.5625,26.0625 21.75,26.25 21.8125,26.3125 21.875,26.375 21.75,26.25 Q 21.625,26.125 21.5,26 l -0.125,-0.125 0.1875,0.1875 m 0.75,-0.25 L 22.25,25.75 22.0625,25.5625 21.875,25.375 22,25.5 q 0.125,0.125 0.25,0.25 l 0.125,0.125 -0.0625,-0.0625 M 21.4375,24.9375 21.25,24.75 21.1875,24.6875 21.125,24.625 21.25,24.75 q 0.125,0.125 0.25,0.25 l 0.125,0.125 -0.1875,-0.1875 m -0.75,0.25 L 20.75,25.25 20.9375,25.4375 21.125,25.625 21,25.5 q -0.125,-0.125 -0.25,-0.25 l -0.125,-0.125 0.0625,0.0625"
         id="path7077"
         inkscape:connector-curvature="0" />
      <path
         style="fill:#9dcff3;fill-opacity:1"
         d="M 19.859375,26.609375 19.75,26.25 19.84375,26.53125 19.9375,26.8125 19.875,26.625 Q 19.8125,26.4375 19.71875,26.28125 L 19.625,26.125 l 0.04687,0.07813 0.04687,0.07813 0.265625,-0.265625 L 20.25,25.75 20.5,26 q 0.25,0.25 0.25,0.5 0,0.25 -0.375,0.375 L 20,27 20.28125,26.90625 20.5625,26.8125 20.375,26.875 q -0.1875,0.0625 -0.40625,0.09375 L 19.75,27 19.859375,26.984375 19.96875,26.96875 19.859375,26.609375 M 20.4375,25.9375 20.25,25.75 20.1875,25.6875 20.125,25.625 20.25,25.75 q 0.125,0.125 0.25,0.25 l 0.125,0.125 -0.1875,-0.1875"
         id="path7079"
         inkscape:connector-curvature="0" />
      <path
         style="fill:#c4e2f8;fill-opacity:1"
         d="M 22,26.5 21.75,26.25 22,26 22.25,25.75 22.5,26 q 0.25,0.25 0.328125,0.671875 l 0.07813,0.421875 0.04687,0.07813 L 23,27.25 22.90625,27.09375 Q 22.8125,26.9375 22.625,26.875 L 22.4375,26.8125 22.71875,26.90625 23,27 22.625,26.875 Q 22.25,26.75 22,26.5 M 22.4375,25.9375 22.25,25.75 22.1875,25.6875 22.125,25.625 22.25,25.75 q 0.125,0.125 0.25,0.25 l 0.125,0.125 -0.1875,-0.1875 m -0.75,0.25 L 21.75,26.25 21.9375,26.4375 22.125,26.625 22,26.5 q -0.125,-0.125 -0.25,-0.25 l -0.125,-0.125 0.0625,0.0625"
         id="path7081"
         inkscape:connector-curvature="0" />
      <path
         style="fill:#ebf5fd;fill-opacity:1"
         d="m 23,27.5 0,-0.5 0,0.375 0,0.375 0,-0.25 q 0,-0.25 -0.09375,-0.40625 l -0.09375,-0.15625 0.04687,0.07813 0.04687,0.07813 0.546875,-0.04687 Q 24,27 24,27.5 24,28 23.4375,27.9375 L 22.875,27.875 22.8125,27.9375 22.75,28 22.875,27.875 Q 23,27.75 23,27.5 l 0,-0.25 0,0.375 0,0.375 0,-0.5"
         id="path7083"
         inkscape:connector-curvature="0" />
      <path
         style="fill:#8dc8f2;fill-opacity:1"
         d="M 15.140625,28.640625 Q 15.25,28.25 15.5,28.25 q 0.25,0 0.375,0.375 L 16,29 15.90625,28.71875 15.8125,28.4375 15.875,28.625 q 0.0625,0.1875 0.09375,0.40625 L 16,29.25 15.984375,29.140625 15.96875,29.03125 15.484375,29.015625 15,29 l 0.375,0 0.375,0 -0.25,0 q -0.25,0 -0.46875,0.03125 l -0.21875,0.03125 0.109375,-0.01563 0.109375,-0.01563 0.109375,-0.390625"
         id="path7085"
         inkscape:connector-curvature="0" />
      <path
         style="fill:#74bbef;fill-opacity:1"
         d="M 17.125,28.375 17,28 17.09375,28.28125 17.1875,28.5625 17.125,28.375 Q 17.0625,28.1875 17.0625,28 l 0,-0.1875 0,0.09375 0,0.09375 0.34375,0.125 Q 17.75,28.25 17.875,28.625 L 18,29 17.90625,28.71875 17.8125,28.4375 17.875,28.625 q 0.0625,0.1875 0.09375,0.40625 L 18,29.25 17.984375,29.140625 17.96875,29.03125 17.609375,28.890625 Q 17.25,28.75 17.125,28.375"
         id="path7087"
         inkscape:connector-curvature="0" />
      <path
         style="fill:#7bbfef;fill-opacity:1"
         d="m 19.125,28.625 q 0.125,-0.375 0.5,-0.5 L 20,28 19.71875,28.09375 19.4375,28.1875 19.625,28.125 q 0.1875,-0.0625 0.40625,-0.09375 L 20.25,28 20.140625,28.015625 20.03125,28.03125 20.015625,28.515625 20,29 19.5,29 19,29 19.125,28.625"
         id="path7089"
         inkscape:connector-curvature="0" />
      <path
         style="fill:#9dcff3;fill-opacity:1"
         d="m 20.015625,28.515625 0.01563,-0.484375 -0.109375,0.01563 -0.109375,0.01563 0.21875,-0.03125 Q 20.25,28 20.5,28 l 0.25,0 -0.375,0 -0.375,0 0.5,0 0.5,0 0,0.5 0,0.5 -0.5,0 -0.5,0 0.01563,-0.484375 M 20,28.625 20,29 20,29.125 20,29.25 20,29 q 0,-0.25 0,-0.5 l 0,-0.25 0,0.375"
         id="path7091"
         inkscape:connector-curvature="0" />
      <path
         style="fill:#a4d3f4;fill-opacity:1"
         d="m 21,28.5 0,-0.5 0.5,0 0.5,0 0,0.5 0,0.5 -0.5,0 -0.5,0 0,-0.5"
         id="path7093"
         inkscape:connector-curvature="0" />
      <path
         style="fill:#b2daf6;fill-opacity:1"
         d="m 22,28.5 0,-0.5 0.5,0 0.5,0 -0.375,0 -0.375,0 0.25,0 q 0.25,0 0.375,-0.125 L 23,27.75 22.9375,27.8125 22.875,27.875 22.8125,28.3125 Q 22.75,28.75 22.375,28.875 L 22,29 22,28.5"
         id="path7095"
         inkscape:connector-curvature="0" />
      <path
         style="fill:#f8fcfe;fill-opacity:1"
         d="M 12.875,29.375 Q 13,29 13.375,28.875 13.75,28.75 14.015625,29.015625 l 0.265625,0.265625 0.07813,-0.04687 0.07813,-0.04687 -0.15625,0.09375 Q 14.125,29.375 14,29.5 L 13.875,29.625 14.0625,29.4375 14.25,29.25 14,29.5 Q 13.75,29.75 13.5,30 L 13.25,30.25 12.96875,29.96875 12.6875,29.6875 12.625,29.75 l -0.0625,0.0625 0.125,-0.125 q 0.125,-0.125 0.1875,-0.3125 L 12.9375,29.1875 12.84375,29.46875 12.75,29.75 12.875,29.375 M 13.1875,30.3125 13.25,30.25 13.4375,30.0625 13.625,29.875 13.5,30 q -0.125,0.125 -0.25,0.25 l -0.125,0.125 0.0625,-0.0625"
         id="path7097"
         inkscape:connector-curvature="0" />
      <path
         style="fill:#84c3f1;fill-opacity:1"
         d="M 19.125,29.375 19,29 l 0.5,0 0.5,0 0,0.5 0,0.5 -0.375,-0.125 q -0.375,-0.125 -0.5,-0.5 M 20,30.125 20,30 l 0,-0.375 0,-0.375 0,0.25 q 0,0.25 0,0.5 l 0,0.25 0,-0.125"
         id="path7099"
         inkscape:connector-curvature="0" />
      <path
         style="fill:#dfeffb;fill-opacity:1"
         d="M 12.125,30.375 12,30 12.09375,30.28125 12.1875,30.5625 12.125,30.375 Q 12.0625,30.1875 12.03125,29.96875 L 12,29.75 12.01563,29.859375 12.03126,29.96875 12.390635,29.859375 12.75,29.75 12.46875,29.84375 12.1875,29.9375 12.375,29.875 q 0.1875,-0.0625 0.3125,-0.1875 l 0.125,-0.125 -0.0625,0.0625 -0.0625,0.0625 0.28125,0.28125 L 13.25,30.25 13,30.5 q -0.25,0.25 -0.5,0.25 -0.25,0 -0.375,-0.375 M 13.0625,30.4375 13.25,30.25 13.3125,30.1875 13.375,30.125 13.25,30.25 Q 13.125,30.375 13,30.5 l -0.125,0.125 0.1875,-0.1875"
         id="path7101"
         inkscape:connector-curvature="0" />
      <path
         style="fill:#4da8ea;fill-opacity:1"
         d="M 16.171875,30.328125 16.09375,29.90625 16.046875,29.828125 16,29.75 16.09375,29.90625 Q 16.1875,30.0625 16.375,30.125 L 16.5625,30.1875 16.28125,30.09375 16,30 l 0.375,0.125 q 0.375,0.125 0.5,0.5 L 17,31 16.90625,30.71875 16.8125,30.4375 16.875,30.625 q 0.0625,0.1875 0.09375,0.40625 L 17,31.25 16.984375,31.140625 16.96875,31.03125 16.609375,30.890625 Q 16.25,30.75 16.171875,30.328125"
         id="path7103"
         inkscape:connector-curvature="0" />
      <path
         style="fill:#4da8ea;fill-opacity:1"
         d="M 18.125,30.375 18,30 18.09375,30.28125 18.1875,30.5625 18.125,30.375 Q 18.0625,30.1875 18.03125,29.96875 L 18,29.75 l 0.01563,0.109375 0.01563,0.109375 0.359375,0.140625 q 0.359375,0.140625 0.4375,0.5625 l 0.07813,0.421875 0.04687,0.07813 L 19,31.25 18.90625,31.09375 Q 18.8125,30.9375 18.625,30.875 L 18.4375,30.8125 18.71875,30.90625 19,31 18.625,30.875 q -0.375,-0.125 -0.5,-0.5"
         id="path7105"
         inkscape:connector-curvature="0" />
      <path
         style="fill:#d1e9fa;fill-opacity:1"
         d="m 14,31.5 q 0.25,-0.25 0.625,-0.375 L 15,31 15,31.5 15,32 14.625,32.125 14.25,32.25 14.53125,32.15625 14.8125,32.0625 14.625,32.125 q -0.1875,0.0625 -0.34375,0.15625 L 14.125,32.375 14.203125,32.328125 14.28125,32.28125 14.015625,32.015625 13.75,31.75 14,31.5 M 13.9375,31.5625 13.75,31.75 13.6875,31.8125 13.625,31.875 13.75,31.75 Q 13.875,31.625 14,31.5 l 0.125,-0.125 -0.1875,0.1875"
         id="path7107"
         inkscape:connector-curvature="0" />
      <path
         style="fill:#bddff7;fill-opacity:1"
         d="m 15,31.5 0,-0.5 0.375,0.125 q 0.375,0.125 0.5,0.5 L 16,32 15.90625,31.71875 15.8125,31.4375 15.875,31.625 q 0.0625,0.1875 0.09375,0.40625 L 16,32.25 15.984375,32.140625 15.96875,32.03125 15.484375,32.015625 15,32 15,31.5"
         id="path7109"
         inkscape:connector-curvature="0" />
      <path
         style="fill:#bfe0f7;fill-opacity:1"
         d="m 20,31.5 0,-0.5 0.375,0.125 q 0.375,0.125 0.5,0.5 L 21,32 20.90625,31.71875 20.8125,31.4375 20.875,31.625 q 0.0625,0.1875 0.09375,0.40625 L 21,32.25 20.984375,32.140625 20.96875,32.03125 20.484375,32.015625 20,32 20,31.5 m 0,0.125 0,0.375 0,0.125 0,0.125 0,-0.25 q 0,-0.25 0,-0.5 l 0,-0.25 0,0.375 m 0,-0.75 0,0.125 0,0.375 0,0.375 0,-0.25 q 0,-0.25 0,-0.5 l 0,-0.25 0,0.125"
         id="path7111"
         inkscape:connector-curvature="0" />
      <path
         style="fill:#dbedfb;fill-opacity:1"
         d="M 13.125,32.625 Q 13.25,32.25 13.5,32 l 0.25,-0.25 0.265625,0.265625 0.265625,0.265625 0.07813,-0.04687 0.07813,-0.04687 -0.15625,0.09375 Q 14.125,32.375 14,32.5 L 13.875,32.625 14.0625,32.4375 14.25,32.25 14,32.5 q -0.25,0.25 -0.671875,0.328125 l -0.421875,0.07813 -0.07813,0.04687 L 12.75,33 12.90625,32.90625 Q 13.0625,32.8125 13.125,32.625 L 13.1875,32.4375 13.09375,32.71875 13,33 13.125,32.625 M 13.8125,31.6875 13.75,31.75 13.5625,31.9375 13.375,32.125 13.5,32 q 0.125,-0.125 0.25,-0.25 l 0.125,-0.125 -0.0625,0.0625"
         id="path7113"
         inkscape:connector-curvature="0" />
      <path
         style="fill:#52abeb;fill-opacity:1"
         d="M 17.171875,32.328125 17.09375,31.90625 17.046875,31.828125 17,31.75 17.09375,31.90625 Q 17.1875,32.0625 17.375,32.125 L 17.5625,32.1875 17.28125,32.09375 17,32 l 0.375,0.125 q 0.375,0.125 0.5,0.5 L 18,33 17.90625,32.71875 17.8125,32.4375 17.875,32.625 q 0.0625,0.1875 0.21875,0.28125 L 18.25,33 18.17187,32.95313 18.09374,32.90626 17.671865,32.82813 q -0.421875,-0.07813 -0.5,-0.5"
         id="path7115"
         inkscape:connector-curvature="0" />
      <path
         style="fill:#379ee7;fill-opacity:1"
         d="m 20,32.5 0,-0.5 0.484375,0.01563 0.484375,0.01563 -0.01563,-0.109375 -0.01563,-0.109375 0.03125,0.21875 Q 21,32.25 21,32.5 l 0,0.25 0,-0.375 0,-0.375 0,0.5 0,0.5 0,-0.375 0,-0.375 0,0.25 q 0,0.25 -0.03125,0.46875 l -0.03125,0.21875 0.01563,-0.109375 0.01563,-0.109375 -0.5,0 -0.5,0 -0.01563,0.109375 -0.01563,0.109375 0.03125,-0.21875 Q 20,32.75 20,32.5 l 0,-0.25 0,0.375 0,0.375 0,-0.5 m 0,-0.625 0,0.125 0,0.375 0,0.375 0,-0.25 q 0,-0.25 0,-0.5 l 0,-0.25 0,0.125"
         id="path7117"
         inkscape:connector-curvature="0" />
      <path
         style="fill:#50aaea;fill-opacity:1"
         d="M 11.125,33.375 11,33 11.09375,33.28125 11.1875,33.5625 11.125,33.375 Q 11.0625,33.1875 11.03125,32.96875 L 11,32.75 l 0.01563,0.109375 0.01563,0.109375 0.484375,0.01563 L 12,33 11.875,33.375 Q 11.75,33.75 11.5,33.75 q -0.25,0 -0.375,-0.375 m 1,-0.375 -0.125,0 -0.375,0 -0.375,0 0.25,0 q 0.25,0 0.5,0 l 0.25,0 -0.125,0"
         id="path7119"
         inkscape:connector-curvature="0" />
      <path
         style="fill:#f6fbfe;fill-opacity:1"
         d="M 11.875,33.375 12,33 l 0.5,0 0.5,0 -0.375,0 -0.375,0 0.25,0 q 0.25,0 0.40625,-0.09375 l 0.15625,-0.09375 -0.07813,0.04687 -0.07813,0.04687 0.04687,0.546875 Q 13,34 12.625,34.125 12.25,34.25 11.984375,33.953125 L 11.71875,33.65625 11.671875,33.703125 11.625,33.75 11.71875,33.65625 Q 11.8125,33.5625 11.875,33.375 L 11.9375,33.1875 11.84375,33.46875 11.75,33.75 11.875,33.375 M 12.375,33 12,33 11.875,33 11.75,33 12,33 q 0.25,0 0.5,0 l 0.25,0 -0.375,0"
         id="path7121"
         inkscape:connector-curvature="0" />
      <path
         style="fill:#d8ecfa;fill-opacity:1"
         d="M 16.171875,33.328125 16.09375,32.90625 16.046875,32.828125 16,32.75 16.09375,32.90625 Q 16.1875,33.0625 16.375,33.125 L 16.5625,33.1875 16.28125,33.09375 16,33 16.375,33.125 Q 16.75,33.25 17,33.5 L 17.25,33.75 17.0625,33.5625 16.875,33.375 17,33.5 q 0.125,0.125 0.28125,0.21875 L 17.4375,33.8125 17.35937,33.76563 17.28124,33.71876 17.015615,33.984385 16.75,34.25 16.5,34 Q 16.25,33.75 16.171875,33.328125 M 16.5625,34.0625 16.75,34.25 16.8125,34.3125 16.875,34.375 16.75,34.25 Q 16.625,34.125 16.5,34 l -0.125,-0.125 0.1875,0.1875"
         id="path7123"
         inkscape:connector-curvature="0" />
      <path
         style="fill:#74bbef;fill-opacity:1"
         d="M 19.875,33.375 20,33 19.90625,33.28125 19.8125,33.5625 19.875,33.375 q 0.0625,-0.1875 0.09375,-0.40625 L 20,32.75 l -0.01563,0.109375 -0.01563,0.109375 0.5,0 0.5,0 0.01563,-0.109375 L 21,32.75 20.96875,32.96875 Q 20.9375,33.1875 20.875,33.375 L 20.8125,33.5625 20.90625,33.28125 21,33 20.875,33.375 Q 20.75,33.75 20.5,34 L 20.25,34.25 19.96875,33.96875 19.6875,33.6875 19.625,33.75 l -0.0625,0.0625 0.125,-0.125 q 0.125,-0.125 0.1875,-0.3125 L 19.9375,33.1875 19.84375,33.46875 19.75,33.75 19.875,33.375 M 20.1875,34.3125 20.25,34.25 20.4375,34.0625 20.625,33.875 20.5,34 q -0.125,0.125 -0.25,0.25 l -0.125,0.125 0.0625,-0.0625"
         id="path7125"
         inkscape:connector-curvature="0" />
      <path
         style="fill:#c2e1f8;fill-opacity:1"
         d="M 17,34.5 16.75,34.25 17.015625,33.984375 17.28125,33.71875 17.203125,33.671875 17.125,33.625 17.28125,33.71875 Q 17.4375,33.8125 17.625,33.875 L 17.8125,33.9375 17.53125,33.84375 17.25,33.75 17.625,33.875 18,34 17.71875,33.90625 17.4375,33.8125 17.625,33.875 q 0.1875,0.0625 0.40625,0.09375 L 18.25,34 18.140625,33.98437 18.03125,33.96874 l 0,0.5 0,0.5 0.109375,0.01563 L 18.25,35 18.03125,34.96875 Q 17.8125,34.9375 17.625,34.875 L 17.4375,34.8125 17.71875,34.90625 18,35 17.625,34.875 Q 17.25,34.75 17,34.5 M 16.6875,34.1875 16.75,34.25 16.9375,34.4375 17.125,34.625 17,34.5 q -0.125,-0.125 -0.25,-0.25 l -0.125,-0.125 0.0625,0.0625"
         id="path7127"
         inkscape:connector-curvature="0" />
      <path
         style="fill:#2796e6;fill-opacity:1"
         d="m 18.03125,34.46875 0,-0.5 -0.109375,-0.01563 -0.109375,-0.01563 0.21875,0.03125 Q 18.25,34 18.5,34 l 0.25,0 -0.375,0 -0.375,0 0.5,0 0.5,0 -0.375,0 -0.375,0 0.25,0 q 0.25,0 0.46875,-0.03125 l 0.21875,-0.03125 -0.109375,0.01563 -0.109375,0.01563 0,0.5 0,0.5 0.109375,-0.01563 0.109375,-0.01563 -0.21875,0.03125 Q 18.75,35 18.5,35 l -0.25,0 0.375,0 0.375,0 -0.5,0 -0.5,0 0.375,0 0.375,0 -0.25,0 q -0.25,0 -0.46875,-0.03125 l -0.21875,-0.03125 0.109375,0.01563 0.109375,0.01563 0,-0.5"
         id="path7129"
         inkscape:connector-curvature="0" />
      <path
         style="fill:#89c6f1;fill-opacity:1"
         d="m 18.96875,34.46875 0,-0.5 -0.109375,0.01563 L 18.75,34 18.96875,33.96875 Q 19.1875,33.9375 19.375,33.875 L 19.5625,33.8125 19.28125,33.90625 19,34 19.375,33.875 19.75,33.75 19.46875,33.84375 19.1875,33.9375 19.375,33.875 q 0.1875,-0.0625 0.3125,-0.1875 l 0.125,-0.125 -0.0625,0.0625 -0.0625,0.0625 0.28125,0.28125 L 20.25,34.25 20,34.5 q -0.25,0.25 -0.625,0.375 L 19,35 19.28125,34.90625 19.5625,34.8125 19.375,34.875 q -0.1875,0.0625 -0.40625,0.09375 L 18.75,35 l 0.109375,-0.01563 0.109375,-0.01563 0,-0.5 M 20.0625,34.4375 20.25,34.25 20.3125,34.1875 20.375,34.125 20.25,34.25 Q 20.125,34.375 20,34.5 l -0.125,0.125 0.1875,-0.1875"
         id="path7131"
         inkscape:connector-curvature="0" />
    </g>
  </g>
</svg>
